<svg width="21" height="20" viewBox="0 0 21 20" fill="none" xmlns="http://www.w3.org/2000/svg">
<path d="M18.9863 9.86327L10.9414 1.8242C10.8835 1.76616 10.8147 1.72012 10.7389 1.6887C10.6632 1.65728 10.582 1.64111 10.5 1.64111C10.418 1.64111 10.3368 1.65728 10.2611 1.6887C10.1853 1.72012 10.1165 1.76616 10.0586 1.8242L2.01367 9.86327C1.7793 10.0976 1.64648 10.416 1.64648 10.748C1.64648 11.4375 2.20703 11.998 2.89648 11.998H3.74414V17.7344C3.74414 18.0801 4.02344 18.3594 4.36914 18.3594H9.25V13.9844H11.4375V18.3594H16.6309C16.9766 18.3594 17.2559 18.0801 17.2559 17.7344V11.998H18.1035C18.4355 11.998 18.7539 11.8672 18.9883 11.6308C19.4746 11.1426 19.4746 10.3515 18.9863 9.86327Z" fill="#2E3192"/>
</svg>
