<svg width="21" height="20" viewBox="0 0 21 20" fill="none" xmlns="http://www.w3.org/2000/svg">
<path d="M17.6875 2.1875H3.3125C2.9668 2.1875 2.6875 2.4668 2.6875 2.8125V17.1875C2.6875 17.5332 2.9668 17.8125 3.3125 17.8125H17.6875C18.0332 17.8125 18.3125 17.5332 18.3125 17.1875V2.8125C18.3125 2.4668 18.0332 2.1875 17.6875 2.1875ZM13.0332 10.1719L9.13867 13.2344C8.99414 13.3477 8.78125 13.2461 8.78125 13.0625V6.93945C8.78125 6.75586 8.99414 6.65234 9.13867 6.76758L13.0332 9.82812C13.0592 9.8486 13.0802 9.8747 13.0947 9.90447C13.1091 9.93424 13.1166 9.96691 13.1166 10C13.1166 10.0331 13.1091 10.0658 13.0947 10.0955C13.0802 10.1253 13.0592 10.1514 13.0332 10.1719Z" fill="#252775"/>
</svg>
