<svg width="90" height="80" viewBox="0 0 90 80" fill="none" xmlns="http://www.w3.org/2000/svg">
<path fill-rule="evenodd" clip-rule="evenodd" d="M70.4531 12.2837C72.4889 13.649 74.3847 15.22 76.1311 16.9967C79.465 20.3818 82.0799 24.3186 83.901 28.7042C84.1707 29.3525 84.4214 30.0068 84.6532 30.6665H89.6662V55.9999L86.9988 55.9998C86.9988 55.9998 77.6654 79.9998 50.9988 79.9998C24.3574 79.9998 15.0165 56.0453 14.9988 55.9999H10.9995L13.6662 30.6665H16.299C16.5314 30.004 16.7829 29.3466 17.0535 28.6949C18.8839 24.3092 21.4988 20.3724 24.8234 16.9873C28.1574 13.6022 32.033 10.9465 36.3569 9.09502C40.466 7.32766 44.8086 6.3645 49.2819 6.22424C50.5893 5.99046 51.9341 6.01851 53.2415 6.30839C57.1639 6.60763 60.9741 7.54274 64.5976 9.09502C66.5774 9.94597 68.4732 10.9652 70.2569 12.1528L70.4531 12.2837ZM21.1 30.6665H16.9971C17.7725 28.4818 18.7505 26.3993 19.911 24.4401H23.6C22.5974 26.4214 21.7611 28.5049 21.1 30.6665ZM27.0199 30.6665H21.8287C22.5127 28.4898 23.3717 26.4126 24.3845 24.4588H29.1286C28.2832 26.4319 27.5777 28.5094 27.0199 30.6665ZM28.3321 55.9999C28.3401 56.0144 29.6911 58.4858 32.2935 61.3956H34.7039C34.1943 59.6665 33.7591 57.8628 33.4016 55.9999H28.3321ZM33.2629 30.6665H27.7367C28.3131 28.4855 29.0381 26.4049 29.8944 24.4495H34.7226C34.1372 26.431 33.649 28.5109 33.2629 30.6665ZM34.1083 55.9999C34.4731 57.8785 34.9138 59.6822 35.423 61.3956H42.4738C42.1911 59.671 41.9485 57.867 41.7482 55.9999H34.1083ZM41.6183 30.6665H33.9614C34.3568 28.4906 34.8541 26.4107 35.4417 24.4495H42.3991C42.0854 26.4287 41.8241 28.5091 41.6183 30.6665ZM42.451 55.9999C42.6528 57.8681 42.8977 59.6721 43.1836 61.3956H51.131V55.9999H42.451ZM51.131 30.6665H42.3205C42.5278 28.5077 42.7915 26.4273 43.1089 24.4495H51.131V30.6665ZM51.822 55.9999V61.3956H59.1811C59.467 59.6721 59.7118 57.8681 59.9136 55.9999H51.822ZM60.0441 30.6665H51.822V24.4495H59.2558C59.5731 26.4273 59.8368 28.5077 60.0441 30.6665ZM60.6017 55.9999C60.4015 57.867 60.1577 59.671 59.8721 61.3956H66.6708C67.18 59.6822 67.6207 57.8785 67.9852 55.9999H60.6017ZM68.123 30.6665H60.7183C60.5125 28.5091 60.2512 26.4287 59.9375 24.4495H66.6428C67.2304 26.4107 67.7276 28.4906 68.123 30.6665ZM68.7014 55.9999C68.3441 57.8626 67.9089 59.6664 67.3992 61.3956H70.5469C72.6409 59.2702 74.0461 57.3787 74.6551 56.5077C74.7047 56.3391 74.7534 56.1698 74.8012 55.9999H68.7014ZM74.9914 30.6665H68.8292C68.4434 28.5143 67.9557 26.4375 67.3712 24.4588H72.8345C73.6904 26.41 74.4151 28.4875 74.9914 30.6665ZM78.8807 30.6665H75.7139C75.156 28.5074 74.4494 26.4267 73.6002 24.4495H76.3178C77.3354 26.4061 78.1964 28.4864 78.8807 30.6665ZM83.9127 30.6665H79.6088C78.9482 28.5082 78.1128 26.4278 77.1116 24.4495H80.9499V24.3934C82.1263 26.3691 83.1218 28.468 83.9127 30.6665ZM67.1938 62.0876H69.8484C68.7492 63.1504 67.4869 64.2492 66.0743 65.2911C66.4777 64.2575 66.8509 63.1877 67.1938 62.0876ZM66.4654 62.0876C66.0333 63.464 65.5551 64.7808 65.0361 66.027C64.6867 66.2647 64.3292 66.498 63.9636 66.7257H58.8075C59.1624 65.2576 59.4799 63.7053 59.7601 62.0876H66.4654ZM58.6301 67.4177H62.7954C61.3276 68.2427 59.7442 68.9664 58.0546 69.5201C58.1747 69.1175 58.2919 68.7034 58.4059 68.278C58.4806 67.9975 58.5553 67.7076 58.6301 67.4177ZM57.7335 68.1003C57.5776 68.6785 57.4172 69.2344 57.2524 69.7676C55.5368 70.2643 53.7174 70.5816 51.8034 70.6517V67.4177H57.911C57.8796 67.5484 57.8454 67.6762 57.8115 67.8026L57.8115 67.8027C57.7848 67.9024 57.7582 68.0014 57.7335 68.1003ZM51.131 67.4177V70.6661C51.0869 70.6663 51.0429 70.6665 50.9988 70.6665C48.9029 70.6665 46.9432 70.367 45.1235 69.8536C44.9478 69.293 44.7771 68.7081 44.6124 68.1003C44.5844 67.9881 44.5541 67.8736 44.5237 67.759C44.4934 67.6445 44.463 67.5299 44.435 67.4177H51.131ZM43.94 68.278C44.0647 68.7365 44.1925 69.1809 44.323 69.6113C42.5778 69.0469 40.9681 68.2888 39.4975 67.4177H43.7159L43.7162 67.4187C43.7908 67.7083 43.8654 67.9978 43.94 68.278ZM43.5478 66.7257H38.3922C37.8859 66.3914 37.398 66.0451 36.9286 65.6905C36.4628 64.5445 36.0311 63.3407 35.6378 62.0876H42.5952C42.8754 63.7147 43.1929 65.267 43.5478 66.7257ZM34.9187 62.0876C35.2067 63.029 35.5201 63.9482 35.8568 64.8416C34.7653 63.9361 33.7885 62.9987 32.929 62.0876H34.9187ZM23.9642 23.7482H20.3316C21.3552 22.1068 22.5091 20.5564 23.7808 19.11H26.8966C25.8133 20.5688 24.8327 22.1211 23.9642 23.7482ZM27.4196 18.418H24.4055C26.3562 16.3138 28.5637 14.4449 30.987 12.8542L31.2299 12.8355H32.9202C31.2952 14.1259 29.773 15.6034 28.3628 17.2585L28.3628 17.2585L28.3628 17.2586C28.0453 17.6419 27.7278 18.0253 27.4196 18.418ZM51.8127 66.7257H58.0977C58.4526 65.267 58.7795 63.7147 59.0596 62.0876H51.8127V66.7257ZM44.2576 66.7257H51.131V62.0876H43.2957C43.5758 63.7147 43.9027 65.267 44.2576 66.7257ZM76.7568 23.7575H80.567C79.4931 22.0276 78.4471 20.6343 77.1023 19.1194H76.9342H73.8244C74.917 20.5875 75.8976 22.1398 76.7568 23.7575ZM73.3014 23.7575H75.9536C75.0571 22.1117 74.0485 20.5594 72.9372 19.1194H70.8079C71.7418 20.5875 72.5636 22.1304 73.3014 23.7575ZM67.1658 23.7575H72.5263C71.7698 22.1117 70.92 20.5594 69.9768 19.1194H65.4474C66.0918 20.5875 66.6615 22.1398 67.1658 23.7575ZM59.8348 23.7575H66.4467C65.933 22.1211 65.3447 20.5688 64.7097 19.1194H58.9102C59.2558 20.5875 59.5639 22.1398 59.8348 23.7575ZM51.8127 23.7575H59.1344C58.8635 22.1304 58.546 20.5781 58.2005 19.1194H51.8127V23.7575ZM43.2209 23.7575H51.131V19.1194H44.1548C43.8093 20.5875 43.4918 22.1398 43.2209 23.7575ZM35.6658 23.7575H42.5299C42.8007 22.1304 43.1089 20.5781 43.4544 19.1194H37.4028C36.7585 20.5688 36.1794 22.1211 35.6658 23.7575ZM30.2026 23.7575H34.9374C35.4417 22.1398 36.0113 20.5875 36.6464 19.1194H32.7521C31.8182 20.5594 30.9684 22.1117 30.2026 23.7575ZM24.758 23.7575H29.4368C30.1746 22.1304 30.9964 20.5781 31.9209 19.1194H27.7651C26.6632 20.5688 25.6546 22.1211 24.758 23.7575ZM73.3014 18.4274H76.5233C74.5902 16.3141 72.4049 14.4438 70.0235 12.8448H67.8008C69.4258 14.1352 70.948 15.6127 72.3582 17.2679L72.3587 17.2685L72.3588 17.2686C72.6761 17.6518 72.9934 18.0349 73.3014 18.4274ZM70.369 18.4274H72.4049C70.6865 16.3047 68.7534 14.4251 66.6428 12.8448H65.6716C67.1191 14.182 68.4639 15.7249 69.7059 17.4642C69.9301 17.7822 70.1542 18.1095 70.369 18.4274ZM65.1486 18.4274H69.5285C68.0716 16.2953 66.428 14.4158 64.6256 12.8448H61.9734C62.8512 14.0604 63.673 15.435 64.4482 16.9593C64.5151 17.0987 64.5828 17.2381 64.6507 17.3778L64.6507 17.3779L64.6507 17.3779C64.8194 17.7253 64.9887 18.074 65.1486 18.4274ZM58.7421 18.4274H64.3921C63.4209 16.3234 62.3189 14.4438 61.1142 12.8448H57.0051C57.5001 14.1072 57.967 15.5379 58.4059 17.1369C58.5273 17.5577 58.6394 17.9879 58.7421 18.4274ZM51.8127 18.4274H58.0324L58.0323 18.427C57.9389 18.0531 57.8456 17.6792 57.7429 17.3146C57.2853 15.6314 56.7903 14.1446 56.2673 12.8448H51.8127V18.4274ZM44.3229 18.4274H51.131V12.8448H46.088C45.565 14.1446 45.07 15.6314 44.6124 17.3146C44.5097 17.6792 44.4164 18.0531 44.323 18.427L44.3229 18.4274ZM37.711 18.4274H43.6132C43.7252 17.9879 43.8373 17.5577 43.9494 17.1369C44.379 15.5379 44.8459 14.1072 45.3502 12.8448H40.989C39.7842 14.4438 38.6823 16.3234 37.711 18.4274ZM33.2097 18.4274H36.9546C37.1787 17.9318 37.4122 17.4362 37.655 16.9593C38.4301 15.435 39.2519 14.0604 40.1298 12.8448H38.1033C36.3102 14.4158 34.6666 16.2953 33.2097 18.4274ZM28.3161 18.4274H32.3692C32.584 18.1001 32.8081 17.7823 33.0322 17.4644L33.0322 17.4643L33.0323 17.4642C34.2743 15.7249 35.6191 14.182 37.0666 12.8448H34.0782C31.9583 14.4251 30.0251 16.3047 28.3161 18.4274ZM66.8949 12.1622H68.9495C65.6809 10.1423 62.0761 8.63681 58.2378 7.76716C59.676 8.20666 61.0955 8.77708 62.4777 9.45971C64.0092 10.2171 65.4941 11.1242 66.8949 12.1622ZM64.8964 12.1622H65.6809C64.4668 11.3206 63.1874 10.5818 61.8706 9.94596C62.9166 10.5912 63.9252 11.3299 64.8964 12.1622ZM61.4597 12.1622H63.8038C62.1041 10.7969 60.283 9.71219 58.3686 8.9267C59.4425 9.8057 60.4792 10.8904 61.4597 12.1622ZM56.7249 12.1622H60.5819C59.181 10.4322 57.6495 9.06696 56.0245 8.14121C55.3615 7.96354 54.6984 7.83262 54.0167 7.72976C54.9786 8.71162 55.8938 10.1984 56.7249 12.1622ZM51.822 12.1622H55.9778C54.9972 9.92726 53.9233 8.37499 52.812 7.59885C52.4851 7.57079 52.1489 7.55209 51.822 7.54274V12.1622ZM46.3775 12.1622H51.131V7.53339C50.58 7.54274 50.0383 7.57079 49.4967 7.6269C48.404 8.42174 47.3394 9.96467 46.3775 12.1622ZM41.5213 12.1622H45.6304C46.4429 10.2546 47.33 8.78643 48.2733 7.80457C47.3207 7.97289 46.3775 8.20667 45.4623 8.5246C44.0614 9.42231 42.7447 10.6473 41.5213 12.1622ZM38.9344 12.1622H40.6434C41.4092 11.1616 42.2123 10.2826 43.0435 9.52517C41.6147 10.2265 40.2418 11.1149 38.9344 12.1622ZM35.0308 12.1622H37.8418C38.9344 11.2271 40.0737 10.4135 41.2598 9.71219C42.5392 8.95475 43.8373 8.34693 45.1728 7.88873C45.2054 7.86535 45.2405 7.84431 45.2755 7.82327C45.3105 7.80223 45.3455 7.78119 45.3782 7.75781C41.652 8.47785 38.1686 10.0021 35.0308 12.1622ZM32.005 12.1622H33.8167C35.2175 11.1242 36.6931 10.2265 38.2433 9.45971C39.392 8.88929 40.5594 8.40304 41.7454 8.00094C38.262 8.89864 34.9934 10.3107 32.005 12.1622Z" fill="white"/>
<path fill-rule="evenodd" clip-rule="evenodd" d="M27.7344 61.8119L24.8672 64.7296L27.0059 66.8992L27.3421 66.5625L25.5863 64.767L26.5576 63.7757L28.1453 65.3842L28.4815 65.0475L26.9032 63.4391L27.7811 62.5413L29.4715 64.262L29.817 63.916L27.7344 61.8119ZM28.3978 67.3539C28.3978 67.1107 28.5285 66.8395 28.7713 66.5497C29.0235 66.2598 29.2663 66.0914 29.4905 66.0447C29.7333 66.0073 29.9294 66.0634 30.0975 66.213C30.2656 66.3626 30.3403 66.559 30.3403 66.8115C30.3403 67.0546 30.2003 67.3352 29.9387 67.6438C29.7053 67.915 29.4718 68.074 29.2383 68.1114C29.0048 68.1488 28.8087 68.0927 28.6406 67.943C28.4725 67.7934 28.3978 67.6064 28.3978 67.3539ZM29.2383 68.4387L28.9955 68.7286L29.3504 69.0372L32.0121 65.9231L31.6385 65.5864L30.6766 66.7086C30.6952 66.559 30.6672 66.4094 30.6112 66.2598C30.5551 66.1101 30.4618 65.9792 30.331 65.8576C30.1442 65.6987 29.9387 65.5958 29.7053 65.5677C29.4718 65.5303 29.2476 65.5677 29.0142 65.6893C28.79 65.8109 28.5752 65.9792 28.3791 66.2036C28.183 66.4281 28.0522 66.6712 27.9775 66.9237C27.9121 67.1762 27.9028 67.41 27.9681 67.6438C28.0335 67.8776 28.1549 68.0646 28.3324 68.2236C28.6032 68.4667 28.9114 68.5322 29.2383 68.4387ZM31.6527 70.789L31.9048 70.4337C31.5219 70.574 31.1764 70.5178 30.8588 70.2934C30.7188 70.1905 30.6067 70.069 30.5226 69.9193C30.4386 69.7791 30.4012 69.6388 30.4012 69.5172C30.4012 69.3957 30.4386 69.2647 30.4946 69.1245C30.5413 69.0309 30.616 68.9 30.7468 68.7224L31.8208 67.2261L32.2224 67.5253L31.2698 68.8626C31.1203 69.0777 31.0176 69.2273 30.9803 69.3115C30.9336 69.4424 30.9242 69.564 30.9616 69.6856C30.9989 69.8071 31.083 69.91 31.2044 70.0035C31.3258 70.0877 31.4659 70.1438 31.6153 70.1625C31.7648 70.1718 31.9048 70.1438 32.0263 70.069C32.1477 69.9848 32.2784 69.8539 32.4279 69.6388L33.3524 68.3483L33.754 68.6475L32.0263 71.0696L31.6527 70.789ZM35.3413 71.9826L34.9677 71.6647C34.8089 71.8611 34.6408 71.9733 34.4634 72.0013C34.2859 72.0387 34.1178 72.0013 33.9497 71.8985C33.7442 71.7676 33.6228 71.5805 33.5855 71.3467C33.5481 71.1129 33.6322 70.8324 33.847 70.4864C34.0524 70.1497 34.2766 69.944 34.5007 69.8785C34.7249 69.8037 34.949 69.8318 35.1638 69.972C35.3039 70.0562 35.3973 70.1778 35.444 70.3274C35.4907 70.477 35.4814 70.6454 35.416 70.8417L35.8643 71.0381C35.967 70.7482 35.9857 70.477 35.8923 70.2339C35.8082 69.9814 35.6308 69.7663 35.3599 69.598C35.1451 69.4671 34.9117 69.3829 34.6688 69.3735C34.426 69.3642 34.1925 69.4297 33.9777 69.5793C33.7629 69.7289 33.5761 69.9346 33.408 70.2058C33.1465 70.636 33.0531 71.0194 33.1185 71.3841C33.1839 71.7395 33.3893 72.0294 33.7349 72.2445C34.0057 72.4222 34.2859 72.4783 34.5754 72.4409C34.865 72.3941 35.1171 72.2445 35.3413 71.9826ZM37.7107 72.5862C37.5146 72.5769 37.2438 72.5208 36.8889 72.4085C36.6927 72.3431 36.5433 72.315 36.4499 72.3057C36.3565 72.3057 36.2725 72.3244 36.1978 72.3712C36.1324 72.4179 36.0763 72.474 36.039 72.5582C35.9829 72.6798 35.9829 72.8013 36.039 72.9322C36.095 73.0538 36.2071 73.1567 36.3845 73.2408C36.562 73.325 36.7301 73.3624 36.8982 73.3437C37.0757 73.3344 37.2157 73.2689 37.3465 73.166C37.4399 73.0912 37.5426 72.9509 37.636 72.7452L37.7107 72.5862ZM37.2718 73.6243C37.0383 73.6897 36.8328 73.7178 36.646 73.6991C36.4686 73.6804 36.2818 73.6336 36.1044 73.5494C35.8148 73.4092 35.6187 73.2315 35.5253 73.0071C35.4319 72.792 35.4413 72.5675 35.544 72.3431C35.6 72.2122 35.6934 72.0999 35.7962 72.0251C35.9082 71.941 36.0296 71.8942 36.1511 71.8662C36.2818 71.8475 36.4126 71.8475 36.5433 71.8662C36.646 71.8849 36.7955 71.9223 36.9729 71.9877C37.3652 72.1186 37.6547 72.1935 37.8602 72.2122C37.8881 72.1468 37.9068 72.1094 37.9162 72.0907L37.9162 72.0906C38.0003 71.9036 38.0189 71.7539 37.9629 71.6417C37.8975 71.4827 37.7481 71.3518 37.5239 71.2396C37.3091 71.1367 37.141 71.0993 37.0009 71.1274C36.8609 71.1554 36.7208 71.249 36.59 71.4266L36.1791 71.1554C36.3098 70.9778 36.4499 70.8562 36.59 70.7907C36.7394 70.7159 36.9075 70.6879 37.1224 70.7066C37.3278 70.7253 37.5426 70.7907 37.7761 70.9029C38.0003 71.0058 38.1777 71.1274 38.2898 71.249C38.4112 71.3705 38.4859 71.4827 38.5139 71.6043C38.5419 71.7165 38.5419 71.8475 38.5139 71.9877C38.4966 72.0655 38.4395 72.1913 38.3572 72.3724L38.3365 72.4179L38.0563 73.0258C37.8602 73.4466 37.7481 73.7271 37.7107 73.8393C37.6827 73.9609 37.664 74.0918 37.6734 74.2228L37.1971 73.9983C37.2064 73.8861 37.2251 73.7552 37.2718 73.6243ZM39.4523 74.9016L39.5457 74.4621C39.4617 74.4341 39.3869 74.4154 39.3403 74.406C39.2655 74.3779 39.2188 74.3499 39.1908 74.3125C39.1628 74.2657 39.1441 74.2283 39.1441 74.1816C39.1441 74.1348 39.1721 74.0413 39.2188 73.9104L39.8352 72.2739L40.3022 72.4515L40.4423 72.0868L39.9753 71.9091L40.3396 70.9366L39.7699 71.0394L39.5084 71.7315L39.1628 71.6005L39.0227 71.9652L39.3683 72.0962L38.7612 73.7046C38.6585 73.9852 38.6118 74.1816 38.6118 74.2844C38.6118 74.3873 38.6491 74.4808 38.7239 74.5743C38.7986 74.6679 38.92 74.7427 39.0881 74.8081C39.1908 74.8455 39.3122 74.8736 39.4523 74.9016ZM39.9473 75.0737L40.8533 72.2309L41.3296 72.3898L40.4236 75.2327L39.9473 75.0737ZM41.0307 71.7072L41.2082 71.1554L41.6845 71.3144L41.507 71.8662L41.0307 71.7072ZM41.9468 75.0208C41.844 74.787 41.8347 74.4878 41.9281 74.1231C42.0215 73.7584 42.1803 73.5059 42.3857 73.3749C42.6005 73.2347 42.8153 73.1973 43.0582 73.2627C43.301 73.3282 43.4691 73.4685 43.5812 73.6929C43.6932 73.9173 43.7026 74.2166 43.6092 74.572C43.5064 74.9554 43.3477 75.2079 43.1422 75.3481C42.9367 75.4884 42.7126 75.5258 42.4698 75.4604C42.227 75.3855 42.0588 75.2453 41.9468 75.0208ZM42.1803 72.9354C41.8254 73.1131 41.5732 73.4591 41.4331 73.9922C41.3024 74.4784 41.3304 74.8806 41.5172 75.2079C41.6946 75.5352 41.9841 75.7503 42.3764 75.8625C42.6285 75.9279 42.8714 75.9279 43.1142 75.8718C43.357 75.8157 43.5531 75.6941 43.7213 75.5071C43.88 75.3201 44.0108 75.0489 44.1135 74.6748C44.2256 74.2166 44.1976 73.8238 44.0201 73.4965C43.8427 73.1692 43.5531 72.9541 43.1609 72.8513C42.806 72.7577 42.4885 72.7858 42.1803 72.9354ZM44.5592 76.2442L44.9234 73.2797L45.3717 73.3358L45.325 73.7566C45.5772 73.4574 45.9041 73.3358 46.315 73.3826C46.4924 73.4013 46.6512 73.4574 46.7913 73.5415C46.9314 73.6257 47.0341 73.7192 47.0902 73.8314C47.1555 73.9437 47.1836 74.0746 47.1929 74.2242C47.2022 74.3177 47.1929 74.4861 47.1649 74.7105L46.9407 76.5341L46.4457 76.4686L46.6606 74.6637C46.6886 74.458 46.6886 74.299 46.6606 74.1962C46.6325 74.0933 46.5765 73.9998 46.4831 73.9343C46.3991 73.8595 46.287 73.8127 46.1469 73.8034C45.9414 73.7753 45.7546 73.8221 45.5772 73.9437C45.4091 74.0559 45.297 74.3084 45.2503 74.6824L45.0542 76.3003L44.5592 76.2442ZM48.9933 75.2951C49.3482 75.2483 49.6284 75.1829 49.8058 75.108V75.2764C49.8058 75.5101 49.7778 75.6691 49.7218 75.7813C49.6564 75.9403 49.5443 76.0525 49.3949 76.1367C49.2455 76.2302 49.0774 76.2676 48.8812 76.2676C48.6851 76.2676 48.5357 76.2209 48.4423 76.1367C48.3395 76.0432 48.2928 75.9403 48.2928 75.8C48.2928 75.7159 48.3115 75.6317 48.3582 75.5663C48.4049 75.4914 48.4703 75.4353 48.5543 75.3979C48.6384 75.3605 48.7878 75.3231 48.9933 75.2951ZM49.3108 76.5669C49.4789 76.5014 49.6564 76.3892 49.8432 76.2302C49.8619 76.3705 49.8899 76.4921 49.9272 76.6043H50.4502C50.3942 76.4921 50.3475 76.3705 50.3288 76.2396C50.3101 76.118 50.3008 75.8188 50.3008 75.3512V74.6779C50.3008 74.4534 50.3008 74.2944 50.2821 74.2103C50.2448 74.07 50.1981 73.9578 50.1234 73.8643C50.0486 73.7708 49.9366 73.6959 49.7778 73.6398C49.619 73.5744 49.4136 73.5463 49.1614 73.5463C48.8999 73.5463 48.6851 73.5837 48.489 73.6492C48.3022 73.724 48.1528 73.8269 48.05 73.9578C47.9473 74.0887 47.8726 74.257 47.8259 74.4721L48.3115 74.5376C48.3676 74.3318 48.4516 74.1822 48.5637 74.0981C48.6758 74.0045 48.8439 73.9671 49.0867 73.9671C49.3389 73.9671 49.535 74.0326 49.6564 74.1448C49.7498 74.2196 49.7965 74.3693 49.7965 74.575V74.7059C49.6004 74.7714 49.3108 74.8275 48.8999 74.8742C48.7612 74.8881 48.643 74.9123 48.5493 74.9315C48.5169 74.9382 48.4874 74.9442 48.461 74.9491C48.3302 74.9865 48.2181 75.0426 48.1061 75.1174C47.994 75.1922 47.9099 75.2857 47.8446 75.4073C47.7885 75.5289 47.7512 75.6691 47.7512 75.8094C47.7512 76.0525 47.8352 76.2583 48.0127 76.4173C48.1901 76.5762 48.4329 76.6604 48.7598 76.6604C48.9559 76.6604 49.1427 76.6323 49.3108 76.5669ZM51.2106 76.5823L50.8557 72.477L51.3507 72.4302L51.7056 76.5449L51.2106 76.5823ZM75.3278 67.5533L74.9822 67.2447C75.085 67.1886 75.1597 67.1418 75.225 67.0857C75.3091 67.0109 75.3651 66.9361 75.3838 66.8613C75.4118 66.7865 75.4212 66.7116 75.4025 66.6368C75.3932 66.5714 75.3465 66.4498 75.2624 66.2534C75.2585 66.2418 75.2531 66.2286 75.2467 66.2131L75.2466 66.213C75.2376 66.1911 75.2266 66.1647 75.2157 66.1318L72.4046 64.6637L72.7968 64.2989L74.3938 65.1686C74.5993 65.2809 74.8048 65.4024 75.0102 65.5334C74.9075 65.3276 74.8048 65.1125 74.7207 64.8974L74.0389 63.1767L74.4125 62.8401L75.5893 65.8513C75.7107 66.1786 75.7947 66.4124 75.8228 66.5433C75.8695 66.721 75.8695 66.88 75.8414 67.0296C75.8041 67.1605 75.7294 67.2821 75.6173 67.3943C75.5426 67.4411 75.4398 67.4972 75.3278 67.5533ZM68.9906 67.4245L70.8025 69.781L71.2041 69.4818L70.2608 68.2567C70.0927 68.0417 69.9899 67.864 69.9432 67.7143C69.9059 67.5647 69.9059 67.4244 69.9526 67.2935C69.9993 67.1533 70.0833 67.041 70.1861 66.9569C70.3262 66.8353 70.4662 66.7979 70.597 66.8353C70.7277 66.8727 70.8585 66.9756 70.9986 67.1533L72.1753 68.6869L72.5676 68.3783L71.5122 67.013C71.3161 66.7698 71.2414 66.5548 71.2601 66.3584C71.2788 66.162 71.3815 66.003 71.5403 65.8721C71.6337 65.7973 71.7271 65.7599 71.8298 65.7505C71.9325 65.7412 72.0259 65.7599 72.1006 65.8066C72.1847 65.8534 72.2874 65.9563 72.4088 66.1152L73.5482 67.6021L73.9405 67.2935L72.6983 65.6757C72.4929 65.4045 72.2781 65.2549 72.0539 65.2268C71.8298 65.1894 71.6056 65.2642 71.3722 65.4513C71.0733 65.6851 70.9426 66.0124 70.9706 66.4332C70.8211 66.3303 70.6717 66.2929 70.5036 66.3116C70.3355 66.321 70.1674 66.4051 69.9993 66.5361C69.8498 66.6576 69.7378 66.8072 69.6724 66.9662C69.607 67.1346 69.579 67.3029 69.5977 67.4712L69.3455 67.1439L68.9906 67.4245ZM67.3666 69.8818L68.7395 68.9747C68.5807 68.7783 68.4313 68.6567 68.2819 68.6006C68.0484 68.5258 67.8242 68.5538 67.6094 68.6941C67.4227 68.8157 67.3012 68.9934 67.2546 69.2084C67.1985 69.4329 67.2359 69.6573 67.3666 69.8818ZM69.1691 69.6573L69.6361 69.4329C69.7295 69.7321 69.7295 70.0127 69.6361 70.2745C69.5427 70.5364 69.3559 70.7608 69.0664 70.9478C68.7022 71.191 68.3473 71.2658 67.9924 71.1723C67.6375 71.0881 67.3293 70.845 67.0678 70.4335C66.7969 70.0127 66.6942 69.6199 66.7596 69.2459C66.8249 68.8718 67.0304 68.5725 67.3666 68.3481C67.6935 68.133 68.0391 68.0676 68.394 68.1611C68.7488 68.2452 69.1704 68.5538 69.4319 68.9747L67.5534 70.2465C67.7402 70.5083 67.955 70.6673 68.1885 70.7328C68.422 70.7889 68.6368 70.7421 68.8422 70.6112C68.9917 70.5083 69.0944 70.3867 69.1504 70.2278C69.2158 70.0688 69.2252 69.8818 69.1691 69.6573ZM65.2587 72.3415C65.0345 72.248 64.829 72.0235 64.6609 71.6869C64.4928 71.3409 64.4275 71.051 64.4835 70.8172C64.5302 70.5834 64.6516 70.4151 64.8571 70.3122C65.0532 70.2093 65.268 70.2093 65.4921 70.3028C65.7163 70.3964 65.9124 70.6302 66.0992 70.9949C66.2673 71.3315 66.3233 71.6027 66.2673 71.8365C66.2113 72.0609 66.0805 72.2293 65.8844 72.3321C65.6976 72.435 65.4828 72.435 65.2587 72.3415ZM66.5662 71.9581L66.7343 72.2947L67.1452 72.0796L65.296 68.4045L64.8477 68.6383L65.5108 69.9662C65.3801 69.8914 65.2306 69.854 65.0719 69.854C64.9224 69.8446 64.7637 69.882 64.6049 69.9662C64.3901 70.0784 64.2313 70.2374 64.1099 70.4431C63.9978 70.6395 63.9511 70.8733 63.9698 71.1351C63.9978 71.397 64.0726 71.6588 64.2033 71.93C64.3434 72.2012 64.5115 72.4163 64.717 72.5753C64.9224 72.7343 65.1372 72.8278 65.3707 72.8558C65.6042 72.8839 65.8284 72.8465 66.0338 72.7343C66.3514 72.5659 66.5288 72.3041 66.5662 71.9581ZM63.1981 72.4034C63.058 72.5437 62.8246 72.7027 62.507 72.8897C62.3409 72.986 62.2239 73.0741 62.1484 73.131L62.1334 73.1422C62.0681 73.2077 62.0214 73.2825 62.012 73.376C61.9934 73.4602 62.0027 73.5443 62.0401 73.6192C62.0867 73.7501 62.1801 73.8249 62.3109 73.8717C62.4323 73.9184 62.5817 73.8997 62.7685 73.8249C62.946 73.7501 63.0861 73.6472 63.1981 73.5163C63.3102 73.376 63.3662 73.2264 63.3756 73.0674C63.3849 72.9458 63.3569 72.7775 63.2728 72.5718L63.1981 72.4034ZM63.6558 73.4321C63.5437 73.6566 63.4223 73.8249 63.2915 73.9465C63.1608 74.068 62.9927 74.1709 62.8152 74.2457C62.5164 74.3673 62.2549 74.386 62.0307 74.3018C61.8066 74.227 61.6571 74.068 61.5637 73.8342C61.5077 73.7033 61.489 73.563 61.5077 73.4321C61.5264 73.2918 61.5731 73.1703 61.6385 73.0581C61.7132 72.9458 61.8066 72.8523 61.9093 72.7682C61.9934 72.7121 62.1241 72.6279 62.2922 72.5344C62.6564 72.338 62.9086 72.1697 63.058 72.0294L63.041 71.9903C63.0227 71.9484 63.0113 71.9224 63.0113 71.9078C62.9366 71.7114 62.8432 71.5992 62.7218 71.5618C62.5631 71.5057 62.3669 71.5244 62.1334 71.6179C61.9093 71.7114 61.7692 71.8143 61.6945 71.9359C61.6198 72.0574 61.5918 72.2258 61.6291 72.4409L61.1528 72.5624C61.1155 72.3473 61.1248 72.1603 61.1715 72.0013C61.2182 71.8424 61.3209 71.6927 61.4703 71.5525C61.6198 71.4122 61.8159 71.3 62.0494 71.1971C62.2829 71.1036 62.479 71.0475 62.6471 71.0475C62.8152 71.0381 62.946 71.0662 63.0487 71.1223C63.1514 71.1784 63.2448 71.2719 63.3195 71.3841C63.3662 71.4589 63.4316 71.5992 63.5157 71.805L63.7678 72.4315C63.9359 72.8617 64.0574 73.1422 64.1227 73.2451C64.1881 73.3573 64.2722 73.4508 64.3749 73.535L63.8892 73.7314C63.7958 73.6659 63.7211 73.563 63.6558 73.4321ZM57.1042 74.251L55.75 74.5222L55.9462 73.241C55.9835 72.9698 56.0115 72.6986 56.0209 72.4181C56.1236 72.6332 56.273 72.895 56.4692 73.213L57.1042 74.251ZM55.6753 72.0627L54.9188 76.4112L55.4885 76.299L55.6847 74.9898L57.3564 74.6624L58.0568 75.794L58.6546 75.6724L56.2543 71.9505L55.6753 72.0627ZM61.1822 73.7382L60.6966 73.8224C60.7339 74.0749 60.7153 74.2713 60.6405 74.4396C60.5471 74.5986 60.4164 74.7108 60.2296 74.7669C60.0055 74.8417 59.7813 74.8137 59.5852 74.6921C59.3797 74.5705 59.221 74.318 59.0996 73.9346C58.9781 73.5512 58.9688 73.2613 59.0622 73.0369C59.1462 72.8124 59.3144 72.6628 59.5572 72.5786C59.7159 72.5225 59.8654 72.5319 60.0055 72.588C60.1456 72.6535 60.2763 72.7657 60.379 72.9434L60.818 72.7189C60.6686 72.4477 60.4724 72.27 60.2296 72.1765C59.9868 72.083 59.7066 72.083 59.4077 72.1859C59.1649 72.27 58.9595 72.401 58.7914 72.5786C58.6232 72.7657 58.5298 72.9901 58.5018 73.252C58.4738 73.5138 58.5112 73.8037 58.6046 74.103C58.754 74.5799 58.9875 74.9072 59.305 75.0849C59.6226 75.2626 59.9681 75.2906 60.351 75.1597C60.6499 75.0568 60.8834 74.8791 61.0328 74.6266C61.1822 74.3741 61.2383 74.0749 61.1822 73.7382Z" fill="#2E3192"/>
<path fill-rule="evenodd" clip-rule="evenodd" d="M50.9061 0C50.9714 0.130922 51.0275 0.252494 51.0462 0.355362C51.0742 0.467581 51.0929 0.682667 51.1209 1.00997L51.2329 2.6278C51.3637 2.46882 51.5505 2.22568 51.8026 1.88902C51.9241 1.72069 52.0735 1.49625 52.2509 1.21571C52.2774 1.16985 52.3021 1.12773 52.3246 1.08935C52.3891 0.979015 52.4356 0.899562 52.4564 0.850995C52.4657 0.813588 52.4751 0.776181 52.4751 0.748127C52.4751 0.720072 52.4657 0.70137 52.4471 0.682667C52.4377 0.673316 52.391 0.64526 52.335 0.626557C52.279 0.607854 52.2229 0.561095 52.1856 0.514337C52.1389 0.458228 52.1202 0.392766 52.1202 0.317953C52.1202 0.233789 52.1482 0.158977 52.2042 0.102868C52.2603 0.0467585 52.3163 0.0280565 52.391 0.0280565C52.4844 0.0280565 52.5685 0.0748132 52.6339 0.149626C52.6992 0.23379 52.7272 0.336658 52.7272 0.476931C52.7272 0.654611 52.6619 0.841642 52.5405 1.06608C52.4284 1.28117 52.1949 1.62718 51.8587 2.07605C51.5225 2.53428 51.1209 3.02056 50.6446 3.56295C50.3177 3.93702 50.0842 4.16145 49.9254 4.25497C49.7667 4.34849 49.6359 4.39524 49.5238 4.39524C49.4585 4.39524 49.4024 4.36719 49.3464 4.32043C49.2997 4.26432 49.281 4.20821 49.281 4.1334C49.281 4.04924 49.3184 3.97442 49.3931 3.90896C49.4585 3.83415 49.5425 3.8061 49.6172 3.8061C49.6639 3.8061 49.692 3.81545 49.72 3.83415C49.7386 3.8435 49.7573 3.88091 49.776 3.92766C49.7869 3.96054 49.7979 3.98378 49.807 4.00303C49.8134 4.01665 49.8188 4.02827 49.8227 4.03988C49.8274 4.04456 49.8344 4.0469 49.8414 4.04924C49.8484 4.05157 49.8554 4.05391 49.8601 4.05859C49.8694 4.05859 49.8974 4.04924 49.9254 4.03053C50.0468 3.95572 50.1869 3.8435 50.3457 3.68452C50.5512 3.46944 50.7006 3.29176 50.8033 3.15148L50.6632 1.07543C50.6352 0.738775 50.5979 0.53304 50.5325 0.458227C50.4765 0.383414 50.3737 0.336658 50.243 0.336658C50.1963 0.336658 50.1216 0.336659 50.0001 0.355362L49.9721 0.23379L50.9061 0ZM47.7735 0.525446C47.9229 0.385172 48.0723 0.301008 48.2218 0.291657C48.3525 0.272953 48.4553 0.31036 48.5486 0.394525C48.6234 0.469337 48.6701 0.60026 48.6887 0.77794C48.7448 1.25487 48.5953 1.74115 48.2685 2.23678C47.9976 2.6015 47.7268 2.80723 47.4653 2.82594C47.3625 2.83529 47.2598 2.80723 47.1758 2.72307C47.0917 2.64826 47.0357 2.53604 47.0263 2.38641C46.9983 2.09651 47.0637 1.76921 47.2131 1.39514C47.3626 1.01173 47.5493 0.731181 47.7735 0.525446ZM48.9502 2.29289L49.3705 0.0204613L48.8849 0.132679L48.8102 0.478688C48.7541 0.338415 48.6701 0.235546 48.5767 0.179437C48.4833 0.123327 48.3619 0.104626 48.2218 0.113977C47.9883 0.142032 47.7455 0.2449 47.5026 0.450635C47.1851 0.703127 46.9329 1.03043 46.7462 1.43255C46.5594 1.82532 46.4846 2.19003 46.5127 2.53604C46.5313 2.76983 46.6061 2.94751 46.7368 3.05973C46.8676 3.1813 47.0263 3.2374 47.1944 3.2187C47.3719 3.20935 47.54 3.13454 47.7174 3.01297C47.9603 2.84464 48.2218 2.55474 48.4926 2.16197L48.4459 2.41447C48.4086 2.59215 48.3992 2.73242 48.4086 2.83529C48.4179 2.9288 48.4459 2.99426 48.4926 3.04102C48.53 3.07843 48.5953 3.09713 48.6701 3.08778C48.7821 3.07843 48.8942 3.01297 49.025 2.8914C49.1464 2.77918 49.2584 2.61085 49.3612 2.37706L49.2398 2.30225C49.1557 2.50798 49.0903 2.64825 49.0436 2.70436C49.0156 2.74177 48.9876 2.76047 48.9689 2.76047C48.9502 2.76983 48.9409 2.76048 48.9222 2.74177C48.9035 2.72307 48.8849 2.70436 48.8849 2.66696C48.8849 2.65855 48.8867 2.65014 48.8888 2.64089L48.8888 2.64085C48.8914 2.62952 48.8942 2.61693 48.8942 2.6015L48.9502 2.29289ZM45.6953 0.331256L45.6579 1.35993L45.5458 1.37863C45.4898 1.08874 45.3964 0.883001 45.2656 0.770782C45.1349 0.658563 44.9855 0.611805 44.8267 0.63986C44.6959 0.658563 44.6025 0.714671 44.5372 0.798835C44.4718 0.882999 44.4438 0.976515 44.4625 1.07938C44.4718 1.14484 44.4998 1.21966 44.5372 1.27577C44.5839 1.34123 44.6586 1.41604 44.78 1.51891C45.1069 1.7901 45.3123 1.98649 45.4151 2.12676C45.5271 2.27639 45.5832 2.41666 45.6112 2.54758C45.6486 2.76267 45.5832 2.97775 45.4338 3.19284C45.275 3.39858 45.0602 3.52015 44.78 3.5669C44.6212 3.59496 44.4438 3.58561 44.2383 3.5482C44.1729 3.5295 44.1076 3.5295 44.0702 3.53885C43.9768 3.55755 43.9208 3.61366 43.8834 3.71653L43.7713 3.73523L43.7994 2.65045L43.9114 2.63175C43.9768 2.95905 44.0795 3.18349 44.2196 3.30506C44.3597 3.42663 44.5372 3.46404 44.7426 3.43598C44.9014 3.40793 45.0228 3.34247 45.0975 3.2396C45.1816 3.12738 45.2096 3.01516 45.1909 2.87489C45.1816 2.79072 45.1442 2.71591 45.0975 2.6411C45.0228 2.52888 44.8734 2.36055 44.6492 2.16417C44.4251 1.96778 44.2757 1.81816 44.201 1.70594C44.1356 1.60307 44.0889 1.49085 44.0702 1.37863C44.0328 1.16355 44.0795 0.985867 44.2103 0.808187C44.341 0.630507 44.5185 0.536993 44.752 0.499586L44.7965 0.493814C44.8501 0.486737 44.8944 0.480882 44.9388 0.480882C44.9547 0.480882 44.9857 0.486932 45.0302 0.495592C45.0639 0.502157 45.1052 0.510223 45.1536 0.518288C45.2656 0.546343 45.3404 0.555696 45.3777 0.546344C45.4711 0.527641 45.5365 0.46218 45.5832 0.359313L45.6953 0.331256ZM40.2726 2.88814C40.1045 3.02841 39.871 3.16869 39.5815 3.29961C39.5628 2.82268 39.6375 2.43926 39.7963 2.13066C39.9644 1.83141 40.1512 1.64438 40.366 1.57892C40.4687 1.55086 40.5528 1.55086 40.6275 1.58827C40.7022 1.62567 40.7489 1.68178 40.7769 1.7753C40.8236 1.92492 40.8049 2.0839 40.7209 2.28964C40.6461 2.49537 40.4967 2.69176 40.2726 2.88814ZM39.6655 3.72978C39.6468 3.66432 39.6282 3.5708 39.6095 3.46794C40.0111 3.29026 40.3099 3.12193 40.5154 2.9536C40.8329 2.71981 41.0384 2.46732 41.1598 2.20547C41.2532 2.00909 41.2719 1.82206 41.2158 1.64438C41.1785 1.52281 41.0944 1.42929 40.9637 1.37318C40.8329 1.31707 40.6555 1.32643 40.4407 1.39189C40.1512 1.4854 39.8803 1.66308 39.6562 1.93428C39.4227 2.19612 39.2733 2.52343 39.1799 2.90684C39.0958 3.29961 39.0958 3.64562 39.1892 3.95422C39.2639 4.18801 39.404 4.37504 39.6095 4.52467C39.8149 4.67429 40.0671 4.70235 40.366 4.60883C40.8049 4.46856 41.1878 4.08514 41.524 3.43988L41.4307 3.36507C41.2158 3.65497 41.0571 3.8607 40.9357 3.96357C40.8143 4.06644 40.6835 4.14125 40.5341 4.18801C40.3566 4.24412 40.1698 4.22542 40.0017 4.14125C39.8336 4.04774 39.7215 3.91681 39.6655 3.72978ZM38.5514 4.34095C38.4394 4.66825 38.2993 4.9488 38.1312 5.14518C37.9631 5.35092 37.7669 5.49119 37.5334 5.58471C37.2533 5.69693 37.0011 5.69693 36.7863 5.59406C36.5622 5.49119 36.4034 5.30416 36.3007 5.02361C36.1792 4.70566 36.1512 4.369 36.2073 4.00429C36.2633 3.63958 36.394 3.30292 36.6089 3.00367C36.8237 2.70442 37.0758 2.49869 37.3467 2.38647C37.5615 2.3023 37.7389 2.2836 37.8883 2.33036C38.0284 2.38647 38.1218 2.47998 38.1779 2.6109C38.2246 2.73247 38.2246 2.85405 38.1872 2.97562C38.1498 3.06913 38.1031 3.13459 38.0191 3.16265C37.9537 3.1907 37.907 3.1907 37.8416 3.16265C37.7856 3.14395 37.7483 3.09719 37.7202 3.03172C37.7016 2.99432 37.7016 2.95691 37.7016 2.91951C37.7016 2.8821 37.7202 2.82599 37.7483 2.76053C37.7763 2.70442 37.795 2.64831 37.795 2.62961C37.795 2.6109 37.7949 2.58285 37.7856 2.56415C37.7669 2.51739 37.7389 2.48933 37.6922 2.47998C37.6175 2.46128 37.5241 2.47063 37.4214 2.51739C37.2253 2.5922 37.0571 2.74183 36.917 2.95691C36.777 3.172 36.6929 3.43384 36.6462 3.74245C36.5995 4.11651 36.6369 4.46252 36.7583 4.78047C36.833 4.98621 36.9637 5.13583 37.1225 5.21065C37.2813 5.28546 37.4681 5.28546 37.6642 5.21065C37.8136 5.15454 37.9537 5.05167 38.0751 4.91139C38.1965 4.78047 38.318 4.56539 38.4207 4.28484L38.5514 4.34095ZM33.6845 5.63786L33.4136 4.1229L32.5077 4.79621L32.5918 4.88973L32.6852 4.81491C32.7066 4.80063 32.7252 4.78771 32.7412 4.77667L32.7412 4.77666L32.7412 4.77664C32.767 4.75879 32.7857 4.74588 32.7972 4.7401C32.8439 4.71205 32.9 4.71205 32.9467 4.7214C32.9934 4.7401 33.0307 4.76816 33.0494 4.81491C33.0681 4.86167 33.1054 5.00195 33.1428 5.25444L33.5164 7.3679L33.946 7.15281L33.8432 6.60107C33.8152 6.37663 33.8059 6.15219 33.8246 5.9371C33.8619 5.53499 33.9086 5.18898 33.974 4.89908C34.0487 4.60918 34.1328 4.38474 34.2448 4.22577C34.3009 4.13225 34.3662 4.07614 34.4223 4.04809C34.4596 4.03873 34.5063 4.02938 34.5437 4.03873C34.5717 4.04809 34.6091 4.06679 34.6277 4.11355C34.6744 4.19771 34.7025 4.32863 34.7211 4.49696L34.9079 5.87164C34.9453 6.14284 34.9826 6.32052 35.0293 6.41403C35.0667 6.4795 35.1134 6.53561 35.1788 6.55431C35.2348 6.58236 35.2908 6.58236 35.3655 6.54496C35.4496 6.4982 35.5243 6.41404 35.599 6.29247C35.7018 6.10543 35.7765 5.84359 35.8232 5.50693L35.7018 5.48823C35.6831 5.71267 35.6364 5.89035 35.5897 6.01192L35.5819 6.02801C35.5678 6.05728 35.5575 6.07877 35.5337 6.08673C35.515 6.09608 35.4963 6.09608 35.4776 6.08673C35.4496 6.07738 35.4309 6.05867 35.4216 6.03062C35.4029 5.99321 35.3842 5.8997 35.3655 5.73137L35.1694 4.30058C35.1321 4.07614 35.0947 3.89846 35.0387 3.78624C34.9826 3.67402 34.9079 3.59921 34.8052 3.5618C34.7024 3.5244 34.5997 3.53375 34.497 3.58051C34.3102 3.67402 34.1608 3.8517 34.0394 4.13225C33.9179 4.40345 33.8059 4.90843 33.6845 5.63786ZM30.8649 5.73918C30.7342 5.814 30.6408 5.95427 30.5568 6.15066C30.4447 6.4312 30.398 6.76786 30.426 7.17933C30.454 7.58145 30.5381 7.90875 30.6782 8.15189C30.7529 8.28282 30.8463 8.35763 30.9583 8.38568C31.0704 8.42309 31.1731 8.40439 31.2665 8.34828C31.4907 8.208 31.6495 7.90875 31.7335 7.45988C31.8176 6.87073 31.7335 6.36574 31.4813 5.96362C31.388 5.80465 31.2852 5.71113 31.1825 5.68308C31.0798 5.64567 30.977 5.66437 30.8649 5.73918ZM31.7895 4.98171L32.3873 7.20738L32.4713 7.50664C32.4754 7.51894 32.4777 7.52944 32.4798 7.53893C32.4825 7.55109 32.4848 7.56159 32.49 7.5721C32.5087 7.60015 32.5274 7.61885 32.5554 7.62821C32.5741 7.63756 32.5927 7.63756 32.6114 7.62821C32.6281 7.61983 32.6374 7.59648 32.6525 7.55813L32.6525 7.55811L32.6525 7.5581L32.6525 7.55808L32.6525 7.55806L32.6581 7.54404C32.6768 7.46923 32.6768 7.3196 32.6581 7.09516L32.7982 7.10452C32.8075 7.35701 32.7795 7.56274 32.7235 7.71237C32.6581 7.8807 32.5834 7.98356 32.49 8.03967C32.4246 8.07708 32.3592 8.09578 32.3032 8.07708C32.2378 8.05838 32.1911 8.01162 32.1444 7.93681C32.0884 7.84329 32.0417 7.72172 31.995 7.54404L31.9296 7.29155C31.8549 7.76848 31.7429 8.14254 31.5934 8.40439C31.4907 8.59142 31.3599 8.73169 31.2105 8.82521C31.0611 8.91872 30.9023 8.93743 30.7342 8.89067C30.5661 8.84391 30.4167 8.72234 30.3046 8.52596C30.1271 8.23606 30.0431 7.86199 30.0337 7.43182C30.0337 6.98295 30.1178 6.58083 30.2952 6.20676C30.426 5.91686 30.5941 5.71113 30.7996 5.58956C30.921 5.51475 31.0424 5.47734 31.1451 5.48669C31.2572 5.49605 31.3693 5.55215 31.4907 5.65502L31.4066 5.30901L31.7895 4.98171ZM26.5421 10.3536L25.9911 8.92282L25.2346 9.78316L25.328 9.86733C25.4121 9.77381 25.4681 9.7177 25.4868 9.699C25.5428 9.66159 25.5989 9.64289 25.6549 9.65224C25.7109 9.65224 25.7576 9.68029 25.7857 9.7177C25.795 9.72705 25.8137 9.76446 25.823 9.80187L25.9258 10.0731L26.7103 12.1304L27.0838 11.8405C26.8597 11.1953 26.7383 10.8118 26.7103 10.6809C26.6542 10.4097 26.6169 10.1011 26.6169 9.74576C26.6075 9.4091 26.6355 9.14726 26.6916 9.00698C26.7196 8.91347 26.7663 8.848 26.8223 8.80125C26.8503 8.77319 26.8784 8.76384 26.9157 8.77319C26.9531 8.78254 26.9904 8.8106 27.0278 8.85736C27.0745 8.91347 27.1305 9.04439 27.2052 9.25947L27.915 11.1953L28.2979 10.896C28.1205 10.3817 27.9991 9.94214 27.9524 9.56808C27.8777 8.99763 27.887 8.502 27.9711 8.09053C27.9991 7.95025 28.0551 7.84739 28.1298 7.79128C28.1579 7.77257 28.1952 7.76322 28.2326 7.77257C28.2606 7.77257 28.3073 7.80063 28.3353 7.84738C28.3633 7.87544 28.3913 7.91285 28.4007 7.95025C28.4154 7.965 28.4476 8.0554 28.5018 8.20766L28.5018 8.20769C28.5163 8.24845 28.5324 8.29365 28.5501 8.34302L28.905 9.3904C29.0077 9.70835 29.1011 9.90473 29.1572 9.9889C29.2039 10.045 29.2599 10.0824 29.3253 10.0918C29.4 10.1011 29.4654 10.0918 29.5214 10.045C29.5868 9.9889 29.6428 9.92344 29.6802 9.82057C29.7269 9.72705 29.7549 9.57743 29.7642 9.37169L29.7671 9.31421C29.7753 9.15386 29.7819 9.02427 29.7736 8.93217L29.6522 8.94152C29.6708 9.1192 29.6708 9.28753 29.6335 9.4278L29.6295 9.44183C29.6134 9.49863 29.6041 9.53136 29.5868 9.54002C29.5774 9.54937 29.5588 9.54937 29.5401 9.54937L29.5306 9.54486C29.5128 9.53659 29.4904 9.52623 29.4747 9.50261C29.456 9.47456 29.4 9.32494 29.3066 9.05374L28.877 7.80063C28.8303 7.66035 28.7649 7.54813 28.6902 7.44527C28.5875 7.3237 28.4941 7.24888 28.4007 7.23018C28.3073 7.21148 28.2139 7.23018 28.1298 7.29564C27.9897 7.40786 27.887 7.56684 27.831 7.80063C27.7282 8.2121 27.7282 8.80125 27.831 9.55873L27.5415 8.75449C27.4761 8.57681 27.42 8.45524 27.3547 8.37107C27.2893 8.27756 27.2052 8.2308 27.1025 8.2121C26.9998 8.19339 26.9064 8.22145 26.8223 8.28691C26.7196 8.36172 26.6449 8.46459 26.5982 8.59551C26.5141 8.8106 26.4674 9.09114 26.4674 9.43715C26.4674 9.65224 26.4861 9.96084 26.5421 10.3536ZM23.0744 11.8007L23.7562 10.9123L24.5033 12.3899C24.3352 11.6417 24.2792 11.0806 24.3259 10.6692C24.3539 10.4354 24.4099 10.2858 24.4847 10.2109C24.5407 10.1642 24.5874 10.1361 24.6528 10.1455C24.7088 10.1455 24.7648 10.1829 24.8209 10.239C24.9236 10.3512 24.9797 10.4728 25.017 10.6224C25.0544 10.7253 25.0263 10.8188 24.961 10.8843C24.9236 10.9217 24.8863 10.9404 24.8302 10.9404C24.7835 10.9404 24.7368 10.9123 24.6808 10.8749C24.6528 10.8469 24.6248 10.8375 24.6061 10.8375C24.5781 10.8375 24.5594 10.8469 24.5407 10.8562C24.5127 10.8843 24.494 10.9123 24.4847 10.9497C24.4566 11.0058 24.4566 11.1274 24.466 11.3144C24.4847 11.595 24.5314 11.9223 24.6061 12.3244C24.6434 12.4834 24.6901 12.6611 24.7648 12.8387C24.7966 12.9139 24.8239 12.9801 24.8472 13.0368C24.8995 13.1636 24.9323 13.2431 24.9516 13.2689L25.1571 13.643L24.8022 13.9796L23.8496 12.0906C23.7375 11.8755 23.6535 11.7259 23.5787 11.6511C23.5507 11.623 23.5227 11.6043 23.476 11.6043C23.42 11.6137 23.3733 11.6417 23.3266 11.6791C23.2986 11.7072 23.2425 11.7633 23.1772 11.8568L23.0744 11.8007ZM22.0938 13.0797C22.2339 13.0797 22.3833 13.1545 22.5328 13.2854C22.8783 13.6034 23.1305 14.0148 23.2986 14.5292C23.4667 15.0342 23.4387 15.3989 23.2425 15.6233C23.1398 15.7449 23.0091 15.801 22.8596 15.801C22.7102 15.801 22.5514 15.7355 22.402 15.5953C22.0658 15.2866 21.8136 14.8845 21.6549 14.3702C21.4867 13.8652 21.5148 13.4911 21.7202 13.2574C21.823 13.1358 21.9537 13.0797 22.0938 13.0797ZM23.5974 13.8839C23.476 13.5473 23.2892 13.2574 23.0558 13.0423C22.8223 12.8365 22.5888 12.743 22.3273 12.7524C22.0658 12.7711 21.8416 12.8739 21.6549 13.089C21.4681 13.2948 21.3467 13.5753 21.2813 13.9307C21.2159 14.2767 21.2439 14.632 21.356 14.9874C21.4774 15.3334 21.6549 15.6233 21.8883 15.8384C22.1125 16.0441 22.3553 16.1376 22.6168 16.1283C22.8876 16.1189 23.1118 15.9974 23.3079 15.7823C23.504 15.5672 23.6255 15.2866 23.6908 14.9313C23.7469 14.5759 23.7188 14.2299 23.5974 13.8839ZM20.2265 14.799L20.3572 14.9767L20.0771 15.3601L20.983 16.5477C21.3752 17.0621 21.6648 17.4923 21.8329 17.8289C22.085 18.3058 22.2064 18.6986 22.1971 19.0166C22.1878 19.2691 22.1224 19.4654 22.0103 19.6244C21.9356 19.7273 21.8329 19.7927 21.7208 19.8208C21.6367 19.8395 21.5714 19.8302 21.4966 19.774C21.4406 19.7273 21.4032 19.6712 21.3939 19.5964C21.3939 19.5216 21.4126 19.4467 21.4593 19.3906C21.4966 19.3439 21.534 19.3158 21.59 19.3065C21.6461 19.2971 21.6928 19.3065 21.7301 19.3345C21.7768 19.3626 21.7955 19.4093 21.7955 19.4654C21.7975 19.4757 21.7991 19.485 21.8006 19.4935C21.8057 19.5236 21.8089 19.5423 21.8235 19.5496L21.8327 19.5545C21.8458 19.5617 21.8548 19.5667 21.8702 19.559C21.8889 19.5496 21.9169 19.5309 21.9449 19.4935C22.001 19.4187 22.0383 19.3252 22.0477 19.2036C22.057 19.0914 22.0477 18.9605 22.001 18.8295C21.9543 18.6986 21.8702 18.5396 21.7301 18.3526C21.6741 18.2684 21.4873 18.0159 21.1698 17.6045L19.7875 15.7622L19.414 16.2672L19.2739 16.0989C19.3953 15.9399 19.4607 15.8183 19.4887 15.7435C19.5167 15.6687 19.5167 15.5752 19.5074 15.4817C19.4887 15.3882 19.4326 15.2479 19.3392 15.0515C19.2085 14.7896 19.1151 14.5746 19.0684 14.4062C19.0124 14.1631 18.9844 13.948 19.0124 13.7516C19.031 13.5552 19.0871 13.4056 19.1805 13.284C19.2739 13.1531 19.3766 13.0783 19.5074 13.0596C19.6381 13.0316 19.7315 13.0503 19.8062 13.1064C19.8716 13.1531 19.8996 13.2092 19.9183 13.284C19.9276 13.3589 19.9183 13.4243 19.8716 13.4898C19.8342 13.5459 19.7875 13.5739 19.7222 13.5833C19.6661 13.5926 19.6194 13.5739 19.5727 13.5459C19.5447 13.5272 19.5167 13.4898 19.498 13.4337C19.47 13.3776 19.4513 13.3495 19.4326 13.3402C19.414 13.3215 19.3859 13.3121 19.3673 13.3215C19.3392 13.3308 19.3019 13.3495 19.2739 13.3869C19.1992 13.4898 19.1711 13.602 19.1805 13.7423C19.1992 13.92 19.2739 14.1257 19.414 14.3688C19.4887 14.4904 19.6661 14.7616 19.965 15.1824L20.2265 14.799ZM18.2246 17.4482L17.739 18.4675L17.8511 18.505C17.8977 18.4021 17.9444 18.3273 17.9631 18.2992C18.0005 18.2431 18.0378 18.2057 18.0939 18.187C18.1406 18.1776 18.1779 18.187 18.2059 18.2057C18.29 18.2712 18.4114 18.3927 18.5608 18.5798L19.887 20.2069L20.1672 19.8048L19.887 19.4775C19.8614 19.4519 19.8138 19.3822 19.7382 19.2715L19.7382 19.2715L19.7382 19.2715L19.7381 19.2714C19.7035 19.2208 19.6631 19.1616 19.6162 19.0941C19.5135 18.9351 19.4201 18.7761 19.3547 18.6265C19.1959 18.2618 19.0838 17.9439 19.0091 17.6727C18.9624 17.495 18.9438 17.3828 18.9531 17.3173C18.9531 17.2799 18.9718 17.2425 18.9905 17.2144C18.9998 17.1957 19.0185 17.1864 19.0465 17.177C19.0652 17.177 19.1025 17.1864 19.1305 17.2051C19.1866 17.2331 19.2426 17.2518 19.2893 17.2425C19.336 17.2238 19.3734 17.2051 19.4014 17.1583C19.4481 17.0835 19.4574 16.99 19.4014 16.8965C19.336 16.7656 19.252 16.6533 19.1305 16.5692C19.0652 16.5224 19.0091 16.5037 18.9531 16.5131C18.8877 16.5224 18.841 16.5598 18.8037 16.6159C18.7383 16.7094 18.7196 16.8591 18.7383 17.0929C18.7756 17.5043 18.9438 18.0467 19.2613 18.7387L18.2246 17.4482ZM17.5082 21.554C17.639 21.2547 17.723 20.9929 17.751 20.7778C17.7884 20.4786 17.7697 20.2261 17.695 20.0297C17.6203 19.8239 17.5269 19.6837 17.3961 19.6089C17.3121 19.5621 17.2374 19.5434 17.1627 19.5715C17.0786 19.5902 17.0132 19.6556 16.9572 19.7398C16.8451 19.9362 16.8264 20.198 16.8918 20.5347C16.9759 20.8807 17.172 21.2173 17.5082 21.554ZM17.6296 21.6662C17.7137 21.7317 17.7884 21.7878 17.8444 21.8252C18.0125 21.9281 18.1806 21.9561 18.3674 21.9093C18.5542 21.8626 18.6943 21.7504 18.797 21.582C18.8811 21.4418 18.9278 21.3015 18.9465 21.1425C18.9652 20.9835 18.9558 20.7217 18.9185 20.357L19.0305 20.3476C19.208 21.0584 19.18 21.6007 18.9371 22.0029C18.7784 22.2741 18.5729 22.4237 18.3207 22.4611C18.0686 22.4891 17.8444 22.4517 17.639 22.3208C17.3681 22.1525 17.1346 21.9 16.9479 21.554C16.7611 21.208 16.6583 20.862 16.6583 20.5066C16.649 20.1513 16.733 19.8427 16.8918 19.5715C17.0132 19.3751 17.1346 19.2535 17.2654 19.2067C17.4055 19.16 17.5269 19.1693 17.6296 19.2348C17.7791 19.3283 17.8911 19.4779 17.9658 19.693C18.0499 19.9642 18.0592 20.3009 17.9845 20.6843C17.9285 20.9274 17.8164 21.2547 17.6296 21.6662ZM15.1175 24.2511C15.267 24.0641 15.379 23.8958 15.4444 23.7649C15.5378 23.5591 15.5845 23.344 15.5752 23.1289C15.5658 22.9139 15.4911 22.7175 15.3697 22.5304C15.2389 22.3528 15.0802 22.2125 14.8934 22.1283C14.6973 22.0348 14.5105 22.0255 14.3424 22.0909C14.1743 22.1564 14.0342 22.306 13.9221 22.5491C13.8661 22.6801 13.81 22.8484 13.754 23.0448L15.1175 24.2511ZM13.0068 23.9238L13.726 22.3528C13.9128 21.9413 14.1462 21.6795 14.4077 21.5579C14.6786 21.4363 14.9401 21.4363 15.1922 21.5579C15.3884 21.6514 15.5565 21.8104 15.6872 22.0255C15.8086 22.2499 15.8834 22.5117 15.874 22.8203C15.874 23.1383 15.8086 23.4375 15.6779 23.7368C15.5938 23.9145 15.4537 24.1389 15.2576 24.3914L16.2476 25.2611C16.4531 25.4481 16.5931 25.5604 16.6679 25.5884C16.7239 25.6165 16.7893 25.6165 16.8453 25.5791C16.9107 25.5417 16.9854 25.4294 17.0881 25.2331L17.1815 25.3172L16.4624 26.8789L16.369 26.7948C16.4624 26.589 16.4998 26.4207 16.4624 26.3085C16.425 26.1869 16.2663 26.0092 15.9954 25.7661L14.0622 24.0454C13.8287 23.8397 13.6606 23.7181 13.5672 23.6713C13.5018 23.6433 13.4271 23.6433 13.3617 23.6713C13.287 23.6994 13.203 23.821 13.1096 23.9986L13.0068 23.9238ZM55.1324 1.22687L55.4126 0.235602L55.2912 0.244954C55.2258 0.33847 55.1418 0.385227 55.0484 0.375876C55.0203 0.375876 54.9456 0.347821 54.8429 0.291712C54.7789 0.265001 54.7301 0.241342 54.6948 0.224222L54.6947 0.224196L54.6947 0.224165L54.6946 0.224142L54.6946 0.224102L54.6945 0.224092L54.6945 0.224063L54.6943 0.223993C54.6681 0.211263 54.6494 0.202182 54.6374 0.198196C54.5814 0.188845 54.5254 0.179494 54.4506 0.170143C54.2172 0.151439 54.0117 0.207548 53.8529 0.33847C53.6848 0.469392 53.6008 0.63772 53.5821 0.852807C53.5727 0.965026 53.5914 1.07725 53.6288 1.19882C53.6755 1.32039 53.7875 1.50742 53.9557 1.75056C54.1238 1.9937 54.2358 2.19008 54.2825 2.32101C54.3012 2.39582 54.3199 2.47998 54.3106 2.56415C54.3012 2.69507 54.2452 2.80729 54.1424 2.89145C54.049 2.97561 53.909 3.01302 53.7502 2.99432C53.5447 2.97562 53.3766 2.89145 53.2739 2.74183C53.1618 2.5922 53.1151 2.34906 53.1338 2.0124L53.0124 2.00305L52.7229 3.05043L52.8443 3.07848C52.9003 2.98497 52.975 2.93821 53.0684 2.94756C53.1058 2.95691 53.1618 2.97562 53.2272 3.00367C53.4233 3.08783 53.5914 3.14394 53.7502 3.1533C54.0304 3.18135 54.2639 3.11589 54.4693 2.95691C54.6654 2.78858 54.7775 2.60155 54.7962 2.37711C54.8055 2.23684 54.7869 2.08721 54.7121 1.91889C54.6468 1.75991 54.488 1.50742 54.2358 1.17076C54.1424 1.04919 54.0864 0.946321 54.0584 0.88086C54.0304 0.815399 54.021 0.740588 54.0304 0.675127C54.0397 0.562908 54.0864 0.478742 54.1705 0.413281C54.2545 0.34782 54.3573 0.319766 54.488 0.329118C54.6468 0.338469 54.7775 0.422634 54.8802 0.562907C54.983 0.703181 55.0203 0.918267 55.011 1.21752L55.1324 1.22687ZM59.2434 0.884067L58.4962 2.22134C58.7577 1.93145 58.9819 1.71636 59.15 1.58544C59.4208 1.37035 59.6637 1.23008 59.8785 1.16461C60.0092 1.11786 60.1306 1.11786 60.2614 1.14591C60.3641 1.17397 60.4388 1.23008 60.4949 1.31424C60.5509 1.40776 60.5602 1.50127 60.5322 1.61349C60.5042 1.71636 60.4482 1.83793 60.3548 1.99691L59.9158 2.73568C60.4295 2.18394 60.8871 1.80987 61.2607 1.63219C61.4755 1.52933 61.6623 1.50127 61.8304 1.54803C61.9331 1.57608 62.0078 1.63219 62.0545 1.72571C62.1012 1.80987 62.1012 1.93145 62.0639 2.09042C62.0359 2.21199 61.9798 2.33356 61.9051 2.45513L61.214 3.58668C61.0646 3.82982 60.9805 3.97009 60.9805 3.99815C60.9712 4.0262 60.9805 4.05425 60.9899 4.08231C60.9992 4.10101 61.0085 4.11036 61.0272 4.11036C61.0459 4.11971 61.0832 4.10101 61.1393 4.07296C61.27 4.0075 61.3914 3.90463 61.5222 3.78306L61.6062 3.87657C61.5315 3.95139 61.4195 4.03555 61.2607 4.14777C61.1019 4.26934 60.9618 4.3348 60.8684 4.36286C60.7657 4.39091 60.6817 4.40026 60.6069 4.38156C60.5416 4.36286 60.4855 4.32545 60.4482 4.25999C60.4108 4.20388 60.4015 4.12907 60.4202 4.06361C60.4482 3.97009 60.5509 3.77371 60.719 3.48381L61.298 2.5393L61.3151 2.51127C61.4353 2.31363 61.5035 2.2014 61.5035 2.17459C61.5222 2.13718 61.5315 2.09977 61.5409 2.06237C61.5502 2.00626 61.5502 1.9595 61.5315 1.93145C61.5129 1.89404 61.4848 1.87533 61.4568 1.86598C61.3634 1.83793 61.2514 1.86598 61.1299 1.93145C60.7564 2.11848 60.3735 2.42708 59.9905 2.8479C59.7384 3.1191 59.4675 3.49316 59.1967 3.95139L58.7297 3.82982L59.7664 2.05301C59.8785 1.85663 59.9438 1.73506 59.9625 1.66025C59.9812 1.60414 59.9719 1.55738 59.9532 1.51998C59.9345 1.49192 59.9158 1.46387 59.8785 1.45451C59.8131 1.43581 59.729 1.44516 59.6356 1.47322C59.4862 1.51998 59.2808 1.66025 59.0192 1.87534C58.7484 2.09977 58.5336 2.32421 58.3562 2.5393C58.2814 2.64217 58.0573 2.97882 57.7117 3.56797L57.2541 3.45575L58.3375 1.53868L58.4776 1.28619C58.4826 1.27616 58.4876 1.26681 58.4922 1.25813C58.5049 1.23442 58.5149 1.21571 58.5149 1.20202C58.5243 1.15526 58.5149 1.10851 58.4776 1.06175C58.4495 1.01499 58.4028 0.977584 58.3375 0.958881C58.3191 0.952753 58.2807 0.95064 58.2196 0.94728C58.1875 0.945512 58.1491 0.9434 58.104 0.940177V0.818607L59.2434 0.884067ZM64.9307 2.88695C64.9867 3.02723 64.9774 3.19555 64.912 3.38258C64.7532 3.84081 64.4824 4.23358 64.0808 4.57024C63.6885 4.91624 63.343 5.04717 63.0628 4.9443C62.9134 4.88819 62.8106 4.79467 62.7546 4.6544C62.6986 4.51413 62.6986 4.3458 62.764 4.14942C62.9134 3.71924 63.1842 3.32648 63.5858 2.98047C63.9781 2.62511 64.3236 2.50354 64.6225 2.6064C64.7719 2.66251 64.8746 2.75603 64.9307 2.88695ZM64.7719 4.61699C65.0334 4.37385 65.2202 4.0933 65.3229 3.7847C65.4257 3.48545 65.4163 3.23296 65.3043 2.99917C65.1922 2.76538 65.0054 2.59705 64.7439 2.50354C64.4731 2.41002 64.1742 2.41002 63.8286 2.48483C63.4831 2.569 63.1749 2.72797 62.8947 2.97112C62.6239 3.21426 62.4371 3.48545 62.3343 3.79405C62.2316 4.0746 62.2409 4.3458 62.353 4.57959C62.4651 4.82273 62.6612 4.99106 62.9321 5.08457C63.2029 5.18744 63.5111 5.18744 63.8567 5.11263C64.2022 5.02846 64.5104 4.86949 64.7719 4.61699ZM66.5062 3.39766L67.5802 3.70626L66.5062 4.95937C67.1226 4.5292 67.6176 4.25801 68.0099 4.14579C68.234 4.08968 68.3834 4.08033 68.4862 4.12708C68.5515 4.15514 68.5889 4.2019 68.6169 4.25801C68.6356 4.31412 68.6263 4.37022 68.5982 4.44504C68.5329 4.57596 68.4488 4.68818 68.3274 4.77234C68.2433 4.84716 68.15 4.85651 68.0752 4.80975C68.0285 4.79105 68.0005 4.76299 67.9725 4.70688C67.9538 4.66013 67.9632 4.60401 67.9818 4.53855C68.0005 4.50115 68.0005 4.47309 67.9912 4.45439C67.9818 4.42633 67.9632 4.41698 67.9445 4.40763C67.9071 4.38893 67.8791 4.37958 67.8418 4.38893C67.7786 4.38893 67.6806 4.43257 67.5224 4.503L67.5055 4.5105C67.2534 4.63207 66.9732 4.8004 66.637 5.01548C66.4969 5.109 66.3568 5.22122 66.226 5.36149L66.2258 5.36169L66.2258 5.36177C66.0391 5.54864 65.9272 5.66076 65.9085 5.69815L65.6377 6.03481L65.1894 5.82907L66.5623 4.2206C66.721 4.03357 66.8144 3.8933 66.8611 3.80913C66.8798 3.77172 66.8798 3.73432 66.8611 3.69691C66.8331 3.65015 66.7957 3.61275 66.7304 3.58469C66.693 3.56599 66.6183 3.53793 66.5156 3.50988L66.5062 3.39766ZM69.3806 6.17047C69.1564 6.14241 68.9042 6.0676 68.6054 5.94603C68.9323 5.60002 69.2591 5.37558 69.586 5.30077C69.9129 5.21661 70.1744 5.22596 70.3705 5.33818C70.4639 5.38493 70.5293 5.4504 70.548 5.53456C70.576 5.60937 70.5667 5.68419 70.52 5.76835C70.4452 5.89927 70.3145 6.00214 70.1184 6.0863C69.9222 6.17047 69.6701 6.19852 69.3806 6.17047ZM68.39 6.23414L68.39 6.23408L68.3901 6.23401C68.4206 6.18486 68.4571 6.12623 68.5027 6.0676C68.9136 6.24528 69.2405 6.34815 69.4926 6.38555C69.8755 6.45101 70.1931 6.43231 70.4639 6.33879C70.6694 6.26398 70.8188 6.14241 70.9029 5.98343C70.9682 5.87122 70.9776 5.74965 70.9215 5.60937C70.8655 5.4691 70.7441 5.34753 70.548 5.23531C70.2865 5.08568 69.9689 5.02022 69.6234 5.03892C69.2685 5.04828 68.9323 5.16985 68.5961 5.36623C68.2598 5.57196 68.0077 5.81511 67.8582 6.09565C67.7462 6.31074 67.7088 6.54453 67.7462 6.79702C67.7835 7.04952 67.9423 7.25525 68.2131 7.40488C68.6147 7.62931 69.1564 7.64802 69.8475 7.44228L69.8382 7.33006C69.4833 7.37682 69.2311 7.39552 69.0724 7.38617C68.9136 7.36747 68.7735 7.32071 68.6334 7.2459C68.4653 7.15238 68.3532 7.01211 68.2972 6.82508C68.2412 6.63805 68.2598 6.46036 68.3532 6.29204C68.3645 6.27505 68.3767 6.25549 68.39 6.23414ZM74.873 7.12694L74.1632 7.70674L74.5181 7.95923L74.3593 8.0995L73.9951 7.83766L72.4354 9.09077C72.2486 9.23104 72.1365 9.32456 72.0992 9.38067C72.0805 9.40873 72.0712 9.43678 72.0712 9.45548C72.0725 9.45806 72.0736 9.46064 72.0746 9.46322L72.077 9.46951C72.0823 9.48354 72.0875 9.49756 72.1085 9.51159C72.1459 9.53965 72.2113 9.549 72.3233 9.53029C72.377 9.52261 72.4938 9.48336 72.6736 9.42292L72.7996 9.38067L72.837 9.51159C72.5288 9.64252 72.2673 9.70798 72.0712 9.69862C71.9404 9.69862 71.819 9.66122 71.7256 9.59576C71.6509 9.53965 71.6042 9.48354 71.5949 9.39937C71.5855 9.31521 71.6042 9.2404 71.6509 9.16558C71.7163 9.06272 71.847 8.94114 72.0431 8.78217L73.5748 7.54776L73.1732 7.26721L73.2759 7.18305C73.5094 7.26721 73.7242 7.29527 73.9297 7.28591C74.1352 7.27656 74.406 7.20175 74.7609 7.06148L74.873 7.12694ZM74.5661 9.80817L77.2371 7.8911L76.2659 7.32065L76.1911 7.42352L76.2472 7.46093L76.2854 7.48245L76.2859 7.48273L76.2862 7.4829L76.2864 7.48306L76.2867 7.48321C76.3347 7.51005 76.3744 7.53224 76.3966 7.55444C76.4526 7.6012 76.4807 7.65731 76.49 7.71342C76.4993 7.77888 76.49 7.83499 76.4526 7.88175L76.1164 8.12489L72.9597 10.3786L73.3333 10.6872L73.903 10.2945C74.0618 10.1916 74.2299 10.1074 74.398 10.0513C74.9397 9.88299 75.2572 9.78947 75.3413 9.77077C75.6494 9.71466 75.9016 9.69595 76.0791 9.72401C76.1725 9.73336 76.2565 9.77077 76.3032 9.80817C76.3406 9.83623 76.3592 9.87363 76.3686 9.91104C76.3779 9.94845 76.3686 9.98585 76.3406 10.0139C76.2845 10.0887 76.1818 10.1729 76.0417 10.2664L74.9023 11.0239C74.6688 11.1735 74.5287 11.2857 74.4634 11.3605C74.4167 11.426 74.398 11.4821 74.398 11.5569C74.4073 11.6317 74.4353 11.6878 74.4914 11.7346C74.5381 11.7814 74.6221 11.8094 74.7155 11.8281C74.8182 11.8468 74.9583 11.8375 75.1358 11.8094C75.3132 11.7814 75.4627 11.7533 75.5841 11.7065L75.5467 11.5943C75.3599 11.6598 75.1918 11.6972 75.0517 11.6972C75.005 11.7065 74.977 11.6972 74.9583 11.6878C74.9397 11.6691 74.9303 11.6504 74.9303 11.6224C74.9303 11.6037 74.9397 11.5756 74.9583 11.5569C74.977 11.5382 75.0517 11.4821 75.1918 11.3886L76.3779 10.6031C76.546 10.4908 76.6861 10.3786 76.7702 10.2664C76.8542 10.1635 76.9009 10.0513 76.8822 9.94845C76.8822 9.84558 76.8356 9.75206 76.7515 9.6866C76.5927 9.55568 76.3499 9.49022 76.051 9.49022C75.7522 9.49957 75.2572 9.60244 74.5661 9.80817ZM78.8429 11.9209C78.7308 11.818 78.572 11.7526 78.3759 11.7338C78.077 11.6964 77.7408 11.7432 77.3673 11.8741C76.9937 12.005 76.7042 12.1734 76.508 12.3791C76.4053 12.482 76.3586 12.5942 76.3586 12.7158C76.3586 12.8373 76.396 12.9308 76.4707 13.0057C76.6575 13.1927 76.9844 13.2675 77.442 13.2395C78.0304 13.1646 78.4786 12.9589 78.8055 12.6035C78.9269 12.4726 78.9923 12.351 78.9923 12.2388C78.983 12.1173 78.9363 12.0144 78.8429 11.9209ZM79.7955 12.6316L77.8342 13.8005L77.5727 13.9595C77.5541 13.9782 77.5354 13.9876 77.5167 13.9969C77.5037 14.0165 77.4952 14.036 77.4881 14.0524C77.485 14.0596 77.4822 14.0661 77.4793 14.0717C77.4793 14.0998 77.4793 14.1091 77.498 14.1279C77.5167 14.1466 77.5354 14.1466 77.5821 14.1466C77.6568 14.1466 77.7969 14.1091 78.0117 14.0343L78.0397 14.1746C77.7969 14.2494 77.6007 14.2775 77.4326 14.2588C77.2645 14.2401 77.1431 14.1933 77.0591 14.1185C77.003 14.0624 76.975 14.0063 76.975 13.9502C76.975 13.8847 77.003 13.8192 77.0684 13.7538C77.1431 13.679 77.2459 13.5948 77.4046 13.5013L77.6288 13.3704C77.1525 13.4171 76.7696 13.4078 76.4894 13.333C76.2839 13.2769 76.1158 13.1927 75.985 13.0711C75.8636 12.9496 75.7983 12.7999 75.7983 12.6222C75.7983 12.4446 75.8823 12.2669 76.0317 12.1079C76.2652 11.8648 76.5921 11.6777 77.003 11.5562C77.4233 11.4346 77.8342 11.4159 78.2358 11.4907C78.544 11.5468 78.7868 11.659 78.955 11.818C79.0577 11.9209 79.1231 12.0237 79.1417 12.136C79.1604 12.2482 79.1417 12.3791 79.067 12.5194L79.3752 12.3511L79.7955 12.6316ZM79.6836 14.7145L81.0658 14.0786L80.2159 13.3491L80.1412 13.452L80.2346 13.5268C80.2505 13.5428 80.2654 13.5566 80.2784 13.5685L80.283 13.5727C80.3057 13.5936 80.3222 13.6088 80.328 13.6203C80.3747 13.6671 80.384 13.7139 80.384 13.77C80.3747 13.8167 80.356 13.8635 80.3187 13.8915C80.2906 13.9196 80.1505 13.985 79.9264 14.0879L78.0025 14.967L78.3107 15.341L78.815 15.1072C79.0298 15.0231 79.2446 14.9576 79.4501 14.9296C79.8423 14.8641 80.1879 14.836 80.4774 14.8267C80.7763 14.8267 81.0098 14.8547 81.1872 14.9296C81.2899 14.967 81.3647 15.0137 81.402 15.0605C81.4207 15.0885 81.4394 15.1259 81.4394 15.1727C81.43 15.2101 81.4207 15.2475 81.3833 15.2756C81.3086 15.3317 81.1966 15.3878 81.0378 15.4532L79.7676 15.9676C79.5248 16.0705 79.3567 16.1546 79.282 16.2201C79.2166 16.2668 79.1886 16.3323 79.1793 16.3978C79.1699 16.4632 79.1886 16.5193 79.2353 16.5848C79.2913 16.6596 79.3847 16.7157 79.5248 16.7531C79.7303 16.8092 79.9918 16.8186 80.328 16.7812L80.3187 16.6596C80.1039 16.697 79.9264 16.697 79.7957 16.6783C79.7583 16.669 79.7303 16.6596 79.7116 16.6409C79.7023 16.6315 79.6929 16.6035 79.7023 16.5848C79.7023 16.5567 79.7209 16.538 79.7396 16.5193C79.7676 16.5006 79.8517 16.4632 80.0105 16.3978L81.3273 15.8554C81.5328 15.7712 81.6915 15.687 81.7849 15.6029C81.8783 15.5281 81.925 15.4345 81.9437 15.3223C81.953 15.2101 81.925 15.1072 81.8503 15.0231C81.7196 14.8641 81.5048 14.7612 81.2152 14.7051C80.9257 14.649 80.412 14.6584 79.6836 14.7145ZM85.9977 18.0422L82.1405 19.2205L82.0845 19.2401L82.0844 19.2401L82.0842 19.2402L82.0842 19.2402C81.931 19.2937 81.8377 19.3263 81.8043 19.3514C81.7763 19.3701 81.7576 19.3888 81.7483 19.4168C81.7401 19.4413 81.7462 19.4586 81.754 19.4812L81.7576 19.4917C81.7763 19.5291 81.8136 19.5478 81.8697 19.5665C82.0004 19.5945 82.1779 19.6132 82.3927 19.5945L82.3647 19.7348C82.0191 19.7348 81.7576 19.688 81.5708 19.6132C81.4401 19.5478 81.3467 19.4823 81.2813 19.3888C81.2439 19.3233 81.2253 19.2579 81.2439 19.1831C81.2626 19.1082 81.3 19.0521 81.3654 19.0147C81.4307 18.968 81.5802 18.9119 81.823 18.837L84.8583 17.9112C85.1011 17.8364 85.2412 17.7897 85.2692 17.7616C85.3159 17.7336 85.3346 17.6962 85.3439 17.64C85.3533 17.5839 85.3252 17.5278 85.2785 17.453C85.257 17.417 85.2243 17.3755 85.1806 17.3198L85.1805 17.3197L85.1385 17.266L85.2412 17.2005L85.9977 18.0422ZM83.1265 20.9403L85.4333 20.3231L84.7049 19.4441L84.5928 19.5095C84.664 19.595 84.7134 19.6643 84.7454 19.7089L84.7458 19.7095C84.7555 19.7232 84.7637 19.7345 84.7703 19.7433C84.7983 19.7901 84.817 19.8368 84.8076 19.8836C84.7983 19.9304 84.7702 19.9678 84.7329 19.9958C84.6862 20.0239 84.5368 20.0706 84.3033 20.1361L82.8183 20.5102C82.6315 20.5569 82.4915 20.613 82.4261 20.6504C82.3607 20.6878 82.3233 20.7439 82.3047 20.8188C82.286 20.8936 82.2953 20.959 82.342 21.0338C82.4074 21.1461 82.5195 21.2302 82.6876 21.2957C82.9024 21.3798 83.1452 21.4173 83.4067 21.4266L83.416 21.2957C83.2012 21.2957 83.0331 21.2676 82.893 21.2209C82.8464 21.2022 82.8183 21.1835 82.7997 21.1554C82.7903 21.1367 82.781 21.118 82.7997 21.09C82.809 21.0712 82.8277 21.0432 82.8557 21.0245C82.8681 21.012 82.9138 20.9995 82.9899 20.9788C83.028 20.9684 83.0736 20.9559 83.1265 20.9403ZM86.5074 19.7714C86.5261 19.6872 86.5167 19.6124 86.47 19.5282C86.4233 19.4534 86.3579 19.4067 86.2739 19.3786C86.1898 19.3599 86.1151 19.3693 86.0311 19.416C85.9564 19.4534 85.9097 19.5282 85.8816 19.6124C85.863 19.6966 85.8723 19.7807 85.919 19.8555C85.9657 19.9304 86.0311 19.9771 86.1151 20.0052C86.1992 20.0239 86.2832 20.0145 86.3579 19.9678C86.4327 19.921 86.4794 19.8555 86.5074 19.7714ZM83.7154 22.6191C83.6313 22.8061 83.6407 23.0119 83.7341 23.2176C83.7808 23.3205 83.8648 23.414 83.9676 23.4888C84.0796 23.5636 84.2104 23.6291 84.3691 23.6758C84.5279 23.7226 84.696 23.7506 84.8828 23.76C85.0696 23.76 85.2657 23.7506 85.4992 23.7226C85.7234 23.6945 85.9288 23.6291 86.1249 23.5356C86.2837 23.4607 86.3771 23.3672 86.4331 23.255C86.4798 23.1428 86.4798 23.0306 86.4331 22.9371C86.3304 22.722 86.1156 22.5723 85.7701 22.4882C85.4338 22.3947 85.0696 22.3853 84.7054 22.4508L83.7154 22.6191ZM86.3584 22.1328L85.6019 22.2731C85.9475 22.3573 86.2183 22.4601 86.3864 22.5817C86.5639 22.6939 86.6946 22.8435 86.7787 23.0119C86.8627 23.1802 86.8721 23.3672 86.788 23.5543C86.7133 23.7506 86.5639 23.8909 86.3398 24.0031C85.9195 24.2089 85.3965 24.2556 84.7988 24.1247C84.1917 23.9938 83.7714 23.6945 83.5566 23.2363C83.5099 23.1428 83.4819 23.0493 83.4632 22.9651C83.4539 22.8716 83.4445 22.7781 83.4539 22.6565L82.604 22.8155C82.4359 22.8435 82.3238 22.8716 82.2771 22.8903C82.2398 22.909 82.2024 22.9371 82.1837 22.9838C82.1651 23.0212 82.1557 23.068 82.1651 23.1241C82.1744 23.1895 82.2117 23.2924 82.2865 23.442L82.1651 23.4607L81.5113 22.0954L81.6327 22.0767C81.7261 22.2544 81.8195 22.3573 81.9036 22.3947C81.9876 22.4321 82.1651 22.4227 82.4546 22.376L85.3498 21.8523C85.5366 21.8242 85.6393 21.7868 85.6767 21.7681C85.7327 21.7401 85.7701 21.712 85.7794 21.6652C85.7981 21.6185 85.7887 21.5717 85.7514 21.5063C85.7363 21.4761 85.7158 21.4405 85.6914 21.398C85.6704 21.3615 85.6465 21.32 85.6206 21.2725L85.7327 21.2164L86.3584 22.1328ZM87.178 26.5056L88.1679 26.3093L88.0839 26.2157C87.9718 26.197 87.8971 26.1409 87.8597 26.0568C87.8504 26.0287 87.841 25.9446 87.841 25.8323C87.841 25.7502 87.8368 25.6894 87.834 25.65C87.8327 25.631 87.8317 25.617 87.8317 25.6079C87.8224 25.5424 87.8037 25.4863 87.7757 25.4209C87.6916 25.1964 87.5422 25.0374 87.3554 24.9533C87.1686 24.8691 86.9818 24.8598 86.7857 24.9439C86.683 24.9907 86.5896 25.0562 86.5055 25.1497C86.4215 25.2432 86.3094 25.4302 86.1693 25.6921C86.0292 25.9539 85.9078 26.1409 85.8144 26.2438C85.7584 26.2999 85.693 26.356 85.6089 26.3841C85.4875 26.4308 85.3661 26.4308 85.2447 26.3747C85.1233 26.328 85.0392 26.2157 84.9739 26.0661C84.8898 25.8697 84.8898 25.6827 84.9739 25.5237C85.0579 25.3554 85.254 25.2058 85.5529 25.0655L85.5062 24.9533L84.4602 25.1684L84.5069 25.2806C84.619 25.2899 84.6843 25.3461 84.7217 25.4302C84.7404 25.4676 84.7497 25.5237 84.7497 25.5985C84.7591 25.8136 84.7964 25.9913 84.8525 26.1409C84.9645 26.4028 85.1233 26.5898 85.3568 26.702C85.5903 26.8049 85.8051 26.8142 86.0105 26.7301C86.1413 26.674 86.2627 26.5805 86.3748 26.4402C86.4868 26.3093 86.6363 26.0568 86.8231 25.6734C86.8884 25.5331 86.9538 25.4396 87.0005 25.3835C87.0472 25.3274 87.1032 25.2899 87.1686 25.2619C87.2714 25.2245 87.3647 25.2245 87.4581 25.2712C87.5609 25.318 87.6356 25.4022 87.6823 25.5237C87.7477 25.6734 87.7383 25.823 87.6543 25.982C87.5702 26.1316 87.3928 26.2719 87.1313 26.3934L87.178 26.5056Z" fill="white"/>
<path fill-rule="evenodd" clip-rule="evenodd" d="M19.3725 47.8347L17.2245 40.6059L15.0671 47.8347H19.3725ZM20.6614 52.1832H13.5261L12.5641 55.4936L7.66634 71.9999L0.333008 73.3334L13.6657 30.6686V30.6666H13.6663L13.6663 30.6666H18.9997L18.9997 30.6666H89.6657V33.3333H19.9277L20.6427 35.3877L28.333 55.9999H21.6663L20.6614 52.1832ZM38.8827 44.5447H37.3254V40.0724H39.1342C40.3143 40.0724 41.1268 40.2956 41.5524 40.7326C41.9876 41.1696 42.2004 41.6996 42.2004 42.3318C42.2004 42.9734 41.949 43.5034 41.4557 43.9218C40.9623 44.3402 40.1015 44.5447 38.8827 44.5447ZM41.4943 35.9999H30.9995L31.0092 55.9999H37.3351V48.5987H40.7979C43.3418 48.5987 45.2376 48.0222 46.4757 46.8878C47.7138 45.7442 48.3329 44.1635 48.3329 42.1459C48.3329 40.184 47.7719 38.6684 46.6305 37.5991C45.4891 36.5299 43.7771 35.9999 41.4943 35.9999ZM65.6665 35.9999H49.6665V55.9999H65.6665V51.4789H55.8304V47.5348H65.6665V43.4603H55.8304V40.2789H65.6665V35.9999ZM68.9381 35.9999H75.6275L79.107 42.158L82.4843 35.9999H89.0899L82.9867 45.6929L89.6667 55.9999H82.8378L78.9861 49.5813L75.1065 55.9999H68.3334L75.0972 45.5813L68.9381 35.9999Z" fill="#D92653"/>
</svg>
