<svg width="20" height="20" viewBox="0 0 20 20" fill="none" xmlns="http://www.w3.org/2000/svg">
<path d="M4.33705 9.43802L14.3996 1.57865C14.4258 1.55795 14.4574 1.54508 14.4907 1.54153C14.524 1.53798 14.5576 1.54389 14.5877 1.55857C14.6177 1.57326 14.6431 1.59613 14.6607 1.62455C14.6784 1.65298 14.6877 1.68581 14.6875 1.71927V3.44472C14.6875 3.55409 14.6362 3.659 14.5513 3.72597L6.51562 10.0005L14.5513 16.2751C14.6384 16.342 14.6875 16.447 14.6875 16.5563V18.2818C14.6875 18.4313 14.5156 18.5139 14.3996 18.4224L4.33705 10.563C4.25153 10.4963 4.18234 10.411 4.13475 10.3135C4.08717 10.216 4.06243 10.109 4.06243 10.0005C4.06243 9.89206 4.08717 9.78502 4.13475 9.68754C4.18234 9.59007 4.25153 9.50474 4.33705 9.43802Z" fill="black"/>
</svg>
