<svg width="21" height="20" viewBox="0 0 21 20" fill="none" xmlns="http://www.w3.org/2000/svg">
<path d="M18.458 3.14453H13.9893C13.0303 3.14453 12.0928 3.41992 11.2861 3.93945L10.333 4.55078L9.37988 3.93945C8.57404 3.42002 7.6355 3.14402 6.67676 3.14453H2.20801C1.8623 3.14453 1.58301 3.42383 1.58301 3.76953V14.8633C1.58301 15.209 1.8623 15.4883 2.20801 15.4883H6.67676C7.63574 15.4883 8.57324 15.7637 9.37988 16.2832L10.2471 16.8418C10.2725 16.8574 10.3018 16.8672 10.3311 16.8672C10.3604 16.8672 10.3896 16.8594 10.415 16.8418L11.2822 16.2832C12.0908 15.7637 13.0303 15.4883 13.9893 15.4883H18.458C18.8037 15.4883 19.083 15.209 19.083 14.8633V3.76953C19.083 3.42383 18.8037 3.14453 18.458 3.14453ZM8.22363 10.8105C8.22363 10.8906 8.16113 10.957 8.08496 10.957H4.45605C4.37988 10.957 4.31738 10.8906 4.31738 10.8105V9.93164C4.31738 9.85156 4.37988 9.78516 4.45605 9.78516H8.08301C8.15918 9.78516 8.22168 9.85156 8.22168 9.93164V10.8105H8.22363ZM8.22363 8.07617C8.22363 8.15625 8.16113 8.22266 8.08496 8.22266H4.45605C4.37988 8.22266 4.31738 8.15625 4.31738 8.07617V7.19727C4.31738 7.11719 4.37988 7.05078 4.45605 7.05078H8.08301C8.15918 7.05078 8.22168 7.11719 8.22168 7.19727V8.07617H8.22363ZM16.3486 10.8105C16.3486 10.8906 16.2861 10.957 16.21 10.957H12.5811C12.5049 10.957 12.4424 10.8906 12.4424 10.8105V9.93164C12.4424 9.85156 12.5049 9.78516 12.5811 9.78516H16.208C16.2842 9.78516 16.3467 9.85156 16.3467 9.93164V10.8105H16.3486ZM16.3486 8.07617C16.3486 8.15625 16.2861 8.22266 16.21 8.22266H12.5811C12.5049 8.22266 12.4424 8.15625 12.4424 8.07617V7.19727C12.4424 7.11719 12.5049 7.05078 12.5811 7.05078H16.208C16.2842 7.05078 16.3467 7.11719 16.3467 7.19727V8.07617H16.3486Z" fill="currentColor"/>
</svg>
