<svg width="40" height="40" viewBox="0 0 40 40" fill="none" xmlns="http://www.w3.org/2000/svg">
<g clip-path="url(#clip0_1208_2286)">
<path d="M34.2847 0H5.71324C4.92306 0 4.28467 0.638393 4.28467 1.42857V38.5714C4.28467 39.3616 4.92306 40 5.71324 40H34.2847C35.0749 40 35.7132 39.3616 35.7132 38.5714V1.42857C35.7132 0.638393 35.0749 0 34.2847 0ZM22.6775 3.21429H26.9632V12.5848L24.8873 11.0714L22.6775 12.6518V3.21429ZM32.499 36.7857H7.49895V3.21429H19.999V16.4688C19.999 16.6161 20.0436 16.7634 20.1329 16.8839C20.1871 16.9605 20.2559 17.0257 20.3355 17.0755C20.415 17.1253 20.5036 17.1589 20.5962 17.1742C20.6888 17.1896 20.7835 17.1865 20.8748 17.165C20.9662 17.1435 21.0524 17.1041 21.1284 17.0491L24.8695 14.375L28.5034 17.0268C28.624 17.1161 28.7713 17.1652 28.9231 17.1652C29.3159 17.1652 29.6374 16.8438 29.6374 16.4509V3.21429H32.4945V36.7857H32.499Z" fill="white"/>
</g>
<defs>
<clipPath id="clip0_1208_2286">
<rect width="40" height="40" fill="white"/>
</clipPath>
</defs>
</svg>
