<svg width="18" height="18" viewBox="0 0 18 18" fill="none" xmlns="http://www.w3.org/2000/svg">
<path d="M9 0.25C4.16797 0.25 0.25 4.16797 0.25 9C0.25 13.832 4.16797 17.75 9 17.75C13.832 17.75 17.75 13.832 17.75 9C17.75 4.16797 13.832 0.25 9 0.25ZM9 16.2656C4.98828 16.2656 1.73438 13.0117 1.73438 9C1.73438 4.98828 4.98828 1.73438 9 1.73438C13.0117 1.73438 16.2656 4.98828 16.2656 9C16.2656 13.0117 13.0117 16.2656 9 16.2656Z" fill="#1F1B18"/>
<path d="M12.4123 11.4708L9.62711 9.45715V4.62317C9.62711 4.53723 9.55679 4.46692 9.47086 4.46692H8.5314C8.44547 4.46692 8.37515 4.53723 8.37515 4.62317V10.0021C8.37515 10.0529 8.39859 10.0997 8.43961 10.129L11.6701 12.4845C11.7404 12.5353 11.838 12.5197 11.8888 12.4513L12.4474 11.6896C12.4982 11.6173 12.4826 11.5197 12.4123 11.4708Z" fill="#1F1B18"/>
</svg>
