<svg width="21" height="20" viewBox="0 0 21 20" fill="none" xmlns="http://www.w3.org/2000/svg">
<path d="M8.94438 13.6973L13.3953 10.1995C13.425 10.1759 13.4491 10.1459 13.4656 10.1117C13.4821 10.0775 13.4907 10.04 13.4907 10.002C13.4907 9.964 13.4821 9.92651 13.4656 9.8923C13.4491 9.8581 13.425 9.82806 13.3953 9.80444L8.94438 6.30444C8.7792 6.17498 8.53589 6.29105 8.53589 6.50087V13.4986C8.53589 13.7085 8.7792 13.8268 8.94438 13.6973Z" fill="#909090"/>
<path d="M18.7146 1.07422H2.28606C1.89097 1.07422 1.57178 1.39342 1.57178 1.7885V18.2171C1.57178 18.6122 1.89097 18.9314 2.28606 18.9314H18.7146C19.1097 18.9314 19.4289 18.6122 19.4289 18.2171V1.7885C19.4289 1.39342 19.1097 1.07422 18.7146 1.07422ZM17.8218 17.3242H3.17892V2.68136H17.8218V17.3242Z" fill="#909090"/>
</svg>
