<svg width="12" height="12" viewBox="0 0 12 12" fill="none" xmlns="http://www.w3.org/2000/svg">
<path d="M5.95332 7.31253C6.30141 7.31253 6.63525 7.17425 6.88139 6.92811C7.12754 6.68197 7.26582 6.34813 7.26582 6.00003C7.26582 5.9616 7.26406 5.92351 7.26078 5.88589L5.83917 7.3075C5.87679 7.31078 5.91476 7.31253 5.95332 7.31253ZM10.2977 1.94019L9.79707 1.44003C9.77949 1.42247 9.75565 1.4126 9.7308 1.4126C9.70594 1.4126 9.68211 1.42247 9.66453 1.44003L8.38343 2.72148C7.67671 2.36031 6.8823 2.17972 6.00019 2.17972C3.74785 2.17972 2.06738 3.35277 0.958784 5.69886C0.914223 5.79322 0.891113 5.89627 0.891113 6.00062C0.891113 6.10497 0.914223 6.20802 0.958784 6.30238C1.40175 7.23542 1.93515 7.98328 2.55898 8.54593L1.31925 9.78519C1.30168 9.80277 1.29182 9.82661 1.29182 9.85146C1.29182 9.87631 1.30168 9.90015 1.31925 9.91773L1.81953 10.418C1.83711 10.4356 1.86094 10.4454 1.8858 10.4454C1.91065 10.4454 1.93449 10.4356 1.95206 10.418L10.2977 2.07285C10.3064 2.06414 10.3133 2.0538 10.318 2.04242C10.3228 2.03104 10.3252 2.01884 10.3252 2.00652C10.3252 1.9942 10.3228 1.982 10.318 1.97062C10.3133 1.95924 10.3064 1.9489 10.2977 1.94019ZM3.89082 6.00003C3.89078 5.64379 3.98302 5.29361 4.15855 4.98361C4.33408 4.67362 4.58691 4.41437 4.89241 4.23112C5.19791 4.04788 5.54567 3.94689 5.9018 3.93799C6.25793 3.92909 6.61029 4.01259 6.92457 4.18035L6.3548 4.75011C6.12502 4.67654 5.87941 4.66768 5.64493 4.7245C5.41044 4.78133 5.19614 4.90164 5.02553 5.07225C4.85492 5.24286 4.73461 5.45716 4.67778 5.69164C4.62096 5.92613 4.62982 6.17174 4.70339 6.40152L4.13363 6.97128C3.97374 6.67255 3.89032 6.33887 3.89082 6.00003V6.00003Z" fill="#909090"/>
<path d="M11.041 5.69758C10.6285 4.82883 10.1376 4.12043 9.56811 3.57239L7.87896 5.26165C8.02135 5.63385 8.05291 6.03932 7.96983 6.42908C7.88676 6.81883 7.69259 7.17619 7.4108 7.45798C7.12902 7.73977 6.77166 7.93393 6.3819 8.01701C5.99215 8.10009 5.58668 8.06852 5.21447 7.92614L3.78174 9.35887C4.44643 9.66645 5.18572 9.82024 5.99963 9.82024C8.25197 9.82024 9.93244 8.64719 11.041 6.3011C11.0856 6.20675 11.1087 6.10369 11.1087 5.99934C11.1087 5.89499 11.0856 5.79194 11.041 5.69758Z" fill="#909090"/>
</svg>
