<svg width="21" height="20" viewBox="0 0 21 20" fill="none" xmlns="http://www.w3.org/2000/svg">
<g clip-path="url(#clip0_426_3666)">
<path d="M20.1999 9.84241L11.5749 1.22188L10.9967 0.64375C10.865 0.512895 10.6869 0.439453 10.5012 0.439453C10.3155 0.439453 10.1374 0.512895 10.0057 0.64375L0.802548 9.84241C0.667573 9.97686 0.560899 10.137 0.488825 10.3133C0.41675 10.4897 0.380735 10.6787 0.382905 10.8692C0.391834 11.6549 1.04585 12.2821 1.83157 12.2821H2.78023V19.5522H18.2222V12.2821H19.1909C19.5726 12.2821 19.932 12.1326 20.2021 11.8625C20.3351 11.7299 20.4405 11.5723 20.5121 11.3987C20.5838 11.2252 20.6203 11.0391 20.6195 10.8513C20.6195 10.4719 20.47 10.1125 20.1999 9.84241ZM11.7512 17.9451H9.25121V13.3915H11.7512V17.9451ZM16.615 10.675V17.9451H13.1798V12.8558C13.1798 12.3625 12.7802 11.9629 12.2869 11.9629H8.71549C8.22219 11.9629 7.82264 12.3625 7.82264 12.8558V17.9451H4.38737V10.675H2.24451L10.5034 2.42277L11.0191 2.93839L18.7601 10.675H16.615Z" fill="#909090"/>
</g>
<defs>
<clipPath id="clip0_426_3666">
<rect width="20" height="20" fill="white" transform="translate(0.5)"/>
</clipPath>
</defs>
</svg>
