<svg width="28" height="36" viewBox="0 0 28 36" fill="none" xmlns="http://www.w3.org/2000/svg">
<path d="M8.33705 17.438L18.3996 9.57865C18.4258 9.55795 18.4574 9.54508 18.4907 9.54153C18.524 9.53798 18.5576 9.54389 18.5877 9.55857C18.6177 9.57326 18.6431 9.59613 18.6607 9.62455C18.6784 9.65298 18.6877 9.68581 18.6875 9.71927V11.4447C18.6875 11.5541 18.6362 11.659 18.5513 11.726L10.5156 18.0005L18.5513 24.2751C18.6384 24.342 18.6875 24.447 18.6875 24.5563V26.2818C18.6875 26.4313 18.5156 26.5139 18.3996 26.4224L8.33705 18.563C8.25153 18.4963 8.18234 18.411 8.13475 18.3135C8.08717 18.216 8.06243 18.109 8.06243 18.0005C8.06243 17.8921 8.08717 17.785 8.13475 17.6875C8.18234 17.5901 8.25153 17.5047 8.33705 17.438Z" fill="#1F1B18"/>
</svg>
