<svg width="78" height="71" viewBox="0 0 78 71" fill="none" xmlns="http://www.w3.org/2000/svg">
<mask id="path-1-outside-1_1034_4335" maskUnits="userSpaceOnUse" x="8.81152" y="4.30841" width="65" height="66" fill="black">
<rect fill="white" x="8.81152" y="4.30841" width="65" height="66"/>
<path d="M59.0292 10.7475C60.8106 11.9421 62.4694 13.3168 63.9975 14.8714C66.9148 17.8334 69.2028 21.2782 70.7963 25.1157C72.447 29.0841 73.2886 33.3062 73.2886 37.6592C73.2886 42.0121 72.447 46.226 70.7963 50.2026C69.1947 54.0402 66.9066 57.4849 63.9975 60.4469C61.0802 63.4089 57.689 65.7327 53.9056 67.3528C50.3101 68.8992 46.5103 69.742 42.596 69.8648C42.3591 69.8811 42.1221 69.8811 41.8851 69.8811C41.7707 69.8811 41.6645 69.8811 41.5501 69.8811C37.2682 69.8811 33.1088 69.0302 29.1946 67.3446C25.4111 65.7245 22.0199 63.4007 19.1027 60.4387C16.1854 57.4767 13.8973 54.032 12.3039 50.1945C10.6532 46.226 9.81152 42.004 9.81152 37.651C9.81152 33.298 10.6532 29.0841 12.3039 25.1075C13.9055 21.27 16.1936 17.8252 19.1027 14.8632C22.0199 11.9012 25.4111 9.57746 29.1946 7.95736C32.7901 6.41091 36.5899 5.56813 40.5041 5.44539C41.6481 5.24083 42.8249 5.26538 43.9689 5.51903C47.401 5.78087 50.735 6.5991 53.9056 7.95736C55.6379 8.70195 57.2968 9.59383 58.8576 10.633L59.0292 10.7475ZM56.0874 64.4726C54.8126 65.4299 53.4643 66.2645 52.0506 66.96C50.5634 67.6964 49.0353 68.2774 47.4745 68.6865C51.2825 67.9419 54.8453 66.4855 58.0241 64.4644H56.0874V64.4726ZM38.1343 64.4726C39.3519 67.1073 40.7329 68.5556 42.1221 68.5883V64.4726H38.1343ZM46.8535 64.4726C45.9791 66.4118 45.0148 67.7864 44.0016 68.531C44.7779 68.4492 45.546 68.3101 46.2978 68.1137C47.7769 67.2955 49.1742 66.0518 50.449 64.4644H46.8535V64.4726ZM42.7186 64.4726V68.5147C43.928 68.1792 45.1211 66.78 46.1916 64.4726H42.7186ZM25.0843 64.4726C28.0179 66.3382 31.2865 67.721 34.7676 68.5065C33.4357 68.1137 32.12 67.5982 30.8371 66.96C29.4234 66.2564 28.0751 65.4299 26.8003 64.4726H25.0843ZM37.2682 67.7946C38.2488 68.1219 39.2457 68.351 40.2671 68.4819C39.2702 67.7292 38.3305 66.3709 37.4724 64.4644H33.6563C34.7758 65.8636 35.9852 66.9928 37.2682 67.7946ZM27.8545 64.4726C30.6818 66.4527 33.8442 67.8437 37.2191 68.4738C37.1538 68.4328 37.0802 68.3919 37.0148 68.351C35.8136 67.9501 34.6287 67.4019 33.4765 66.7227C32.3979 66.0845 31.3601 65.3317 30.3713 64.4726H27.8545ZM51.2089 64.4726C50.3101 65.6427 49.3621 66.6327 48.3734 67.4346C50.1221 66.7309 51.7891 65.7327 53.3335 64.4726H51.2089ZM31.3274 64.4726C32.5286 65.4545 33.8034 66.2727 35.1354 66.9191C34.3591 66.2236 33.6154 65.4054 32.9045 64.4726H31.3274ZM54.2896 64.4726C53.3499 65.2827 52.3693 66.0027 51.3479 66.6245C52.6308 66.0191 53.8647 65.299 55.0333 64.4726H54.2896ZM24.4959 11.2467C15.9076 16.8843 10.4162 26.5148 10.4162 37.651C10.4162 48.7871 16.1118 58.5977 24.7084 64.2271V63.8671H26.0322C24.6675 62.7625 23.3928 61.5188 22.1997 60.1196C21.881 59.7432 21.5705 59.3668 21.2763 58.9823H19.0373V58.3768H20.8269C19.879 57.0922 19.0373 55.7339 18.2855 54.3184H15.5317V53.7129H17.975C15.5562 48.8853 14.2569 43.3622 14.2569 37.6101C14.2569 31.8088 15.5725 26.2448 18.0322 21.3845H14.7063V20.779H18.3509C19.1108 19.3553 19.9688 17.9971 20.9167 16.7206H18.1629V16.1151H21.3744C21.644 15.7715 21.9219 15.436 22.1997 15.1005C23.4336 13.6523 24.7656 12.3594 26.1874 11.2303H24.7084L24.4959 11.2467ZM56.8555 63.8753H58.9229C62.5675 61.3797 65.6645 58.1231 67.9853 54.3265H64.6104C63.8586 55.7503 63.0087 57.1085 62.069 58.385H64.4306V58.9905H61.6114C61.3091 59.375 60.9985 59.7596 60.688 60.1278C59.5031 61.5188 58.2202 62.7707 56.8555 63.8753ZM54.9515 63.8753H55.8586C57.6809 62.4843 59.3479 60.8478 60.8351 58.9905H59.021C58.8085 59.3096 58.5961 59.6205 58.3754 59.9314C57.3213 61.4042 56.1773 62.7216 54.9515 63.8753ZM51.6584 63.8753H54.0445C55.5971 62.5007 57.0271 60.856 58.2855 58.9905H54.4204C54.2079 59.4487 53.9955 59.8987 53.7748 60.3405C53.1129 61.6415 52.402 62.8198 51.6584 63.8753ZM47.115 63.8753H50.9148C51.9607 62.4761 52.9086 60.8315 53.7585 58.9905H48.6839C48.6185 59.2441 48.5532 59.4978 48.4878 59.7432C48.071 61.2979 47.6053 62.6807 47.115 63.8753ZM42.7186 63.8753H46.4531C46.976 62.6561 47.4582 61.2242 47.8994 59.5878C47.9485 59.3914 48.0057 59.195 48.0547 58.9905H42.7105V63.8753H42.7186ZM37.8647 63.8753H42.1221V58.9905H36.263C36.3121 59.1868 36.3693 59.3914 36.4183 59.5878C36.8596 61.216 37.3499 62.6561 37.8647 63.8753ZM33.1905 63.8753H37.211C36.7207 62.6807 36.2549 61.306 35.83 59.7432C35.7646 59.4978 35.6992 59.2441 35.6338 58.9905H30.3386C31.1966 60.8315 32.1446 62.4679 33.1905 63.8753ZM30.6165 63.8753H32.4551C31.7115 62.828 31.0005 61.6497 30.3386 60.3405C30.118 59.8987 29.8974 59.4487 29.6931 58.9905H26.3754C27.6338 60.8478 29.0557 62.4925 30.6165 63.8753ZM27.0291 63.8753H29.7012C28.4755 62.7298 27.3315 61.4124 26.2773 59.9314C26.0567 59.6205 25.8442 59.3096 25.6318 58.9905H22.0526C23.5398 60.8397 25.2069 62.4843 27.0291 63.8753ZM59.4051 58.385H61.3009C62.257 57.1167 63.1313 55.7584 63.9076 54.3265H61.5624C60.9332 55.7421 60.2141 57.1003 59.4051 58.385ZM54.6819 58.385H58.686C59.4949 57.1249 60.2386 55.7666 60.8923 54.3265H56.1773C55.736 55.7421 55.2375 57.1003 54.6819 58.385ZM48.8392 58.385H54.0281C54.5838 57.1167 55.0905 55.7584 55.5399 54.3265H49.6727C49.4275 55.7421 49.1497 57.1003 48.8392 58.385ZM42.7186 58.385H48.2181C48.5286 57.1085 48.8147 55.7503 49.0598 54.3265H42.7186V58.385ZM36.1078 58.385H42.1221V54.3265H35.2661C35.5113 55.7503 35.7973 57.1085 36.1078 58.385ZM30.0771 58.385H35.4867C35.1762 57.1085 34.8984 55.7503 34.6532 54.3265H28.5654C29.0148 55.7584 29.5215 57.1167 30.0771 58.385ZM25.975 58.385H29.4234C28.8677 57.1003 28.3693 55.7421 27.9362 54.3265H23.7686C24.4224 55.7584 25.1578 57.1167 25.975 58.385ZM21.5868 58.385H25.2477C24.4469 57.1003 23.7278 55.7421 23.0904 54.3265H18.9801C19.7564 55.7584 20.6307 57.1167 21.5868 58.385ZM64.9209 53.721H68.2141V53.9583C71.0496 49.1962 72.6839 43.6159 72.6839 37.651C72.6839 31.6861 71.0496 26.1057 68.2141 21.3436V21.3927H64.8555C67.3152 26.253 68.6308 31.817 68.6308 37.6182C68.639 43.3704 67.3479 48.8853 64.9209 53.721ZM61.832 53.721H64.2263C66.6451 49.0162 68.0343 43.5095 68.0343 37.6182C68.0343 31.6779 66.6206 26.1221 64.1609 21.3927H61.783C63.8668 26.2448 64.9699 31.8088 64.9699 37.6019C64.9781 43.3704 63.8831 48.8935 61.832 53.721ZM56.357 53.721H61.162C63.1967 49.0244 64.3734 43.5013 64.3734 37.6101C64.3734 31.6697 63.1804 26.1139 61.1129 21.4009H56.3325C57.7707 26.2694 58.5389 31.817 58.5389 37.6019C58.547 43.3459 57.7871 48.8689 56.357 53.721ZM49.7707 53.721H55.7197C57.1252 48.9917 57.9342 43.4768 57.9342 37.5937C57.9342 31.6779 57.117 26.1385 55.6951 21.3927H49.8279C50.5879 26.1876 50.9965 31.6615 50.9965 37.3646C51.0046 43.2231 50.5797 48.8362 49.7707 53.721ZM42.7186 53.721H49.166C49.975 48.8444 50.4081 43.2313 50.4081 37.3646C50.4081 31.6533 49.9995 26.1794 49.2314 21.3927H42.7268V53.721H42.7186ZM35.1681 53.721H42.1221V21.3927H35.1027C34.3345 26.1794 33.926 31.6533 33.926 37.3646C33.926 43.2313 34.3591 48.8444 35.1681 53.721ZM28.3774 53.721H34.547C33.7462 48.8362 33.3131 43.2231 33.3131 37.3646C33.3131 31.6615 33.7217 26.1876 34.4816 21.3927H28.3938C26.9719 26.1385 26.1548 31.6779 26.1548 37.5937C26.1629 43.4768 26.9719 48.9917 28.3774 53.721ZM23.499 53.721H27.7482C26.3182 48.8689 25.5582 43.3459 25.5582 37.5937C25.5582 31.8088 26.3264 26.2612 27.7646 21.3927H23.5398C21.4724 26.1139 20.2794 31.6697 20.2794 37.6019C20.2875 43.5013 21.4561 49.0162 23.499 53.721ZM18.6614 53.721H22.8289C20.7778 48.8935 19.6828 43.3704 19.6828 37.6101C19.6828 31.8088 20.7942 26.2448 22.8698 21.4009H18.7186C16.2671 26.1303 14.8452 31.6861 14.8452 37.6264C14.8534 43.5013 16.2426 49.0162 18.6614 53.721ZM64.545 20.7872H67.879C66.9393 19.2735 66.0241 18.0543 64.8474 16.7288H64.7003H61.9791C62.9352 18.0134 63.7932 19.3717 64.545 20.7872ZM61.5215 20.7872H63.8422C63.0578 19.3471 62.1752 17.9889 61.2028 16.7288H59.3397C60.1568 18.0134 60.876 19.3635 61.5215 20.7872ZM56.1528 20.7872H60.8433C60.1814 19.3471 59.4377 17.9889 58.6124 16.7288H54.6492C55.213 18.0134 55.7115 19.3717 56.1528 20.7872ZM49.738 20.7872H55.5235C55.0741 19.3553 54.5593 17.9971 54.0036 16.7288H48.9291C49.2314 18.0134 49.5011 19.3717 49.738 20.7872ZM42.7186 20.7872H49.1252C48.8882 19.3635 48.6104 18.0052 48.308 16.7288H42.7186V20.7872ZM35.2007 20.7872H42.1221V16.7288H36.0179C35.7155 18.0134 35.4377 19.3717 35.2007 20.7872ZM28.5899 20.7872H34.596C34.833 19.3635 35.1027 18.0052 35.405 16.7288H30.1098C29.546 17.9971 29.0393 19.3553 28.5899 20.7872ZM23.8095 20.7872H27.9525C28.3938 19.3717 28.8923 18.0134 29.4479 16.7288H26.0404C25.2232 17.9889 24.4796 19.3471 23.8095 20.7872ZM19.0455 20.7872H23.1394C23.785 19.3635 24.5041 18.0052 25.3131 16.7288H21.6767C20.7125 17.9971 19.8299 19.3553 19.0455 20.7872ZM61.5215 16.1233H64.3407C62.6492 14.2741 60.737 12.6376 58.6533 11.2385H56.7084C58.1303 12.3676 59.4623 13.6604 60.6962 15.1087C60.974 15.4442 61.2519 15.7797 61.5215 16.1233ZM58.9556 16.1233H60.737C59.2335 14.2659 57.5419 12.6213 55.6951 11.2385H54.8453C56.1119 12.4085 57.2886 13.7586 58.3754 15.2805C58.5716 15.5587 58.7677 15.8451 58.9556 16.1233ZM54.3877 16.1233H58.2202C56.9454 14.2577 55.5072 12.6131 53.9301 11.2385H51.6093C52.3775 12.3022 53.0966 13.505 53.7748 14.8387C53.9791 15.2642 54.1916 15.6896 54.3877 16.1233ZM48.782 16.1233H53.7258C52.8759 14.2823 51.9117 12.6376 50.8576 11.2385H47.262C47.6951 12.3431 48.1037 13.595 48.4878 14.9942C48.594 15.3624 48.6921 15.7387 48.782 16.1233ZM42.7186 16.1233H48.1609C48.0792 15.796 47.9975 15.4687 47.9076 15.1496C47.5072 13.6768 47.0741 12.3758 46.6165 11.2385H42.7186V16.1233ZM36.165 16.1233H42.1221V11.2385H37.7094C37.2518 12.3758 36.8187 13.6768 36.4183 15.1496C36.3284 15.4687 36.2467 15.796 36.165 16.1233ZM30.3795 16.1233H35.5439C35.642 15.7387 35.7401 15.3624 35.8381 14.9942C36.214 13.595 36.6226 12.3431 37.0639 11.2385H33.2477C32.1936 12.6376 31.2293 14.2823 30.3795 16.1233ZM26.4408 16.1233H29.7176C29.9137 15.6896 30.118 15.256 30.3305 14.8387C31.0087 13.505 31.7278 12.3022 32.4959 11.2385H30.7227C29.1537 12.6131 27.7155 14.2577 26.4408 16.1233ZM22.1588 16.1233H25.7053C25.8933 15.8369 26.0894 15.5587 26.2855 15.2805C27.3723 13.7586 28.549 12.4085 29.8156 11.2385H27.2007C25.3458 12.6213 23.6542 14.2659 22.1588 16.1233ZM55.9158 10.6412H57.7135C54.8535 8.87378 51.6992 7.55643 48.3407 6.79547C49.5991 7.18004 50.8412 7.67916 52.0506 8.27647C53.3908 8.93924 54.69 9.73292 55.9158 10.6412ZM54.1671 10.6412H54.8535C53.7912 9.90475 52.6716 9.25835 51.5195 8.70195C52.4347 9.26653 53.3172 9.91293 54.1671 10.6412ZM51.1599 10.6412H53.211C51.7237 9.44654 50.1303 8.49739 48.4551 7.81008C49.3948 8.57922 50.3019 9.52837 51.1599 10.6412ZM47.0169 10.6412H50.3918C49.166 9.12743 47.8259 7.93281 46.404 7.12277C45.8238 6.9673 45.2437 6.85275 44.6471 6.76274C45.4888 7.62189 46.2896 8.92287 47.0169 10.6412ZM42.7186 10.6412H46.3632C45.5051 8.68559 44.5654 7.32732 43.593 6.64819C43.307 6.62365 43.0128 6.60728 42.7268 6.5991V10.6412H42.7186ZM37.9627 10.6412H42.1221V6.59092C41.64 6.5991 41.166 6.62364 40.6921 6.67274C39.736 7.36824 38.8044 8.71832 37.9627 10.6412ZM33.7135 10.6412H37.309C38.0199 8.97197 38.7962 7.68735 39.6216 6.8282C38.7881 6.97548 37.9627 7.18004 37.1619 7.45824C35.9362 8.24374 34.784 9.31563 33.7135 10.6412ZM31.45 10.6412H32.9454C33.6154 9.76565 34.3182 8.99651 35.0455 8.33375C33.7952 8.94742 32.594 9.72474 31.45 10.6412ZM28.0342 10.6412H30.4939C31.45 9.82293 32.4469 9.11107 33.4847 8.49739C34.6042 7.83463 35.7401 7.30278 36.9086 6.90184C36.9658 6.86093 37.0312 6.8282 37.0884 6.78729C33.8279 7.41733 30.7799 8.75105 28.0342 10.6412ZM25.3866 10.6412H26.9719C28.1977 9.73292 29.4888 8.94742 30.8453 8.27647C31.8504 7.77735 32.8718 7.35187 33.9096 7.00003C30.8616 7.78553 28.0015 9.02106 25.3866 10.6412Z"/>
</mask>
<path d="M59.0292 10.7475C60.8106 11.9421 62.4694 13.3168 63.9975 14.8714C66.9148 17.8334 69.2028 21.2782 70.7963 25.1157C72.447 29.0841 73.2886 33.3062 73.2886 37.6592C73.2886 42.0121 72.447 46.226 70.7963 50.2026C69.1947 54.0402 66.9066 57.4849 63.9975 60.4469C61.0802 63.4089 57.689 65.7327 53.9056 67.3528C50.3101 68.8992 46.5103 69.742 42.596 69.8648C42.3591 69.8811 42.1221 69.8811 41.8851 69.8811C41.7707 69.8811 41.6645 69.8811 41.5501 69.8811C37.2682 69.8811 33.1088 69.0302 29.1946 67.3446C25.4111 65.7245 22.0199 63.4007 19.1027 60.4387C16.1854 57.4767 13.8973 54.032 12.3039 50.1945C10.6532 46.226 9.81152 42.004 9.81152 37.651C9.81152 33.298 10.6532 29.0841 12.3039 25.1075C13.9055 21.27 16.1936 17.8252 19.1027 14.8632C22.0199 11.9012 25.4111 9.57746 29.1946 7.95736C32.7901 6.41091 36.5899 5.56813 40.5041 5.44539C41.6481 5.24083 42.8249 5.26538 43.9689 5.51903C47.401 5.78087 50.735 6.5991 53.9056 7.95736C55.6379 8.70195 57.2968 9.59383 58.8576 10.633L59.0292 10.7475ZM56.0874 64.4726C54.8126 65.4299 53.4643 66.2645 52.0506 66.96C50.5634 67.6964 49.0353 68.2774 47.4745 68.6865C51.2825 67.9419 54.8453 66.4855 58.0241 64.4644H56.0874V64.4726ZM38.1343 64.4726C39.3519 67.1073 40.7329 68.5556 42.1221 68.5883V64.4726H38.1343ZM46.8535 64.4726C45.9791 66.4118 45.0148 67.7864 44.0016 68.531C44.7779 68.4492 45.546 68.3101 46.2978 68.1137C47.7769 67.2955 49.1742 66.0518 50.449 64.4644H46.8535V64.4726ZM42.7186 64.4726V68.5147C43.928 68.1792 45.1211 66.78 46.1916 64.4726H42.7186ZM25.0843 64.4726C28.0179 66.3382 31.2865 67.721 34.7676 68.5065C33.4357 68.1137 32.12 67.5982 30.8371 66.96C29.4234 66.2564 28.0751 65.4299 26.8003 64.4726H25.0843ZM37.2682 67.7946C38.2488 68.1219 39.2457 68.351 40.2671 68.4819C39.2702 67.7292 38.3305 66.3709 37.4724 64.4644H33.6563C34.7758 65.8636 35.9852 66.9928 37.2682 67.7946ZM27.8545 64.4726C30.6818 66.4527 33.8442 67.8437 37.2191 68.4738C37.1538 68.4328 37.0802 68.3919 37.0148 68.351C35.8136 67.9501 34.6287 67.4019 33.4765 66.7227C32.3979 66.0845 31.3601 65.3317 30.3713 64.4726H27.8545ZM51.2089 64.4726C50.3101 65.6427 49.3621 66.6327 48.3734 67.4346C50.1221 66.7309 51.7891 65.7327 53.3335 64.4726H51.2089ZM31.3274 64.4726C32.5286 65.4545 33.8034 66.2727 35.1354 66.9191C34.3591 66.2236 33.6154 65.4054 32.9045 64.4726H31.3274ZM54.2896 64.4726C53.3499 65.2827 52.3693 66.0027 51.3479 66.6245C52.6308 66.0191 53.8647 65.299 55.0333 64.4726H54.2896ZM24.4959 11.2467C15.9076 16.8843 10.4162 26.5148 10.4162 37.651C10.4162 48.7871 16.1118 58.5977 24.7084 64.2271V63.8671H26.0322C24.6675 62.7625 23.3928 61.5188 22.1997 60.1196C21.881 59.7432 21.5705 59.3668 21.2763 58.9823H19.0373V58.3768H20.8269C19.879 57.0922 19.0373 55.7339 18.2855 54.3184H15.5317V53.7129H17.975C15.5562 48.8853 14.2569 43.3622 14.2569 37.6101C14.2569 31.8088 15.5725 26.2448 18.0322 21.3845H14.7063V20.779H18.3509C19.1108 19.3553 19.9688 17.9971 20.9167 16.7206H18.1629V16.1151H21.3744C21.644 15.7715 21.9219 15.436 22.1997 15.1005C23.4336 13.6523 24.7656 12.3594 26.1874 11.2303H24.7084L24.4959 11.2467ZM56.8555 63.8753H58.9229C62.5675 61.3797 65.6645 58.1231 67.9853 54.3265H64.6104C63.8586 55.7503 63.0087 57.1085 62.069 58.385H64.4306V58.9905H61.6114C61.3091 59.375 60.9985 59.7596 60.688 60.1278C59.5031 61.5188 58.2202 62.7707 56.8555 63.8753ZM54.9515 63.8753H55.8586C57.6809 62.4843 59.3479 60.8478 60.8351 58.9905H59.021C58.8085 59.3096 58.5961 59.6205 58.3754 59.9314C57.3213 61.4042 56.1773 62.7216 54.9515 63.8753ZM51.6584 63.8753H54.0445C55.5971 62.5007 57.0271 60.856 58.2855 58.9905H54.4204C54.2079 59.4487 53.9955 59.8987 53.7748 60.3405C53.1129 61.6415 52.402 62.8198 51.6584 63.8753ZM47.115 63.8753H50.9148C51.9607 62.4761 52.9086 60.8315 53.7585 58.9905H48.6839C48.6185 59.2441 48.5532 59.4978 48.4878 59.7432C48.071 61.2979 47.6053 62.6807 47.115 63.8753ZM42.7186 63.8753H46.4531C46.976 62.6561 47.4582 61.2242 47.8994 59.5878C47.9485 59.3914 48.0057 59.195 48.0547 58.9905H42.7105V63.8753H42.7186ZM37.8647 63.8753H42.1221V58.9905H36.263C36.3121 59.1868 36.3693 59.3914 36.4183 59.5878C36.8596 61.216 37.3499 62.6561 37.8647 63.8753ZM33.1905 63.8753H37.211C36.7207 62.6807 36.2549 61.306 35.83 59.7432C35.7646 59.4978 35.6992 59.2441 35.6338 58.9905H30.3386C31.1966 60.8315 32.1446 62.4679 33.1905 63.8753ZM30.6165 63.8753H32.4551C31.7115 62.828 31.0005 61.6497 30.3386 60.3405C30.118 59.8987 29.8974 59.4487 29.6931 58.9905H26.3754C27.6338 60.8478 29.0557 62.4925 30.6165 63.8753ZM27.0291 63.8753H29.7012C28.4755 62.7298 27.3315 61.4124 26.2773 59.9314C26.0567 59.6205 25.8442 59.3096 25.6318 58.9905H22.0526C23.5398 60.8397 25.2069 62.4843 27.0291 63.8753ZM59.4051 58.385H61.3009C62.257 57.1167 63.1313 55.7584 63.9076 54.3265H61.5624C60.9332 55.7421 60.2141 57.1003 59.4051 58.385ZM54.6819 58.385H58.686C59.4949 57.1249 60.2386 55.7666 60.8923 54.3265H56.1773C55.736 55.7421 55.2375 57.1003 54.6819 58.385ZM48.8392 58.385H54.0281C54.5838 57.1167 55.0905 55.7584 55.5399 54.3265H49.6727C49.4275 55.7421 49.1497 57.1003 48.8392 58.385ZM42.7186 58.385H48.2181C48.5286 57.1085 48.8147 55.7503 49.0598 54.3265H42.7186V58.385ZM36.1078 58.385H42.1221V54.3265H35.2661C35.5113 55.7503 35.7973 57.1085 36.1078 58.385ZM30.0771 58.385H35.4867C35.1762 57.1085 34.8984 55.7503 34.6532 54.3265H28.5654C29.0148 55.7584 29.5215 57.1167 30.0771 58.385ZM25.975 58.385H29.4234C28.8677 57.1003 28.3693 55.7421 27.9362 54.3265H23.7686C24.4224 55.7584 25.1578 57.1167 25.975 58.385ZM21.5868 58.385H25.2477C24.4469 57.1003 23.7278 55.7421 23.0904 54.3265H18.9801C19.7564 55.7584 20.6307 57.1167 21.5868 58.385ZM64.9209 53.721H68.2141V53.9583C71.0496 49.1962 72.6839 43.6159 72.6839 37.651C72.6839 31.6861 71.0496 26.1057 68.2141 21.3436V21.3927H64.8555C67.3152 26.253 68.6308 31.817 68.6308 37.6182C68.639 43.3704 67.3479 48.8853 64.9209 53.721ZM61.832 53.721H64.2263C66.6451 49.0162 68.0343 43.5095 68.0343 37.6182C68.0343 31.6779 66.6206 26.1221 64.1609 21.3927H61.783C63.8668 26.2448 64.9699 31.8088 64.9699 37.6019C64.9781 43.3704 63.8831 48.8935 61.832 53.721ZM56.357 53.721H61.162C63.1967 49.0244 64.3734 43.5013 64.3734 37.6101C64.3734 31.6697 63.1804 26.1139 61.1129 21.4009H56.3325C57.7707 26.2694 58.5389 31.817 58.5389 37.6019C58.547 43.3459 57.7871 48.8689 56.357 53.721ZM49.7707 53.721H55.7197C57.1252 48.9917 57.9342 43.4768 57.9342 37.5937C57.9342 31.6779 57.117 26.1385 55.6951 21.3927H49.8279C50.5879 26.1876 50.9965 31.6615 50.9965 37.3646C51.0046 43.2231 50.5797 48.8362 49.7707 53.721ZM42.7186 53.721H49.166C49.975 48.8444 50.4081 43.2313 50.4081 37.3646C50.4081 31.6533 49.9995 26.1794 49.2314 21.3927H42.7268V53.721H42.7186ZM35.1681 53.721H42.1221V21.3927H35.1027C34.3345 26.1794 33.926 31.6533 33.926 37.3646C33.926 43.2313 34.3591 48.8444 35.1681 53.721ZM28.3774 53.721H34.547C33.7462 48.8362 33.3131 43.2231 33.3131 37.3646C33.3131 31.6615 33.7217 26.1876 34.4816 21.3927H28.3938C26.9719 26.1385 26.1548 31.6779 26.1548 37.5937C26.1629 43.4768 26.9719 48.9917 28.3774 53.721ZM23.499 53.721H27.7482C26.3182 48.8689 25.5582 43.3459 25.5582 37.5937C25.5582 31.8088 26.3264 26.2612 27.7646 21.3927H23.5398C21.4724 26.1139 20.2794 31.6697 20.2794 37.6019C20.2875 43.5013 21.4561 49.0162 23.499 53.721ZM18.6614 53.721H22.8289C20.7778 48.8935 19.6828 43.3704 19.6828 37.6101C19.6828 31.8088 20.7942 26.2448 22.8698 21.4009H18.7186C16.2671 26.1303 14.8452 31.6861 14.8452 37.6264C14.8534 43.5013 16.2426 49.0162 18.6614 53.721ZM64.545 20.7872H67.879C66.9393 19.2735 66.0241 18.0543 64.8474 16.7288H64.7003H61.9791C62.9352 18.0134 63.7932 19.3717 64.545 20.7872ZM61.5215 20.7872H63.8422C63.0578 19.3471 62.1752 17.9889 61.2028 16.7288H59.3397C60.1568 18.0134 60.876 19.3635 61.5215 20.7872ZM56.1528 20.7872H60.8433C60.1814 19.3471 59.4377 17.9889 58.6124 16.7288H54.6492C55.213 18.0134 55.7115 19.3717 56.1528 20.7872ZM49.738 20.7872H55.5235C55.0741 19.3553 54.5593 17.9971 54.0036 16.7288H48.9291C49.2314 18.0134 49.5011 19.3717 49.738 20.7872ZM42.7186 20.7872H49.1252C48.8882 19.3635 48.6104 18.0052 48.308 16.7288H42.7186V20.7872ZM35.2007 20.7872H42.1221V16.7288H36.0179C35.7155 18.0134 35.4377 19.3717 35.2007 20.7872ZM28.5899 20.7872H34.596C34.833 19.3635 35.1027 18.0052 35.405 16.7288H30.1098C29.546 17.9971 29.0393 19.3553 28.5899 20.7872ZM23.8095 20.7872H27.9525C28.3938 19.3717 28.8923 18.0134 29.4479 16.7288H26.0404C25.2232 17.9889 24.4796 19.3471 23.8095 20.7872ZM19.0455 20.7872H23.1394C23.785 19.3635 24.5041 18.0052 25.3131 16.7288H21.6767C20.7125 17.9971 19.8299 19.3553 19.0455 20.7872ZM61.5215 16.1233H64.3407C62.6492 14.2741 60.737 12.6376 58.6533 11.2385H56.7084C58.1303 12.3676 59.4623 13.6604 60.6962 15.1087C60.974 15.4442 61.2519 15.7797 61.5215 16.1233ZM58.9556 16.1233H60.737C59.2335 14.2659 57.5419 12.6213 55.6951 11.2385H54.8453C56.1119 12.4085 57.2886 13.7586 58.3754 15.2805C58.5716 15.5587 58.7677 15.8451 58.9556 16.1233ZM54.3877 16.1233H58.2202C56.9454 14.2577 55.5072 12.6131 53.9301 11.2385H51.6093C52.3775 12.3022 53.0966 13.505 53.7748 14.8387C53.9791 15.2642 54.1916 15.6896 54.3877 16.1233ZM48.782 16.1233H53.7258C52.8759 14.2823 51.9117 12.6376 50.8576 11.2385H47.262C47.6951 12.3431 48.1037 13.595 48.4878 14.9942C48.594 15.3624 48.6921 15.7387 48.782 16.1233ZM42.7186 16.1233H48.1609C48.0792 15.796 47.9975 15.4687 47.9076 15.1496C47.5072 13.6768 47.0741 12.3758 46.6165 11.2385H42.7186V16.1233ZM36.165 16.1233H42.1221V11.2385H37.7094C37.2518 12.3758 36.8187 13.6768 36.4183 15.1496C36.3284 15.4687 36.2467 15.796 36.165 16.1233ZM30.3795 16.1233H35.5439C35.642 15.7387 35.7401 15.3624 35.8381 14.9942C36.214 13.595 36.6226 12.3431 37.0639 11.2385H33.2477C32.1936 12.6376 31.2293 14.2823 30.3795 16.1233ZM26.4408 16.1233H29.7176C29.9137 15.6896 30.118 15.256 30.3305 14.8387C31.0087 13.505 31.7278 12.3022 32.4959 11.2385H30.7227C29.1537 12.6131 27.7155 14.2577 26.4408 16.1233ZM22.1588 16.1233H25.7053C25.8933 15.8369 26.0894 15.5587 26.2855 15.2805C27.3723 13.7586 28.549 12.4085 29.8156 11.2385H27.2007C25.3458 12.6213 23.6542 14.2659 22.1588 16.1233ZM55.9158 10.6412H57.7135C54.8535 8.87378 51.6992 7.55643 48.3407 6.79547C49.5991 7.18004 50.8412 7.67916 52.0506 8.27647C53.3908 8.93924 54.69 9.73292 55.9158 10.6412ZM54.1671 10.6412H54.8535C53.7912 9.90475 52.6716 9.25835 51.5195 8.70195C52.4347 9.26653 53.3172 9.91293 54.1671 10.6412ZM51.1599 10.6412H53.211C51.7237 9.44654 50.1303 8.49739 48.4551 7.81008C49.3948 8.57922 50.3019 9.52837 51.1599 10.6412ZM47.0169 10.6412H50.3918C49.166 9.12743 47.8259 7.93281 46.404 7.12277C45.8238 6.9673 45.2437 6.85275 44.6471 6.76274C45.4888 7.62189 46.2896 8.92287 47.0169 10.6412ZM42.7186 10.6412H46.3632C45.5051 8.68559 44.5654 7.32732 43.593 6.64819C43.307 6.62365 43.0128 6.60728 42.7268 6.5991V10.6412H42.7186ZM37.9627 10.6412H42.1221V6.59092C41.64 6.5991 41.166 6.62364 40.6921 6.67274C39.736 7.36824 38.8044 8.71832 37.9627 10.6412ZM33.7135 10.6412H37.309C38.0199 8.97197 38.7962 7.68735 39.6216 6.8282C38.7881 6.97548 37.9627 7.18004 37.1619 7.45824C35.9362 8.24374 34.784 9.31563 33.7135 10.6412ZM31.45 10.6412H32.9454C33.6154 9.76565 34.3182 8.99651 35.0455 8.33375C33.7952 8.94742 32.594 9.72474 31.45 10.6412ZM28.0342 10.6412H30.4939C31.45 9.82293 32.4469 9.11107 33.4847 8.49739C34.6042 7.83463 35.7401 7.30278 36.9086 6.90184C36.9658 6.86093 37.0312 6.8282 37.0884 6.78729C33.8279 7.41733 30.7799 8.75105 28.0342 10.6412ZM25.3866 10.6412H26.9719C28.1977 9.73292 29.4888 8.94742 30.8453 8.27647C31.8504 7.77735 32.8718 7.35187 33.9096 7.00003C30.8616 7.78553 28.0015 9.02106 25.3866 10.6412Z" fill="#2E3192"/>
<path d="M59.0292 10.7475C60.8106 11.9421 62.4694 13.3168 63.9975 14.8714C66.9148 17.8334 69.2028 21.2782 70.7963 25.1157C72.447 29.0841 73.2886 33.3062 73.2886 37.6592C73.2886 42.0121 72.447 46.226 70.7963 50.2026C69.1947 54.0402 66.9066 57.4849 63.9975 60.4469C61.0802 63.4089 57.689 65.7327 53.9056 67.3528C50.3101 68.8992 46.5103 69.742 42.596 69.8648C42.3591 69.8811 42.1221 69.8811 41.8851 69.8811C41.7707 69.8811 41.6645 69.8811 41.5501 69.8811C37.2682 69.8811 33.1088 69.0302 29.1946 67.3446C25.4111 65.7245 22.0199 63.4007 19.1027 60.4387C16.1854 57.4767 13.8973 54.032 12.3039 50.1945C10.6532 46.226 9.81152 42.004 9.81152 37.651C9.81152 33.298 10.6532 29.0841 12.3039 25.1075C13.9055 21.27 16.1936 17.8252 19.1027 14.8632C22.0199 11.9012 25.4111 9.57746 29.1946 7.95736C32.7901 6.41091 36.5899 5.56813 40.5041 5.44539C41.6481 5.24083 42.8249 5.26538 43.9689 5.51903C47.401 5.78087 50.735 6.5991 53.9056 7.95736C55.6379 8.70195 57.2968 9.59383 58.8576 10.633L59.0292 10.7475ZM56.0874 64.4726C54.8126 65.4299 53.4643 66.2645 52.0506 66.96C50.5634 67.6964 49.0353 68.2774 47.4745 68.6865C51.2825 67.9419 54.8453 66.4855 58.0241 64.4644H56.0874V64.4726ZM38.1343 64.4726C39.3519 67.1073 40.7329 68.5556 42.1221 68.5883V64.4726H38.1343ZM46.8535 64.4726C45.9791 66.4118 45.0148 67.7864 44.0016 68.531C44.7779 68.4492 45.546 68.3101 46.2978 68.1137C47.7769 67.2955 49.1742 66.0518 50.449 64.4644H46.8535V64.4726ZM42.7186 64.4726V68.5147C43.928 68.1792 45.1211 66.78 46.1916 64.4726H42.7186ZM25.0843 64.4726C28.0179 66.3382 31.2865 67.721 34.7676 68.5065C33.4357 68.1137 32.12 67.5982 30.8371 66.96C29.4234 66.2564 28.0751 65.4299 26.8003 64.4726H25.0843ZM37.2682 67.7946C38.2488 68.1219 39.2457 68.351 40.2671 68.4819C39.2702 67.7292 38.3305 66.3709 37.4724 64.4644H33.6563C34.7758 65.8636 35.9852 66.9928 37.2682 67.7946ZM27.8545 64.4726C30.6818 66.4527 33.8442 67.8437 37.2191 68.4738C37.1538 68.4328 37.0802 68.3919 37.0148 68.351C35.8136 67.9501 34.6287 67.4019 33.4765 66.7227C32.3979 66.0845 31.3601 65.3317 30.3713 64.4726H27.8545ZM51.2089 64.4726C50.3101 65.6427 49.3621 66.6327 48.3734 67.4346C50.1221 66.7309 51.7891 65.7327 53.3335 64.4726H51.2089ZM31.3274 64.4726C32.5286 65.4545 33.8034 66.2727 35.1354 66.9191C34.3591 66.2236 33.6154 65.4054 32.9045 64.4726H31.3274ZM54.2896 64.4726C53.3499 65.2827 52.3693 66.0027 51.3479 66.6245C52.6308 66.0191 53.8647 65.299 55.0333 64.4726H54.2896ZM24.4959 11.2467C15.9076 16.8843 10.4162 26.5148 10.4162 37.651C10.4162 48.7871 16.1118 58.5977 24.7084 64.2271V63.8671H26.0322C24.6675 62.7625 23.3928 61.5188 22.1997 60.1196C21.881 59.7432 21.5705 59.3668 21.2763 58.9823H19.0373V58.3768H20.8269C19.879 57.0922 19.0373 55.7339 18.2855 54.3184H15.5317V53.7129H17.975C15.5562 48.8853 14.2569 43.3622 14.2569 37.6101C14.2569 31.8088 15.5725 26.2448 18.0322 21.3845H14.7063V20.779H18.3509C19.1108 19.3553 19.9688 17.9971 20.9167 16.7206H18.1629V16.1151H21.3744C21.644 15.7715 21.9219 15.436 22.1997 15.1005C23.4336 13.6523 24.7656 12.3594 26.1874 11.2303H24.7084L24.4959 11.2467ZM56.8555 63.8753H58.9229C62.5675 61.3797 65.6645 58.1231 67.9853 54.3265H64.6104C63.8586 55.7503 63.0087 57.1085 62.069 58.385H64.4306V58.9905H61.6114C61.3091 59.375 60.9985 59.7596 60.688 60.1278C59.5031 61.5188 58.2202 62.7707 56.8555 63.8753ZM54.9515 63.8753H55.8586C57.6809 62.4843 59.3479 60.8478 60.8351 58.9905H59.021C58.8085 59.3096 58.5961 59.6205 58.3754 59.9314C57.3213 61.4042 56.1773 62.7216 54.9515 63.8753ZM51.6584 63.8753H54.0445C55.5971 62.5007 57.0271 60.856 58.2855 58.9905H54.4204C54.2079 59.4487 53.9955 59.8987 53.7748 60.3405C53.1129 61.6415 52.402 62.8198 51.6584 63.8753ZM47.115 63.8753H50.9148C51.9607 62.4761 52.9086 60.8315 53.7585 58.9905H48.6839C48.6185 59.2441 48.5532 59.4978 48.4878 59.7432C48.071 61.2979 47.6053 62.6807 47.115 63.8753ZM42.7186 63.8753H46.4531C46.976 62.6561 47.4582 61.2242 47.8994 59.5878C47.9485 59.3914 48.0057 59.195 48.0547 58.9905H42.7105V63.8753H42.7186ZM37.8647 63.8753H42.1221V58.9905H36.263C36.3121 59.1868 36.3693 59.3914 36.4183 59.5878C36.8596 61.216 37.3499 62.6561 37.8647 63.8753ZM33.1905 63.8753H37.211C36.7207 62.6807 36.2549 61.306 35.83 59.7432C35.7646 59.4978 35.6992 59.2441 35.6338 58.9905H30.3386C31.1966 60.8315 32.1446 62.4679 33.1905 63.8753ZM30.6165 63.8753H32.4551C31.7115 62.828 31.0005 61.6497 30.3386 60.3405C30.118 59.8987 29.8974 59.4487 29.6931 58.9905H26.3754C27.6338 60.8478 29.0557 62.4925 30.6165 63.8753ZM27.0291 63.8753H29.7012C28.4755 62.7298 27.3315 61.4124 26.2773 59.9314C26.0567 59.6205 25.8442 59.3096 25.6318 58.9905H22.0526C23.5398 60.8397 25.2069 62.4843 27.0291 63.8753ZM59.4051 58.385H61.3009C62.257 57.1167 63.1313 55.7584 63.9076 54.3265H61.5624C60.9332 55.7421 60.2141 57.1003 59.4051 58.385ZM54.6819 58.385H58.686C59.4949 57.1249 60.2386 55.7666 60.8923 54.3265H56.1773C55.736 55.7421 55.2375 57.1003 54.6819 58.385ZM48.8392 58.385H54.0281C54.5838 57.1167 55.0905 55.7584 55.5399 54.3265H49.6727C49.4275 55.7421 49.1497 57.1003 48.8392 58.385ZM42.7186 58.385H48.2181C48.5286 57.1085 48.8147 55.7503 49.0598 54.3265H42.7186V58.385ZM36.1078 58.385H42.1221V54.3265H35.2661C35.5113 55.7503 35.7973 57.1085 36.1078 58.385ZM30.0771 58.385H35.4867C35.1762 57.1085 34.8984 55.7503 34.6532 54.3265H28.5654C29.0148 55.7584 29.5215 57.1167 30.0771 58.385ZM25.975 58.385H29.4234C28.8677 57.1003 28.3693 55.7421 27.9362 54.3265H23.7686C24.4224 55.7584 25.1578 57.1167 25.975 58.385ZM21.5868 58.385H25.2477C24.4469 57.1003 23.7278 55.7421 23.0904 54.3265H18.9801C19.7564 55.7584 20.6307 57.1167 21.5868 58.385ZM64.9209 53.721H68.2141V53.9583C71.0496 49.1962 72.6839 43.6159 72.6839 37.651C72.6839 31.6861 71.0496 26.1057 68.2141 21.3436V21.3927H64.8555C67.3152 26.253 68.6308 31.817 68.6308 37.6182C68.639 43.3704 67.3479 48.8853 64.9209 53.721ZM61.832 53.721H64.2263C66.6451 49.0162 68.0343 43.5095 68.0343 37.6182C68.0343 31.6779 66.6206 26.1221 64.1609 21.3927H61.783C63.8668 26.2448 64.9699 31.8088 64.9699 37.6019C64.9781 43.3704 63.8831 48.8935 61.832 53.721ZM56.357 53.721H61.162C63.1967 49.0244 64.3734 43.5013 64.3734 37.6101C64.3734 31.6697 63.1804 26.1139 61.1129 21.4009H56.3325C57.7707 26.2694 58.5389 31.817 58.5389 37.6019C58.547 43.3459 57.7871 48.8689 56.357 53.721ZM49.7707 53.721H55.7197C57.1252 48.9917 57.9342 43.4768 57.9342 37.5937C57.9342 31.6779 57.117 26.1385 55.6951 21.3927H49.8279C50.5879 26.1876 50.9965 31.6615 50.9965 37.3646C51.0046 43.2231 50.5797 48.8362 49.7707 53.721ZM42.7186 53.721H49.166C49.975 48.8444 50.4081 43.2313 50.4081 37.3646C50.4081 31.6533 49.9995 26.1794 49.2314 21.3927H42.7268V53.721H42.7186ZM35.1681 53.721H42.1221V21.3927H35.1027C34.3345 26.1794 33.926 31.6533 33.926 37.3646C33.926 43.2313 34.3591 48.8444 35.1681 53.721ZM28.3774 53.721H34.547C33.7462 48.8362 33.3131 43.2231 33.3131 37.3646C33.3131 31.6615 33.7217 26.1876 34.4816 21.3927H28.3938C26.9719 26.1385 26.1548 31.6779 26.1548 37.5937C26.1629 43.4768 26.9719 48.9917 28.3774 53.721ZM23.499 53.721H27.7482C26.3182 48.8689 25.5582 43.3459 25.5582 37.5937C25.5582 31.8088 26.3264 26.2612 27.7646 21.3927H23.5398C21.4724 26.1139 20.2794 31.6697 20.2794 37.6019C20.2875 43.5013 21.4561 49.0162 23.499 53.721ZM18.6614 53.721H22.8289C20.7778 48.8935 19.6828 43.3704 19.6828 37.6101C19.6828 31.8088 20.7942 26.2448 22.8698 21.4009H18.7186C16.2671 26.1303 14.8452 31.6861 14.8452 37.6264C14.8534 43.5013 16.2426 49.0162 18.6614 53.721ZM64.545 20.7872H67.879C66.9393 19.2735 66.0241 18.0543 64.8474 16.7288H64.7003H61.9791C62.9352 18.0134 63.7932 19.3717 64.545 20.7872ZM61.5215 20.7872H63.8422C63.0578 19.3471 62.1752 17.9889 61.2028 16.7288H59.3397C60.1568 18.0134 60.876 19.3635 61.5215 20.7872ZM56.1528 20.7872H60.8433C60.1814 19.3471 59.4377 17.9889 58.6124 16.7288H54.6492C55.213 18.0134 55.7115 19.3717 56.1528 20.7872ZM49.738 20.7872H55.5235C55.0741 19.3553 54.5593 17.9971 54.0036 16.7288H48.9291C49.2314 18.0134 49.5011 19.3717 49.738 20.7872ZM42.7186 20.7872H49.1252C48.8882 19.3635 48.6104 18.0052 48.308 16.7288H42.7186V20.7872ZM35.2007 20.7872H42.1221V16.7288H36.0179C35.7155 18.0134 35.4377 19.3717 35.2007 20.7872ZM28.5899 20.7872H34.596C34.833 19.3635 35.1027 18.0052 35.405 16.7288H30.1098C29.546 17.9971 29.0393 19.3553 28.5899 20.7872ZM23.8095 20.7872H27.9525C28.3938 19.3717 28.8923 18.0134 29.4479 16.7288H26.0404C25.2232 17.9889 24.4796 19.3471 23.8095 20.7872ZM19.0455 20.7872H23.1394C23.785 19.3635 24.5041 18.0052 25.3131 16.7288H21.6767C20.7125 17.9971 19.8299 19.3553 19.0455 20.7872ZM61.5215 16.1233H64.3407C62.6492 14.2741 60.737 12.6376 58.6533 11.2385H56.7084C58.1303 12.3676 59.4623 13.6604 60.6962 15.1087C60.974 15.4442 61.2519 15.7797 61.5215 16.1233ZM58.9556 16.1233H60.737C59.2335 14.2659 57.5419 12.6213 55.6951 11.2385H54.8453C56.1119 12.4085 57.2886 13.7586 58.3754 15.2805C58.5716 15.5587 58.7677 15.8451 58.9556 16.1233ZM54.3877 16.1233H58.2202C56.9454 14.2577 55.5072 12.6131 53.9301 11.2385H51.6093C52.3775 12.3022 53.0966 13.505 53.7748 14.8387C53.9791 15.2642 54.1916 15.6896 54.3877 16.1233ZM48.782 16.1233H53.7258C52.8759 14.2823 51.9117 12.6376 50.8576 11.2385H47.262C47.6951 12.3431 48.1037 13.595 48.4878 14.9942C48.594 15.3624 48.6921 15.7387 48.782 16.1233ZM42.7186 16.1233H48.1609C48.0792 15.796 47.9975 15.4687 47.9076 15.1496C47.5072 13.6768 47.0741 12.3758 46.6165 11.2385H42.7186V16.1233ZM36.165 16.1233H42.1221V11.2385H37.7094C37.2518 12.3758 36.8187 13.6768 36.4183 15.1496C36.3284 15.4687 36.2467 15.796 36.165 16.1233ZM30.3795 16.1233H35.5439C35.642 15.7387 35.7401 15.3624 35.8381 14.9942C36.214 13.595 36.6226 12.3431 37.0639 11.2385H33.2477C32.1936 12.6376 31.2293 14.2823 30.3795 16.1233ZM26.4408 16.1233H29.7176C29.9137 15.6896 30.118 15.256 30.3305 14.8387C31.0087 13.505 31.7278 12.3022 32.4959 11.2385H30.7227C29.1537 12.6131 27.7155 14.2577 26.4408 16.1233ZM22.1588 16.1233H25.7053C25.8933 15.8369 26.0894 15.5587 26.2855 15.2805C27.3723 13.7586 28.549 12.4085 29.8156 11.2385H27.2007C25.3458 12.6213 23.6542 14.2659 22.1588 16.1233ZM55.9158 10.6412H57.7135C54.8535 8.87378 51.6992 7.55643 48.3407 6.79547C49.5991 7.18004 50.8412 7.67916 52.0506 8.27647C53.3908 8.93924 54.69 9.73292 55.9158 10.6412ZM54.1671 10.6412H54.8535C53.7912 9.90475 52.6716 9.25835 51.5195 8.70195C52.4347 9.26653 53.3172 9.91293 54.1671 10.6412ZM51.1599 10.6412H53.211C51.7237 9.44654 50.1303 8.49739 48.4551 7.81008C49.3948 8.57922 50.3019 9.52837 51.1599 10.6412ZM47.0169 10.6412H50.3918C49.166 9.12743 47.8259 7.93281 46.404 7.12277C45.8238 6.9673 45.2437 6.85275 44.6471 6.76274C45.4888 7.62189 46.2896 8.92287 47.0169 10.6412ZM42.7186 10.6412H46.3632C45.5051 8.68559 44.5654 7.32732 43.593 6.64819C43.307 6.62365 43.0128 6.60728 42.7268 6.5991V10.6412H42.7186ZM37.9627 10.6412H42.1221V6.59092C41.64 6.5991 41.166 6.62364 40.6921 6.67274C39.736 7.36824 38.8044 8.71832 37.9627 10.6412ZM33.7135 10.6412H37.309C38.0199 8.97197 38.7962 7.68735 39.6216 6.8282C38.7881 6.97548 37.9627 7.18004 37.1619 7.45824C35.9362 8.24374 34.784 9.31563 33.7135 10.6412ZM31.45 10.6412H32.9454C33.6154 9.76565 34.3182 8.99651 35.0455 8.33375C33.7952 8.94742 32.594 9.72474 31.45 10.6412ZM28.0342 10.6412H30.4939C31.45 9.82293 32.4469 9.11107 33.4847 8.49739C34.6042 7.83463 35.7401 7.30278 36.9086 6.90184C36.9658 6.86093 37.0312 6.8282 37.0884 6.78729C33.8279 7.41733 30.7799 8.75105 28.0342 10.6412ZM25.3866 10.6412H26.9719C28.1977 9.73292 29.4888 8.94742 30.8453 8.27647C31.8504 7.77735 32.8718 7.35187 33.9096 7.00003C30.8616 7.78553 28.0015 9.02106 25.3866 10.6412Z" stroke="#2E3192" stroke-width="0.4" mask="url(#path-1-outside-1_1034_4335)"/>
<path d="M12.9951 51.6516L22.5071 51.0216C28.6277 57.7476 35.1815 61.3888 40.9181 62.7798C49.3351 61.6506 56.0931 57.7312 62.0177 51.4389L70.9086 50.8088C64.7552 61.7406 55.2433 68.0411 42.3645 69.7104C30.2212 70.3977 20.4314 64.3754 12.9951 51.6516Z" fill="#2E3192"/>
<path d="M40.5598 69.9999C35.1746 69.9999 30.2225 68.6253 25.8016 65.9087C20.8985 62.8894 16.5266 58.1353 12.8003 51.7694L12.6123 51.4502L22.6064 50.7875L22.6799 50.8693C27.4686 56.1224 32.1592 59.15 36.0898 60.8846C39.1298 62.2266 42.5456 62.4639 45.7407 61.5392C51.6898 59.8209 56.9933 56.4416 61.8473 51.2784L61.9127 51.213L71.3266 50.5502L71.1141 50.9266C68.0334 56.4006 64.0537 60.7701 59.2896 63.9285C54.5254 67.087 48.846 69.108 42.3985 69.9427H42.3821C41.7774 69.9754 41.1645 69.9999 40.5598 69.9999ZM13.3968 51.8594C20.7269 64.2231 30.4677 70.1554 42.3576 69.4844C54.9422 67.8479 64.4133 61.6538 70.5094 51.0738L62.1333 51.663C59.0771 54.9033 55.931 57.3825 52.5233 59.2482C48.9277 61.2201 45.1442 62.4475 40.9602 63.0039L40.9194 63.0121L40.8785 63.0039C36.3513 61.8993 29.4789 58.9699 22.4266 51.2539L13.3968 51.8594Z" fill="#2E3192"/>
<path fill-rule="evenodd" clip-rule="evenodd" d="M9.85156 51.4787H75.6997V25.3685H9.85156V51.4787Z" fill="white"/>
<path d="M20.3008 56.6388L22.8096 54.0858L24.632 55.9269L24.3296 56.2296L22.8505 54.724L22.0823 55.5096L23.4634 56.917L23.1692 57.2116L21.7799 55.8041L20.93 56.6715L22.4664 58.2426L22.1722 58.5372L20.3008 56.6388Z" fill="white"/>
<path d="M23.7155 58.2323C23.503 58.486 23.3886 58.7233 23.3886 58.936C23.3886 59.1569 23.454 59.3206 23.6011 59.4515C23.7482 59.5825 23.9198 59.6316 24.1241 59.5988C24.3284 59.5661 24.5327 59.427 24.737 59.1897C24.9658 58.9197 25.0884 58.6742 25.0884 58.4614C25.0884 58.2405 25.023 58.0686 24.8759 57.9377C24.7288 57.8068 24.5572 57.7577 24.3447 57.7904C24.1486 57.8313 23.9361 57.9786 23.7155 58.2323ZM23.9116 60.1389L24.1241 59.8852C23.838 59.967 23.5684 59.9098 23.3314 59.697C23.1761 59.5579 23.0699 59.3943 23.0127 59.1897C22.9555 58.9851 22.9636 58.7805 23.0208 58.5596C23.0862 58.3387 23.2006 58.1259 23.3722 57.9295C23.5439 57.7332 23.7318 57.5859 23.9279 57.4795C24.1322 57.3731 24.3284 57.3404 24.5327 57.3731C24.737 57.3977 24.9168 57.4877 25.0802 57.6268C25.1946 57.7331 25.2763 57.8477 25.3254 57.9786C25.3744 58.1096 25.3989 58.2405 25.3826 58.3714L26.2243 57.3895L26.5512 57.6841L24.2221 60.4089L23.9116 60.1389Z" fill="white"/>
<path d="M26.2201 61.9414L26.4407 61.6305C26.1056 61.7532 25.8033 61.7041 25.5254 61.5077C25.4028 61.4177 25.3048 61.3113 25.2312 61.1804C25.1577 61.0577 25.125 60.9349 25.125 60.8286C25.125 60.7222 25.1577 60.6076 25.2067 60.4849C25.2476 60.4031 25.313 60.2885 25.4274 60.133L26.3672 58.8238L26.7186 59.0856L25.885 60.2558C25.7542 60.444 25.6644 60.5749 25.6317 60.6485C25.5908 60.7631 25.5826 60.8695 25.6153 60.9758C25.648 61.0822 25.7216 61.1722 25.8278 61.2541C25.934 61.3277 26.0566 61.3768 26.1874 61.3932C26.3181 61.4013 26.4407 61.3768 26.5469 61.3113C26.6532 61.2377 26.7676 61.1231 26.8983 60.9349L27.7074 59.8057L28.0588 60.0676L26.5469 62.1869L26.2201 61.9414Z" fill="white"/>
<path d="M29.1484 62.707L29.4752 62.9852C29.2791 63.2143 29.0585 63.3452 28.8051 63.3861C28.5518 63.4188 28.3066 63.3698 28.0696 63.2143C27.7673 63.0261 27.5875 62.7724 27.5303 62.4615C27.4731 62.1423 27.5548 61.8068 27.7836 61.4304C27.9307 61.1931 28.0942 61.0131 28.2821 60.8822C28.4701 60.7513 28.6744 60.694 28.8869 60.7022C29.0993 60.7104 29.3036 60.784 29.4916 60.8986C29.7286 61.0458 29.8838 61.2341 29.9574 61.455C30.0391 61.6677 30.0228 61.905 29.9329 62.1587L29.5406 61.9869C29.5978 61.815 29.606 61.6677 29.5651 61.5368C29.5243 61.4059 29.4426 61.2995 29.32 61.2259C29.132 61.1031 28.9359 61.0786 28.7398 61.144C28.5436 61.2013 28.3475 61.3813 28.1677 61.6759C27.9798 61.9787 27.9062 62.2242 27.9389 62.4287C27.9716 62.6333 28.0778 62.797 28.2576 62.9115C28.4047 63.0015 28.5518 63.0343 28.7071 63.0015C28.8623 62.977 29.0094 62.8788 29.1484 62.707Z" fill="white"/>
<path d="M31.5332 63.5132C31.3616 63.505 31.1246 63.4559 30.8141 63.3577C30.6425 63.3004 30.5117 63.2759 30.43 63.2677C30.3483 63.2677 30.2747 63.2841 30.2094 63.325C30.1521 63.3659 30.1031 63.415 30.0704 63.4886C30.0214 63.595 30.0214 63.7014 30.0704 63.8159C30.1195 63.9223 30.2175 64.0123 30.3728 64.086C30.5281 64.1596 30.6752 64.1923 30.8223 64.176C30.9775 64.1678 31.1001 64.1105 31.2145 64.0205C31.2962 63.955 31.3861 63.8323 31.4679 63.6523L31.5332 63.5132ZM31.1491 64.4214C30.9448 64.4787 30.7651 64.5033 30.6016 64.4869C30.4463 64.4705 30.2829 64.4296 30.1276 64.356C29.8743 64.2333 29.7027 64.0778 29.621 63.8814C29.5392 63.6932 29.5474 63.4968 29.6373 63.3004C29.6863 63.1859 29.7681 63.0877 29.858 63.0222C29.956 62.9486 30.0623 62.9076 30.1685 62.8831C30.2829 62.8667 30.3973 62.8667 30.5117 62.8831C30.6016 62.8995 30.7324 62.9322 30.8876 62.9895C31.2309 63.104 31.4842 63.1695 31.664 63.1859C31.6885 63.1286 31.7048 63.0959 31.713 63.0795C31.7866 62.9158 31.8029 62.7849 31.7539 62.6867C31.6967 62.5476 31.5659 62.433 31.3698 62.3348C31.1818 62.2448 31.0347 62.2121 30.9122 62.2367C30.7896 62.2612 30.667 62.343 30.5526 62.4985L30.193 62.2612C30.3074 62.1057 30.43 61.9994 30.5526 61.9421C30.6833 61.8766 30.8304 61.8521 31.0184 61.8684C31.1982 61.8848 31.3861 61.9421 31.5904 62.0403C31.7866 62.1303 31.9418 62.2367 32.0399 62.343C32.1461 62.4494 32.2115 62.5476 32.236 62.654C32.2605 62.7522 32.2605 62.8667 32.236 62.9895C32.2197 63.0631 32.1625 63.1859 32.0808 63.3659L31.8356 63.8978C31.664 64.266 31.5659 64.5115 31.5332 64.6097C31.5087 64.716 31.4924 64.8306 31.5005 64.9451L31.0838 64.7488C31.0919 64.6506 31.1083 64.536 31.1491 64.4214Z" fill="white"/>
<path d="M33.1444 65.1552L33.0626 65.5398C32.9401 65.5153 32.8338 65.4907 32.7439 65.458C32.5968 65.4007 32.4906 65.3352 32.4252 65.2534C32.3598 65.1716 32.3271 65.0898 32.3271 64.9997C32.3271 64.9097 32.368 64.7379 32.4579 64.4924L32.9891 63.085L32.6867 62.9704L32.8093 62.6513L33.1117 62.7658L33.3405 62.1603L33.839 62.0703L33.5203 62.9213L33.9289 63.0768L33.8063 63.3959L33.3977 63.2404L32.8583 64.6724C32.8175 64.787 32.793 64.8688 32.793 64.9097C32.793 64.9506 32.8093 64.9834 32.8338 65.0243C32.8583 65.057 32.8992 65.0816 32.9646 65.1061C33.0054 65.1143 33.0708 65.1307 33.1444 65.1552Z" fill="white"/>
<path d="M33.4961 65.6907L34.2888 63.2032L34.7056 63.3423L33.9129 65.8298L33.4961 65.6907ZM34.444 62.7449L34.5993 62.2621L35.0161 62.4012L34.8608 62.884L34.444 62.7449Z" fill="white"/>
<path d="M35.2294 64.8585C35.1476 65.1776 35.1558 65.4395 35.2457 65.644C35.3438 65.8404 35.4909 65.9632 35.7033 66.0286C35.9158 66.0859 36.112 66.0532 36.2917 65.9304C36.4715 65.8077 36.6104 65.5868 36.7003 65.2513C36.7821 64.9403 36.7739 64.6785 36.6758 64.4821C36.5778 64.2857 36.4307 64.163 36.2182 64.1057C36.0057 64.0484 35.8178 64.0811 35.6298 64.2039C35.45 64.3184 35.3111 64.5394 35.2294 64.8585ZM34.7963 64.7439C34.9188 64.2775 35.1395 63.9748 35.45 63.8193C35.7197 63.6884 35.9975 63.6638 36.3081 63.7456C36.6513 63.8356 36.9046 64.0238 37.0599 64.3102C37.2152 64.5966 37.2397 64.9403 37.1416 65.3413C37.0517 65.6686 36.9373 65.9059 36.7984 66.0695C36.6513 66.2332 36.4797 66.3396 36.2672 66.3887C36.0547 66.4378 35.8423 66.4378 35.6216 66.3805C35.2784 66.2823 35.0251 66.0941 34.8698 65.8077C34.7064 65.5213 34.6818 65.1694 34.7963 64.7439Z" fill="white"/>
<path d="M37.5312 66.7145L37.85 64.1205L38.2422 64.1696L38.2014 64.5379C38.422 64.276 38.708 64.1696 39.0676 64.2106C39.2229 64.2269 39.3618 64.276 39.4844 64.3497C39.607 64.4233 39.6968 64.5051 39.7459 64.6033C39.8031 64.7015 39.8276 64.8161 39.8358 64.947C39.8439 65.0288 39.8358 65.1761 39.8113 65.3725L39.6151 66.9681L39.182 66.9109L39.37 65.3316C39.3945 65.1516 39.3945 65.0125 39.37 64.9225C39.3454 64.8324 39.2964 64.7506 39.2147 64.6933C39.1411 64.6279 39.0431 64.587 38.9205 64.5788C38.7407 64.5542 38.5773 64.5952 38.422 64.7015C38.2749 64.7997 38.1768 65.0206 38.136 65.348L37.9644 66.7636L37.5312 66.7145Z" fill="white"/>
<path d="M42.123 65.7203C41.9678 65.7858 41.7226 65.8431 41.4121 65.884C41.2323 65.9085 41.1015 65.9413 41.028 65.974C40.9544 66.0067 40.8972 66.0558 40.8564 66.1213C40.8155 66.1786 40.7992 66.2522 40.7992 66.3259C40.7992 66.4486 40.84 66.5386 40.9299 66.6204C41.0116 66.6941 41.1424 66.735 41.314 66.735C41.4856 66.735 41.6327 66.7023 41.7635 66.6204C41.8942 66.5468 41.9923 66.4486 42.0495 66.3095C42.0985 66.2113 42.123 66.0722 42.123 65.8676V65.7203ZM42.1557 66.7023C41.9923 66.8414 41.837 66.9396 41.6899 66.9969C41.5428 67.0541 41.3794 67.0787 41.2078 67.0787C40.9218 67.0787 40.7093 67.005 40.554 66.8659C40.3987 66.7268 40.3252 66.5468 40.3252 66.3341C40.3252 66.2113 40.3579 66.0886 40.4069 65.9822C40.4641 65.8758 40.5377 65.794 40.6357 65.7285C40.7338 65.6631 40.8319 65.614 40.9463 65.5812C41.0362 65.5649 41.1669 65.5321 41.3304 65.5158C41.6899 65.4749 41.9433 65.4258 42.1149 65.3685V65.2539C42.1149 65.0739 42.074 64.943 41.9923 64.8775C41.8861 64.7793 41.7144 64.722 41.4938 64.722C41.2813 64.722 41.1342 64.7548 41.0362 64.8366C40.9381 64.9102 40.8646 65.0412 40.8155 65.2212L40.3906 65.1639C40.4314 64.9757 40.4968 64.8284 40.5867 64.7139C40.6766 64.5993 40.8073 64.5093 40.9708 64.4438C41.1424 64.3865 41.3304 64.3538 41.5592 64.3538C41.7798 64.3538 41.9596 64.3784 42.0985 64.4356C42.2375 64.4847 42.3355 64.5502 42.4009 64.632C42.4663 64.7139 42.5071 64.8121 42.5398 64.9348C42.5562 65.0084 42.5562 65.1475 42.5562 65.3439V65.9331C42.5562 66.3422 42.5643 66.6041 42.5807 66.7105C42.597 66.825 42.6379 66.9314 42.6869 67.0296H42.2293C42.1966 66.9314 42.1721 66.825 42.1557 66.7023Z" fill="white"/>
<path d="M43.3428 67.0103L43.0322 63.4181L43.4653 63.3772L43.7759 66.9776L43.3428 67.0103Z" fill="white"/>
<path d="M46.1511 65.2074L47.3361 64.9701L46.7804 64.0618C46.6088 63.7836 46.478 63.5545 46.3881 63.3663C46.38 63.6118 46.3554 63.8491 46.3228 64.0864L46.1511 65.2074ZM45.4238 66.8603L46.0858 63.0553L46.5924 62.9572L48.6926 66.2139L48.1696 66.3203L47.5567 65.3302L46.0939 65.6165L45.9223 66.7621L45.4238 66.8603Z" fill="white"/>
<path d="M50.4948 64.5954L50.9197 64.5218C50.9688 64.8163 50.9198 65.0782 50.789 65.2991C50.6582 65.5201 50.4539 65.6755 50.1924 65.7655C49.8574 65.8801 49.555 65.8555 49.2772 65.7001C48.9993 65.5446 48.795 65.2582 48.6643 64.8409C48.5825 64.579 48.5499 64.3254 48.5744 64.0962C48.5989 63.8671 48.6806 63.6707 48.8277 63.5071C48.9748 63.3516 49.1546 63.2371 49.3671 63.1634C49.6286 63.0734 49.8737 63.0734 50.0862 63.1552C50.2987 63.2371 50.4703 63.3925 50.601 63.6298L50.217 63.8262C50.1271 63.6707 50.0127 63.5726 49.8901 63.5153C49.7675 63.4662 49.6367 63.458 49.4978 63.5071C49.2853 63.5807 49.1382 63.7117 49.0647 63.908C48.983 64.1044 48.9911 64.3581 49.0974 64.6936C49.2036 65.0291 49.3425 65.25 49.5223 65.3564C49.6939 65.4628 49.8901 65.4873 50.0862 65.4219C50.2496 65.3728 50.364 65.2746 50.4458 65.1355C50.5111 64.9882 50.5275 64.8163 50.4948 64.5954Z" fill="white"/>
<path d="M52.6741 63.3536C52.5515 63.4764 52.3472 63.6155 52.0694 63.7791C51.9141 63.8692 51.8079 63.951 51.7425 64.0001C51.6853 64.0574 51.6444 64.1228 51.6363 64.2046C51.6199 64.2783 51.6281 64.3519 51.6608 64.4174C51.7016 64.532 51.7834 64.5974 51.8978 64.6383C52.004 64.6792 52.1348 64.6629 52.2982 64.5974C52.4535 64.532 52.576 64.4419 52.6741 64.3274C52.7722 64.2046 52.8212 64.0737 52.8294 63.9346C52.8375 63.8282 52.813 63.681 52.7395 63.5009L52.6741 63.3536ZM53.0745 64.2537C52.9765 64.4501 52.8702 64.5974 52.7558 64.7038C52.6414 64.8102 52.4943 64.9002 52.3391 64.9656C52.0775 65.072 51.8487 65.0884 51.6526 65.0147C51.4565 64.9493 51.3257 64.8102 51.244 64.6056C51.195 64.491 51.1786 64.3683 51.195 64.2537C51.2113 64.131 51.2522 64.0246 51.3094 63.9264C51.3748 63.8282 51.4565 63.7464 51.5464 63.6728C51.6199 63.6237 51.7343 63.55 51.8814 63.4682C52.2001 63.2964 52.4208 63.1491 52.5515 63.0263C52.527 62.969 52.5107 62.9363 52.5107 62.92C52.4453 62.7481 52.3636 62.6499 52.2573 62.6172C52.1184 62.5681 51.9468 62.5845 51.7425 62.6663C51.5464 62.7481 51.4238 62.8381 51.3584 62.9445C51.293 63.0509 51.2685 63.1982 51.3012 63.3864L50.8844 63.4928C50.8517 63.3045 50.8599 63.1409 50.9008 63.0018C50.9416 62.8627 51.0315 62.7318 51.1623 62.609C51.293 62.4863 51.4646 62.3881 51.6689 62.2981C51.8732 62.2162 52.0449 62.1671 52.192 62.1671C52.3391 62.159 52.4535 62.1835 52.5434 62.2326C52.6332 62.2817 52.715 62.3635 52.7803 62.4617C52.8212 62.5272 52.8784 62.6499 52.952 62.8299L53.1726 63.3782C53.3197 63.7546 53.4259 64.0001 53.4831 64.0901C53.5403 64.1883 53.6139 64.2701 53.7038 64.3438L53.2788 64.5156C53.1971 64.4583 53.1317 64.3683 53.0745 64.2537Z" fill="white"/>
<path d="M53.9598 62.727C54.1069 63.0216 54.2867 63.218 54.4828 63.2998C54.6789 63.3816 54.8669 63.3816 55.0303 63.2916C55.2019 63.2016 55.3164 63.0543 55.3654 62.8579C55.4144 62.6534 55.3654 62.4161 55.2183 62.1215C55.0549 61.8023 54.8832 61.5978 54.6871 61.516C54.491 61.4341 54.303 61.4341 54.1314 61.5241C53.9516 61.6142 53.8454 61.7614 53.8045 61.966C53.7555 62.1706 53.8127 62.4242 53.9598 62.727ZM55.774 63.2589L55.6269 62.9643C55.5942 63.2671 55.4389 63.4962 55.1611 63.6435C54.9813 63.7417 54.7852 63.7744 54.5809 63.7498C54.3766 63.7253 54.1886 63.6435 54.0088 63.5044C53.829 63.3653 53.6819 63.1771 53.5594 62.9398C53.445 62.7025 53.3796 62.4733 53.3551 62.2442C53.3387 62.0151 53.3796 61.8105 53.4776 61.6387C53.5839 61.4587 53.7228 61.3196 53.9108 61.2214C54.0497 61.1477 54.1886 61.115 54.3194 61.1232C54.4583 61.1232 54.589 61.1559 54.7035 61.2214L54.1232 60.0594L54.5155 59.8549L56.1336 63.0707L55.774 63.2589Z" fill="white"/>
<path d="M56.3233 61.1474L57.5246 60.3537C57.3856 60.1818 57.2549 60.0755 57.1241 60.0264C56.9198 59.9609 56.7237 59.9855 56.5357 60.1082C56.3723 60.2146 56.2661 60.37 56.2252 60.5582C56.1762 60.7546 56.2089 60.951 56.3233 61.1474ZM57.9005 60.951L58.3091 60.7546C58.3908 61.0165 58.3908 61.262 58.3091 61.4911C58.2273 61.7202 58.0639 61.9166 57.8106 62.0802C57.4919 62.293 57.1813 62.3584 56.8708 62.2766C56.5602 62.203 56.2906 61.9902 56.0618 61.6302C55.8248 61.262 55.7349 60.9183 55.7921 60.591C55.8493 60.2637 56.0291 60.0018 56.3233 59.8054C56.6093 59.6172 56.9116 59.56 57.2222 59.6418C57.5327 59.7154 57.8024 59.9364 58.0312 60.3046C58.0476 60.3291 58.0639 60.3619 58.0966 60.4028L56.4867 61.4665C56.6501 61.6956 56.8381 61.8348 57.0424 61.892C57.2467 61.9411 57.4347 61.9002 57.6144 61.7857C57.7452 61.6956 57.8351 61.5893 57.8841 61.4502C57.9413 61.3111 57.9495 61.1474 57.9005 60.951Z" fill="white"/>
<path d="M59.3217 61.0592L57.7363 58.9971L58.0469 58.7516L58.2675 59.038C58.2512 58.8907 58.2757 58.7434 58.3329 58.5962C58.3901 58.457 58.4882 58.3261 58.6189 58.2197C58.766 58.1052 58.9131 58.0315 59.0602 58.0234C59.2073 58.007 59.3381 58.0397 59.4688 58.1297C59.4443 57.7615 59.5587 57.4751 59.8202 57.2705C60.0245 57.1069 60.2206 57.0414 60.4168 57.0742C60.6129 57.0987 60.8008 57.2296 60.9806 57.4669L62.0675 58.8825L61.7243 59.1526L60.7273 57.8515C60.6211 57.7124 60.5312 57.6224 60.4576 57.5815C60.3922 57.5406 60.3105 57.5242 60.2206 57.5324C60.1307 57.5406 60.049 57.5733 59.9673 57.6388C59.8284 57.7533 59.7385 57.8924 59.7221 58.0643C59.7058 58.2361 59.7712 58.4243 59.9428 58.6371L60.8662 59.8317L60.523 60.1018L59.4933 58.7598C59.3707 58.6043 59.2563 58.5143 59.1419 58.4816C59.0275 58.4489 58.9049 58.4816 58.7824 58.588C58.6925 58.6616 58.6189 58.7598 58.5781 58.8825C58.5372 58.9971 58.5372 59.1198 58.5699 59.2508C58.6107 59.3817 58.7006 59.5372 58.8477 59.7254L59.6731 60.7973L59.3217 61.0592Z" fill="white"/>
<path d="M63.2913 59.1094L62.9889 58.8394C63.0788 58.7903 63.1442 58.7494 63.2014 58.7003C63.2749 58.6348 63.3239 58.5693 63.3403 58.5039C63.3648 58.4384 63.373 58.3729 63.3566 58.3075C63.3485 58.2502 63.3076 58.1438 63.234 57.972C63.2259 57.9474 63.2095 57.9147 63.1932 57.8656L60.7334 56.5809L61.0766 56.2618L62.474 57.0228C62.6538 57.121 62.8336 57.2274 63.0134 57.3419C62.9235 57.1619 62.8336 56.9737 62.7601 56.7855L62.1635 55.2799L62.4904 54.9853L63.5201 57.6201C63.6263 57.9065 63.6999 58.1111 63.7244 58.2257C63.7652 58.3811 63.7652 58.5202 63.7407 58.6512C63.708 58.7657 63.6426 58.8721 63.5446 58.9703C63.4792 59.0112 63.3893 59.0603 63.2913 59.1094Z" fill="white"/>
<path d="M10.6037 21.2202C10.7345 21.0565 10.8325 20.9092 10.8897 20.7947C10.9715 20.6146 11.0123 20.4264 11.0042 20.2382C10.996 20.05 10.9306 19.8782 10.8244 19.7145C10.71 19.5591 10.571 19.4363 10.4076 19.3627C10.236 19.2809 10.0725 19.2727 9.92544 19.33C9.77834 19.3872 9.65576 19.5182 9.5577 19.7309C9.50866 19.8455 9.45963 19.9928 9.4106 20.1646L10.6037 21.2202ZM8.75684 20.9338L9.38608 19.5591C9.54952 19.199 9.75383 18.9699 9.98264 18.8635C10.2196 18.7572 10.4485 18.7572 10.6691 18.8635C10.8407 18.9454 10.9878 19.0845 11.1022 19.2727C11.2085 19.4691 11.2738 19.6982 11.2657 19.9682C11.2657 20.2464 11.2085 20.5083 11.094 20.7701C11.0205 20.9256 10.8979 21.122 10.7263 21.3429L11.5925 22.1039C11.7723 22.2676 11.8949 22.3657 11.9603 22.3903C12.0093 22.4148 12.0665 22.4148 12.1155 22.3821C12.1728 22.3494 12.2381 22.2512 12.328 22.0794L12.4097 22.153L11.7805 23.5195L11.6988 23.4459C11.7805 23.2659 11.8132 23.1186 11.7805 23.0204C11.7478 22.914 11.6089 22.7585 11.3719 22.5458L9.68028 21.0401C9.47598 20.8601 9.32888 20.7537 9.24716 20.7128C9.18995 20.6883 9.12458 20.6883 9.06737 20.7128C9.002 20.7374 8.92845 20.8438 8.84673 20.9992L8.75684 20.9338Z" fill="#2E3192"/>
<path d="M12.6974 18.8602C12.8118 18.5984 12.8854 18.3692 12.9099 18.181C12.9426 17.9192 12.9262 17.6983 12.8608 17.5264C12.7955 17.3464 12.7137 17.2237 12.5993 17.1582C12.5258 17.1173 12.4604 17.1009 12.395 17.1255C12.3215 17.1418 12.2643 17.1991 12.2152 17.2728C12.1172 17.4446 12.1008 17.6737 12.158 17.9683C12.2316 18.271 12.4032 18.5656 12.6974 18.8602ZM12.8036 18.9584C12.8772 19.0157 12.9426 19.0648 12.9916 19.0975C13.1387 19.1875 13.2858 19.2121 13.4492 19.1711C13.6127 19.1302 13.7352 19.032 13.8251 18.8848C13.8987 18.762 13.9395 18.6393 13.9559 18.5002C13.9722 18.3611 13.9641 18.1319 13.9314 17.8128L14.0294 17.8046C14.1847 18.4265 14.1602 18.9011 13.9477 19.253C13.8088 19.4903 13.629 19.6212 13.4084 19.6539C13.1877 19.6785 12.9916 19.6457 12.8118 19.5312C12.5748 19.3839 12.3705 19.163 12.2071 18.8602C12.0436 18.5574 11.9537 18.2547 11.9537 17.9437C11.9456 17.6328 12.0191 17.3628 12.158 17.1255C12.2643 16.9536 12.3705 16.8472 12.4849 16.8063C12.6075 16.7654 12.7137 16.7736 12.8036 16.8309C12.9344 16.9127 13.0325 17.0436 13.0978 17.2318C13.1714 17.4691 13.1795 17.7637 13.1142 18.0992C13.0651 18.312 12.9671 18.5984 12.8036 18.9584Z" fill="#2E3192"/>
<path d="M12.8848 16.1594L13.3097 15.2675L14.2168 16.3967C13.939 15.7912 13.7919 15.3166 13.7592 14.9566C13.7428 14.752 13.7592 14.6211 13.8164 14.5393C13.8491 14.4902 13.8899 14.4574 13.9471 14.4493C13.9962 14.4411 14.0452 14.4574 14.1024 14.4983C14.2086 14.572 14.2822 14.6702 14.3394 14.7847C14.3884 14.8666 14.3803 14.9484 14.3394 15.0139C14.3149 15.0548 14.2822 15.0711 14.2413 15.0875C14.2005 15.0957 14.1514 15.0793 14.1024 15.0548C14.0779 15.0384 14.0452 15.0302 14.0289 15.0302C14.0043 15.0384 13.988 15.0466 13.9798 15.063C13.9635 15.0875 13.9471 15.1202 13.9471 15.153C13.939 15.2102 13.9553 15.3084 13.9962 15.4639C14.0615 15.7012 14.1596 15.9794 14.2985 16.2986C14.3557 16.4295 14.4375 16.5686 14.5273 16.7077C14.6581 16.8959 14.7316 17.0104 14.7643 17.0432L15.0095 17.3296L14.7643 17.6814L13.6039 16.2576C13.4732 16.094 13.3669 15.9876 13.2934 15.9303C13.2689 15.914 13.2362 15.9058 13.1953 15.914C13.1463 15.9303 13.1136 15.9631 13.0809 16.0122C13.0646 16.0367 13.0237 16.1022 12.9828 16.1922L12.8848 16.1594Z" fill="#2E3192"/>
<path d="M15.0759 12.9492L15.1903 13.1047L14.9451 13.4402L15.7378 14.4794C16.0811 14.9294 16.3344 15.3059 16.4815 15.6004C16.7021 16.0178 16.8084 16.3614 16.8002 16.6396C16.792 16.8606 16.7348 17.0324 16.6368 17.1715C16.5714 17.2615 16.4815 17.3188 16.3834 17.3434C16.3099 17.3597 16.2527 17.3515 16.1873 17.3024C16.1383 17.2615 16.1056 17.2124 16.0974 17.147C16.0974 17.0815 16.1137 17.0161 16.1546 16.967C16.1873 16.926 16.22 16.9015 16.269 16.8933C16.318 16.8851 16.3589 16.8933 16.3916 16.9179C16.4325 16.9424 16.4488 16.9833 16.4488 17.0324C16.457 17.0733 16.457 17.0979 16.4733 17.1061C16.4897 17.1142 16.4978 17.1224 16.5142 17.1142C16.5305 17.1061 16.555 17.0897 16.5795 17.057C16.6286 16.9915 16.6613 16.9097 16.6694 16.8033C16.6776 16.7051 16.6694 16.5905 16.6286 16.476C16.5877 16.3614 16.5142 16.2223 16.3916 16.0587C16.3426 15.985 16.1791 15.7641 15.9013 15.404L14.6918 13.792L14.3649 14.2339L14.2423 14.0866C14.3486 13.9475 14.4058 13.8411 14.4303 13.7757C14.4548 13.7102 14.4548 13.6284 14.4466 13.5466C14.4303 13.4647 14.3813 13.342 14.2995 13.1702C14.1851 12.941 14.1034 12.7528 14.0626 12.6056C14.0135 12.3928 13.989 12.2046 14.0135 12.0328C14.0299 11.8609 14.0789 11.73 14.1606 11.6236C14.2423 11.5091 14.3322 11.4436 14.4466 11.4272C14.5611 11.4027 14.6428 11.4191 14.7081 11.4681C14.7654 11.5091 14.7899 11.5582 14.8062 11.6236C14.8144 11.6891 14.8062 11.7464 14.7654 11.8036C14.7327 11.8527 14.6918 11.8773 14.6346 11.8855C14.5856 11.8936 14.5447 11.8773 14.5038 11.8527C14.4793 11.8364 14.4548 11.8036 14.4385 11.7545C14.414 11.7054 14.3976 11.6809 14.3813 11.6727C14.3649 11.6563 14.3404 11.6482 14.3241 11.6563C14.2995 11.6645 14.2669 11.6809 14.2423 11.7136C14.177 11.8036 14.1524 11.9018 14.1606 12.0246C14.177 12.18 14.2423 12.3601 14.3649 12.5728C14.4303 12.6792 14.5856 12.9165 14.8471 13.2847L15.0759 12.9492Z" fill="#2E3192"/>
<path d="M17.0874 11.6244C16.9566 11.5098 16.8259 11.4444 16.7033 11.4444C16.5807 11.4444 16.4663 11.4935 16.3764 11.5998C16.1966 11.8044 16.1721 12.1317 16.3192 12.5736C16.4581 13.0236 16.6788 13.3755 16.973 13.6455C17.1037 13.7683 17.2426 13.8255 17.3734 13.8255C17.5041 13.8255 17.6185 13.7764 17.7084 13.6701C17.8801 13.4737 17.9046 13.1546 17.7575 12.7127C17.6104 12.2626 17.3897 11.9026 17.0874 11.6244ZM17.545 11.4116C17.7493 11.5998 17.9127 11.8535 18.019 12.1481C18.1252 12.4508 18.1497 12.7536 18.1007 13.0645C18.0435 13.3755 17.9373 13.621 17.7656 13.8092C17.594 13.9974 17.3979 14.1038 17.1609 14.1119C16.9321 14.1201 16.7196 14.0383 16.5235 13.8583C16.3192 13.6701 16.1639 13.4164 16.0577 13.1136C15.9596 12.8027 15.9351 12.4918 15.9923 12.189C16.0495 11.878 16.1557 11.6326 16.3192 11.4525C16.4826 11.2643 16.6788 11.1743 16.9076 11.158C17.1364 11.1498 17.3407 11.2316 17.545 11.4116Z" fill="#2E3192"/>
<path d="M17.5664 10.3258L18.163 9.54847L18.8167 10.8413C18.6696 10.1867 18.6206 9.69576 18.6615 9.33572C18.686 9.13115 18.735 9.00023 18.8004 8.93476C18.8494 8.89385 18.8903 8.8693 18.9475 8.87748C18.9965 8.87748 19.0455 8.91021 19.0946 8.95931C19.1845 9.0575 19.2335 9.16388 19.2662 9.2948C19.2989 9.38481 19.2744 9.46664 19.2172 9.52392C19.1845 9.55665 19.1518 9.57302 19.1028 9.57302C19.0619 9.57302 19.021 9.54847 18.972 9.51574C18.9475 9.49119 18.923 9.48301 18.9066 9.48301C18.8821 9.48301 18.8658 9.49119 18.8494 9.49937C18.8249 9.52392 18.8086 9.54847 18.8004 9.5812C18.7759 9.6303 18.7759 9.73667 18.784 9.90033C18.8004 10.1458 18.8412 10.4322 18.9066 10.7841C18.9393 10.9232 18.9802 11.0786 19.0455 11.2341C19.1354 11.4469 19.1845 11.5778 19.209 11.6105L19.3888 11.9378L19.0782 12.2324L18.2447 10.5795C18.1466 10.3913 18.0731 10.2604 18.0077 10.1949C17.9832 10.1704 17.9587 10.154 17.9178 10.154C17.8688 10.1622 17.8279 10.1867 17.7871 10.2195C17.7625 10.244 17.7135 10.2931 17.6563 10.3749L17.5664 10.3258Z" fill="#2E3192"/>
<path d="M20.1092 7.80783L20.5914 9.05979C20.5423 8.71612 20.526 8.44608 20.526 8.25788C20.526 7.95512 20.5668 7.70964 20.6404 7.52143C20.6812 7.40688 20.7466 7.31687 20.8365 7.2514C20.9101 7.19413 20.9918 7.16958 21.0817 7.18594C21.1716 7.20231 21.2451 7.24322 21.3023 7.32505C21.3595 7.39869 21.4086 7.50507 21.4658 7.66054L21.7191 8.36426C21.6292 7.70146 21.6292 7.18594 21.7191 6.8259C21.7681 6.62133 21.858 6.48223 21.9806 6.38403C22.0542 6.32675 22.1359 6.31039 22.2176 6.32675C22.2993 6.34312 22.381 6.40858 22.4709 6.51496C22.5363 6.60497 22.5935 6.70316 22.6344 6.8259L23.0103 7.92239C23.092 8.15969 23.141 8.29061 23.1574 8.31516C23.1737 8.33971 23.1982 8.34789 23.2146 8.35608C23.2309 8.35608 23.2473 8.35608 23.2554 8.34789C23.2718 8.33971 23.28 8.30698 23.2963 8.2497C23.329 8.12696 23.329 7.97967 23.3126 7.8242L23.4189 7.81601C23.4271 7.90602 23.4189 8.03695 23.4107 8.2006C23.4025 8.38062 23.378 8.51155 23.3372 8.59337C23.3045 8.68339 23.2554 8.74066 23.1982 8.78976C23.1492 8.83067 23.092 8.83886 23.0266 8.83067C22.9694 8.82249 22.9204 8.78976 22.8795 8.74067C22.8305 8.66702 22.7488 8.49518 22.6589 8.21697L22.3483 7.3005C22.2748 7.09593 22.2339 6.97319 22.2176 6.95683C22.2094 6.92409 22.1849 6.89136 22.1604 6.86681C22.1359 6.8259 22.095 6.80135 22.0705 6.80135C22.0378 6.79317 22.0051 6.80135 21.9806 6.81772C21.9152 6.86682 21.8662 6.95683 21.8417 7.07957C21.7681 7.43961 21.76 7.87329 21.8253 8.37244C21.8662 8.69975 21.9724 9.08434 22.1277 9.53439L21.7926 9.79624L21.1716 8.10241C21.1062 7.91421 21.0572 7.79965 21.0163 7.75055C20.9836 7.70964 20.9509 7.68509 20.9182 7.67691C20.8855 7.66873 20.861 7.67691 20.8365 7.70146C20.7875 7.74237 20.7466 7.79965 20.7221 7.88148C20.6731 8.00422 20.6486 8.23333 20.6567 8.52791C20.6567 8.83886 20.6894 9.10889 20.7384 9.34619C20.763 9.46075 20.8692 9.79624 21.0653 10.3608L20.7384 10.6145L20.052 8.81431L19.9621 8.57701C19.9539 8.54428 19.9376 8.51155 19.9294 8.50336C19.9049 8.47063 19.864 8.44609 19.815 8.44609C19.766 8.4379 19.7169 8.45427 19.6679 8.487C19.6516 8.50337 19.6025 8.55246 19.529 8.63429L19.4473 8.56064L20.1092 7.80783Z" fill="#2E3192"/>
<path d="M24.3826 5.02169C24.2682 5.08715 24.1865 5.20989 24.1129 5.38173C24.0148 5.62721 23.974 5.92179 23.9985 6.28183C24.023 6.63369 24.0966 6.92009 24.2191 7.13284C24.2845 7.2474 24.3662 7.31286 24.4643 7.33741C24.5624 7.37014 24.6523 7.35377 24.734 7.30468C24.9301 7.18194 25.069 6.92009 25.1426 6.52732C25.2161 6.0118 25.1426 5.56993 24.9219 5.21808C24.8402 5.07897 24.7503 4.99714 24.6604 4.97259C24.5705 4.93986 24.4807 4.95623 24.3826 5.02169ZM25.1916 4.35889L25.7146 6.30638L25.7882 6.56823C25.7964 6.59278 25.7964 6.60914 25.8045 6.62551C25.8209 6.65006 25.8372 6.66642 25.8617 6.6746C25.8781 6.68279 25.8944 6.68279 25.9108 6.6746C25.9271 6.66642 25.9353 6.64187 25.9516 6.60096C25.968 6.5355 25.968 6.40457 25.9516 6.20819L26.0742 6.21637C26.0824 6.4373 26.0579 6.61732 26.0088 6.74825C25.9516 6.89554 25.8862 6.98555 25.8045 7.03464C25.7473 7.06738 25.6901 7.08374 25.6411 7.06738C25.5839 7.05101 25.543 7.0101 25.5022 6.94463C25.4531 6.86281 25.4123 6.75643 25.3714 6.60096L25.3142 6.38002C25.2488 6.79734 25.1508 7.12465 25.02 7.35377C24.9301 7.51743 24.8157 7.64017 24.685 7.722C24.5542 7.80382 24.4153 7.82019 24.2682 7.77928C24.1211 7.73836 23.9903 7.63199 23.8923 7.46015C23.737 7.20648 23.6634 6.87917 23.6553 6.50277C23.6553 6.10999 23.7288 5.75814 23.8841 5.43083C23.9985 5.17716 24.1456 4.99714 24.3254 4.89077C24.4316 4.8253 24.5379 4.79257 24.6277 4.80075C24.7258 4.80894 24.8239 4.85803 24.9301 4.94804L24.8566 4.64528L25.1916 4.35889Z" fill="#2E3192"/>
<path d="M26.6013 3.60668L26.8383 4.93229C26.9445 4.29403 27.0426 3.85216 27.1488 3.61486C27.255 3.36938 27.3858 3.21391 27.5492 3.13208C27.6391 3.09117 27.729 3.08299 27.8189 3.11572C27.9088 3.14845 27.9742 3.21391 28.0232 3.3121C28.0723 3.41029 28.1049 3.56577 28.1376 3.76215L28.3092 5.01412C28.3256 5.1614 28.3419 5.24323 28.3583 5.27596C28.3664 5.30051 28.3828 5.31688 28.4073 5.32506C28.4237 5.33324 28.44 5.33324 28.4563 5.32506C28.4809 5.31688 28.489 5.29233 28.5054 5.2596C28.5462 5.15322 28.5871 4.99775 28.6034 4.80136L28.7097 4.81773C28.6688 5.11231 28.6034 5.34143 28.5135 5.50508C28.4482 5.61146 28.3828 5.6851 28.3092 5.72601C28.2439 5.75874 28.1948 5.75874 28.1458 5.7342C28.0886 5.71783 28.0477 5.66873 28.015 5.61145C27.9742 5.52963 27.9415 5.37416 27.9088 5.13686L27.7454 3.93399C27.729 3.7867 27.7045 3.67214 27.6637 3.5985C27.6473 3.55758 27.6146 3.54122 27.5901 3.53304C27.5574 3.52485 27.5166 3.53304 27.4839 3.54122C27.4348 3.56577 27.3776 3.61486 27.3286 3.69669C27.2305 3.8358 27.157 4.03219 27.0916 4.28585C27.0344 4.53952 26.9935 4.84228 26.9609 5.19413C26.9445 5.38234 26.9527 5.57872 26.9772 5.77511L27.0671 6.25789L26.6912 6.4461L26.3643 4.59679C26.3316 4.37586 26.2989 4.25312 26.2826 4.2122C26.2662 4.17129 26.2335 4.14674 26.1927 4.13038C26.1518 4.12219 26.1028 4.1222 26.0619 4.14674C26.0456 4.15493 26.0129 4.17947 25.9639 4.2122L25.8821 4.27767L25.8086 4.19584L26.6013 3.60668Z" fill="#2E3192"/>
<path d="M31.0959 3.79824C30.9978 4.08463 30.8753 4.33012 30.7282 4.50196C30.5811 4.68198 30.4095 4.80472 30.2052 4.88655C29.96 4.98474 29.7394 4.98474 29.5514 4.89473C29.3553 4.80472 29.2163 4.64106 29.1264 4.39558C29.0202 4.11737 28.9957 3.82279 29.0447 3.50366C29.0938 3.18453 29.2082 2.88995 29.3961 2.62811C29.5841 2.36626 29.8047 2.18624 30.0417 2.08804C30.2297 2.0144 30.3849 1.99803 30.5157 2.03895C30.6383 2.08804 30.72 2.16987 30.769 2.28443C30.8099 2.39081 30.8099 2.49718 30.7772 2.60356C30.7445 2.68539 30.7037 2.74267 30.6301 2.76721C30.5729 2.79176 30.532 2.79176 30.4748 2.76721C30.4258 2.75085 30.3931 2.70993 30.3686 2.65265C30.3523 2.61992 30.3523 2.58719 30.3523 2.55446C30.3523 2.52173 30.3686 2.47263 30.3931 2.41535C30.4176 2.36626 30.434 2.31716 30.434 2.3008C30.434 2.28443 30.434 2.25988 30.4258 2.24352C30.4095 2.2026 30.3849 2.17805 30.3441 2.16987C30.2787 2.15351 30.197 2.16169 30.1071 2.2026C29.9355 2.26806 29.7884 2.39899 29.6658 2.58719C29.5432 2.7754 29.4697 3.00451 29.4288 3.27454C29.388 3.60185 29.4206 3.90462 29.5269 4.18283C29.5923 4.36285 29.7067 4.49377 29.8456 4.55924C29.9845 4.6247 30.148 4.6247 30.3196 4.55924C30.4503 4.51014 30.5729 4.42013 30.6791 4.29739C30.7854 4.18283 30.8916 3.99463 30.9815 3.74914L31.0959 3.79824Z" fill="#2E3192"/>
<path d="M32.0198 2.8864C32.2732 2.77184 32.4775 2.6491 32.6246 2.52636C32.8207 2.35452 32.9515 2.18268 33.0168 2.00266C33.0904 1.82264 33.1067 1.68354 33.0659 1.55261C33.0413 1.47079 33.0005 1.42169 32.9351 1.38896C32.8697 1.35623 32.7962 1.35623 32.7063 1.38078C32.5183 1.43806 32.3549 1.60171 32.2078 1.86356C32.0689 2.13359 32.0035 2.46908 32.0198 2.8864ZM32.0444 3.03369C32.0607 3.1237 32.077 3.20553 32.0934 3.26281C32.1424 3.42646 32.2405 3.54102 32.3876 3.62285C32.5347 3.6965 32.6981 3.71286 32.8534 3.66376C32.9841 3.62285 33.0985 3.55739 33.2048 3.46738C33.311 3.37737 33.4499 3.19735 33.6379 2.94368L33.7196 3.00914C33.4254 3.57375 33.0904 3.90925 32.7063 4.03199C32.4448 4.11382 32.2241 4.08927 32.0444 3.95834C31.8646 3.82742 31.742 3.66376 31.6766 3.4592C31.5949 3.18916 31.5949 2.8864 31.6684 2.54273C31.7502 2.20723 31.8809 1.92084 32.0852 1.69172C32.2813 1.45442 32.5183 1.29895 32.7717 1.21712C32.9596 1.15984 33.1149 1.15166 33.2293 1.20076C33.3437 1.24985 33.4173 1.33168 33.4499 1.43805C33.499 1.59353 33.4826 1.75718 33.4009 1.92902C33.2947 2.15814 33.1149 2.37907 32.837 2.58364C32.6573 2.73093 32.3957 2.87822 32.0444 3.03369Z" fill="#2E3192"/>
<path d="M37.3602 0.289917L37.3275 1.19002L37.2294 1.20639C37.1804 0.952721 37.0987 0.7727 36.9843 0.674507C36.8699 0.576314 36.7391 0.535401 36.6002 0.559949C36.4858 0.576315 36.4041 0.62541 36.3469 0.699054C36.2897 0.772699 36.2651 0.854527 36.2815 0.944537C36.2897 1.00182 36.3142 1.06728 36.3469 1.11638C36.3877 1.17365 36.4531 1.23912 36.5593 1.32913C36.8454 1.56643 37.0251 1.73826 37.115 1.86101C37.2131 1.99193 37.2621 2.11467 37.2867 2.22923C37.3193 2.41743 37.2621 2.60564 37.1314 2.79384C36.9925 2.97386 36.8045 3.08024 36.5593 3.12115C36.4204 3.1457 36.2651 3.13751 36.0854 3.10478C36.0282 3.08842 35.971 3.08842 35.9383 3.0966C35.8565 3.11297 35.8075 3.16206 35.7748 3.25207L35.6768 3.26844L35.7013 2.31924L35.7993 2.30287C35.8565 2.58927 35.9464 2.78566 36.069 2.89203C36.1916 2.99841 36.3469 3.03114 36.5267 3.00659C36.6656 2.98204 36.7718 2.92476 36.8372 2.83475C36.9107 2.73656 36.9353 2.63837 36.9189 2.51563C36.9107 2.44198 36.8781 2.37652 36.8372 2.31106C36.7718 2.21286 36.6411 2.06557 36.4449 1.89374C36.2488 1.7219 36.1181 1.59098 36.0527 1.49278C35.9955 1.40277 35.9546 1.30458 35.9383 1.20639C35.9056 1.01818 35.9464 0.86271 36.0608 0.707238C36.1753 0.551765 36.3305 0.469939 36.5348 0.437208C36.6002 0.429025 36.6492 0.420841 36.6983 0.420841C36.7228 0.420841 36.7882 0.437206 36.8862 0.453572C36.9843 0.47812 37.0497 0.486304 37.0824 0.478122C37.1641 0.461756 37.2213 0.404477 37.2621 0.314467L37.3602 0.289917Z" fill="#2E3192"/>
<path d="M39.5708 0.255122C39.44 0.263304 39.3093 0.336949 39.1785 0.45969C38.9824 0.639711 38.819 0.885192 38.6882 1.22069C38.5575 1.54799 38.5003 1.83439 38.5248 2.08806C38.5329 2.21898 38.582 2.31717 38.6555 2.38264C38.7291 2.45628 38.819 2.48083 38.9089 2.47265C39.1377 2.45628 39.3747 2.27626 39.6117 1.95713C39.8977 1.52345 40.0284 1.09795 39.9794 0.680625C39.9631 0.525153 39.9222 0.410594 39.8568 0.345132C39.7751 0.271488 39.6852 0.238756 39.5708 0.255122ZM40.576 0.0178223L40.2082 2.00623L40.1592 2.27626C40.1592 2.30081 40.151 2.31717 40.151 2.33354C40.151 2.36627 40.1674 2.38264 40.1837 2.399C40.2 2.41537 40.2082 2.42355 40.2246 2.41537C40.2409 2.41537 40.2654 2.399 40.2899 2.36627C40.3308 2.31717 40.388 2.19443 40.4615 2.01441L40.5678 2.07987C40.4779 2.28444 40.3798 2.43173 40.2736 2.52992C40.1592 2.6363 40.0611 2.69358 39.963 2.70176C39.8977 2.70995 39.8405 2.69358 39.8078 2.66085C39.7669 2.61994 39.7424 2.56266 39.7342 2.48083C39.7261 2.39082 39.7342 2.26808 39.7669 2.11261L39.8078 1.89167C39.5708 2.23535 39.342 2.48901 39.1295 2.6363C38.9742 2.74268 38.8271 2.80814 38.6719 2.81632C38.5248 2.83269 38.3858 2.78359 38.2714 2.67722C38.157 2.57902 38.0917 2.42355 38.0753 2.21898C38.0508 1.91622 38.1162 1.59709 38.2796 1.25342C38.443 0.90156 38.6637 0.615164 38.9415 0.394229C39.154 0.214209 39.3665 0.124198 39.5708 0.0996498C39.6934 0.091467 39.7996 0.107831 39.8813 0.156928C39.963 0.206024 40.0366 0.296035 40.0856 0.418777L40.151 0.116014L40.576 0.0178223Z" fill="#2E3192"/>
<path d="M41.9229 0C41.9801 0.114559 42.0292 0.220936 42.0455 0.310946C42.07 0.409139 42.0864 0.597342 42.1109 0.883739L42.2089 2.29935C42.3233 2.16025 42.4868 1.9475 42.7074 1.65292C42.8137 1.50563 42.9444 1.30924 43.0997 1.06376C43.1896 0.908285 43.255 0.80191 43.2795 0.744631C43.2876 0.7119 43.2958 0.679168 43.2958 0.65462C43.2958 0.630072 43.2876 0.613708 43.2713 0.597342C43.2631 0.58916 43.2223 0.564611 43.1732 0.548245C43.1242 0.53188 43.0752 0.490965 43.0425 0.450051C43.0016 0.400955 42.9853 0.343675 42.9853 0.278213C42.9853 0.204568 43.0098 0.139107 43.0588 0.0900108C43.1079 0.0409143 43.1569 0.0245498 43.2223 0.0245498C43.304 0.0245498 43.3775 0.0654625 43.4347 0.130925C43.492 0.204569 43.5165 0.29458 43.5165 0.417321C43.5165 0.572793 43.4593 0.736447 43.353 0.932833C43.255 1.12104 43.0507 1.4238 42.7565 1.81657C42.4623 2.21753 42.1109 2.64303 41.6941 3.11763C41.4081 3.44494 41.2038 3.64132 41.0649 3.72315C40.9259 3.80498 40.8115 3.84589 40.7134 3.84589C40.6562 3.84589 40.6072 3.82135 40.5582 3.78043C40.5173 3.73134 40.501 3.68224 40.501 3.61678C40.501 3.54313 40.5337 3.47767 40.599 3.42039C40.6562 3.35493 40.7298 3.33038 40.7952 3.33038C40.836 3.33038 40.8605 3.33856 40.8851 3.35493C40.9014 3.36311 40.9178 3.39584 40.9341 3.43676C40.9504 3.48585 40.9668 3.5104 40.975 3.53495C40.9831 3.54313 40.9995 3.54313 41.0076 3.55131C41.0158 3.55131 41.0403 3.54313 41.0649 3.52677C41.1711 3.4613 41.2937 3.36311 41.4326 3.224C41.6124 3.0358 41.7431 2.88033 41.833 2.75759L41.7104 0.941016C41.6859 0.646437 41.6532 0.466416 41.596 0.400954C41.547 0.335492 41.4571 0.29458 41.3427 0.29458C41.3018 0.29458 41.2365 0.294581 41.1302 0.310946L41.1057 0.204569L41.9229 0Z" fill="#2E3192"/>
<path d="M45.8633 0.206098L45.6182 1.07347L45.5119 1.06529C45.5201 0.803439 45.4874 0.615236 45.3975 0.492495C45.3076 0.369753 45.1932 0.296109 45.0543 0.287926C44.9399 0.279743 44.85 0.304291 44.7764 0.36157C44.7029 0.418849 44.662 0.492496 44.6539 0.590688C44.6457 0.647968 44.6539 0.713428 44.6784 0.770707C44.7029 0.827987 44.7519 0.917998 44.8336 1.02437C45.0543 1.31895 45.1932 1.53989 45.2504 1.67899C45.3158 1.82628 45.3321 1.95721 45.324 2.07995C45.3076 2.27633 45.2096 2.43999 45.0379 2.58728C44.8582 2.72639 44.6539 2.78367 44.4087 2.75912C44.2698 2.75093 44.1227 2.70184 43.9511 2.62819C43.8939 2.60364 43.8448 2.58728 43.8121 2.5791C43.7304 2.57091 43.665 2.61183 43.616 2.69365L43.5098 2.66911L43.7631 1.75264L43.8693 1.76082C43.853 2.0554 43.8939 2.26815 43.9919 2.39908C44.0818 2.53 44.2289 2.60364 44.4087 2.62001C44.5476 2.63637 44.6702 2.60364 44.7519 2.53C44.8418 2.45635 44.8908 2.35816 44.899 2.2436C44.9072 2.16996 44.8908 2.09632 44.8745 2.03085C44.8336 1.91629 44.7356 1.74446 44.5885 1.5317C44.4414 1.31895 44.3433 1.1553 44.3025 1.04892C44.2698 0.942547 44.2534 0.844353 44.2616 0.74616C44.2779 0.557957 44.3515 0.410668 44.4986 0.296109C44.6375 0.181551 44.8173 0.132455 45.0216 0.148821C45.087 0.157003 45.136 0.165185 45.185 0.173368C45.2096 0.181551 45.2668 0.214282 45.3648 0.255195C45.4547 0.304292 45.5201 0.32884 45.5446 0.32884C45.6263 0.337022 45.6999 0.296109 45.7571 0.214282L45.8633 0.206098Z" fill="#2E3192"/>
<path d="M49.2153 0.772915L48.5615 1.94305C48.7903 1.68938 48.9864 1.50118 49.1335 1.38662C49.3705 1.19842 49.583 1.07568 49.771 1.0184C49.8854 0.977484 49.9916 0.977485 50.106 1.00203C50.1959 1.02658 50.2613 1.07568 50.3103 1.14932C50.3593 1.23115 50.3675 1.31298 50.343 1.41117C50.3185 1.50118 50.2695 1.60756 50.1877 1.74666L49.8036 2.3931C50.2531 1.91032 50.6535 1.58301 50.9804 1.42754C51.1684 1.33752 51.3318 1.31298 51.4789 1.35389C51.5688 1.37844 51.6342 1.42754 51.675 1.50936C51.7159 1.58301 51.7159 1.68939 51.6832 1.82849C51.6587 1.93487 51.6097 2.04124 51.5443 2.14762L50.9396 3.13773C50.8088 3.35048 50.7353 3.47322 50.7353 3.49777C50.7271 3.52232 50.7353 3.54687 50.7434 3.57142C50.7516 3.58778 50.7598 3.59596 50.7761 3.59596C50.7925 3.60415 50.8251 3.58778 50.8742 3.56323C50.9886 3.50595 51.0948 3.41594 51.2092 3.30957L51.2828 3.3914C51.2174 3.45686 51.1193 3.5305 50.9804 3.6287C50.8415 3.73507 50.7189 3.79235 50.6372 3.8169C50.5473 3.84145 50.4738 3.84963 50.4084 3.83327C50.3512 3.8169 50.3021 3.78417 50.2695 3.72689C50.2368 3.67779 50.2286 3.61233 50.2449 3.55505C50.2695 3.47322 50.3593 3.30139 50.5064 3.04772L51.0131 2.22126C51.1275 2.03306 51.1929 1.92668 51.1929 1.90214C51.2092 1.86941 51.2174 1.83667 51.2256 1.80394C51.2338 1.75485 51.2338 1.71393 51.2174 1.68938C51.2011 1.65665 51.1766 1.64029 51.152 1.6321C51.0703 1.60756 50.9722 1.6321 50.866 1.68938C50.5391 1.85304 50.2041 2.12307 49.869 2.49129C49.6484 2.72859 49.4114 3.0559 49.1744 3.45686L48.7658 3.35048L49.6729 1.79576C49.771 1.62392 49.8282 1.51755 49.8445 1.45208C49.8608 1.40299 49.8527 1.36207 49.8363 1.32934C49.82 1.3048 49.8036 1.28025 49.771 1.27206C49.7138 1.2557 49.6402 1.26388 49.5585 1.28843C49.4277 1.32934 49.2479 1.45208 49.0191 1.64029C48.7821 1.83667 48.5942 2.03306 48.4389 2.22126C48.3735 2.31127 48.1774 2.60585 47.875 3.12137L47.4746 3.02317L48.4226 1.34571L48.5451 1.12477C48.5615 1.09204 48.5778 1.0675 48.5778 1.05113C48.586 1.01022 48.5778 0.969303 48.5451 0.928389C48.5206 0.887476 48.4798 0.854744 48.4226 0.838378C48.398 0.830196 48.3327 0.830195 48.2183 0.822012V0.715637L49.2153 0.772915Z" fill="#2E3192"/>
<path d="M54.1677 2.9599C54.2249 2.79625 54.2331 2.64896 54.1841 2.52622C54.135 2.41166 54.0451 2.32983 53.9144 2.28073C53.6529 2.19072 53.3505 2.2971 53.0073 2.60804C52.6559 2.91081 52.4189 3.25448 52.2881 3.63089C52.2309 3.80273 52.2309 3.95002 52.28 4.07276C52.329 4.1955 52.4189 4.27733 52.5496 4.32642C52.7948 4.41643 53.0972 4.30187 53.4404 3.99911C53.7918 3.70453 54.0288 3.36086 54.1677 2.9599ZM54.5273 3.31176C54.4374 3.58179 54.2739 3.82727 54.0451 4.04003C53.8163 4.26096 53.5466 4.40007 53.2443 4.47371C52.9419 4.53917 52.6722 4.53917 52.4352 4.44916C52.1982 4.36734 52.0266 4.22004 51.9286 4.00729C51.8305 3.80272 51.8223 3.56543 51.9122 3.31994C52.0021 3.04991 52.1656 2.81261 52.4025 2.59986C52.6477 2.38711 52.9174 2.248 53.2198 2.17436C53.5221 2.1089 53.7836 2.1089 54.0206 2.19072C54.2494 2.27255 54.4129 2.41984 54.5109 2.62441C54.609 2.82898 54.6172 3.04991 54.5273 3.31176Z" fill="#2E3192"/>
<path d="M55.5692 2.97308L56.509 3.24311L55.5692 4.3396C56.1086 3.9632 56.5417 3.7259 56.8849 3.6277C57.0811 3.57861 57.2118 3.57042 57.3017 3.61134C57.3589 3.63589 57.3916 3.6768 57.4161 3.7259C57.4325 3.77499 57.4243 3.82409 57.3998 3.88955C57.3426 4.00411 57.269 4.1023 57.1628 4.17595C57.0893 4.24141 57.0075 4.24959 56.9422 4.20868C56.9013 4.19231 56.8768 4.16777 56.8523 4.11867C56.8359 4.07775 56.8441 4.02866 56.8604 3.97138C56.8768 3.93865 56.8768 3.9141 56.8686 3.89773C56.8604 3.87319 56.8441 3.865 56.8277 3.85682C56.7951 3.84045 56.7705 3.83227 56.7379 3.84045C56.6806 3.84045 56.5908 3.88137 56.4437 3.94683C56.223 4.05321 55.9779 4.2005 55.6837 4.3887C55.5611 4.47053 55.4385 4.56872 55.3241 4.69146C55.1606 4.85512 55.0626 4.95331 55.0462 4.98604L54.8092 5.28062L54.417 5.1006L55.6183 3.69316C55.7572 3.52951 55.8389 3.40677 55.8798 3.33312C55.8961 3.30039 55.8961 3.26766 55.8798 3.23493C55.8553 3.19402 55.8226 3.16129 55.7654 3.13674C55.7327 3.12037 55.6673 3.09582 55.5774 3.07128L55.5692 2.97308Z" fill="#2E3192"/>
<path d="M57.3989 5.20325C57.6604 5.30963 57.881 5.37509 58.0771 5.39964C58.3305 5.42419 58.5511 5.39964 58.7227 5.326C58.8943 5.25235 59.0087 5.16234 59.0741 5.04778C59.115 4.97414 59.1232 4.90868 59.0986 4.84321C59.0823 4.76957 59.0251 4.71229 58.9434 4.67138C58.7718 4.57318 58.5429 4.565 58.2569 4.63865C57.9709 4.70411 57.6849 4.90049 57.3989 5.20325ZM57.309 5.30963C57.2518 5.38327 57.2109 5.45692 57.1782 5.50602C57.0965 5.6533 57.0801 5.80878 57.1292 5.97243C57.1782 6.13609 57.2763 6.25883 57.4234 6.34066C57.5459 6.40612 57.6685 6.44703 57.8075 6.4634C57.9464 6.47158 58.167 6.45521 58.4776 6.4143L58.4857 6.5125C57.881 6.69252 57.407 6.67615 57.0556 6.47976C56.8186 6.34884 56.6797 6.16882 56.647 5.94789C56.6143 5.72695 56.647 5.52238 56.7451 5.33418C56.8758 5.0887 57.0965 4.87594 57.3907 4.69592C57.6849 4.52409 57.9791 4.41771 58.2896 4.40953C58.592 4.39316 58.8698 4.45044 59.0986 4.58137C59.2703 4.67956 59.3765 4.78593 59.4255 4.90868C59.4746 5.03142 59.4664 5.13779 59.4092 5.23599C59.3356 5.37509 59.2049 5.48147 59.0251 5.54693C58.7881 5.62876 58.5103 5.64512 58.1752 5.58784C57.9546 5.55511 57.6685 5.4651 57.309 5.30963Z" fill="#2E3192"/>
<path d="M62.89 6.23599L62.2689 6.74332L62.5794 6.96426L62.4405 7.087L62.1218 6.85788L60.7571 7.95437C60.5936 8.07711 60.4956 8.15894 60.4629 8.20803C60.4465 8.23258 60.4383 8.25713 60.4383 8.2735C60.4465 8.28986 60.4465 8.30623 60.471 8.32259C60.5037 8.34714 60.5609 8.35532 60.659 8.33896C60.7162 8.33077 60.8551 8.28168 61.0758 8.20803L61.1085 8.32259C60.8388 8.43715 60.61 8.49443 60.4383 8.48625C60.3239 8.48625 60.2177 8.45352 60.136 8.39624C60.0706 8.34714 60.0297 8.29804 60.0216 8.2244C60.0134 8.15075 60.0297 8.08529 60.0706 8.01983C60.1278 7.92982 60.2422 7.82344 60.4138 7.68434L61.7541 6.60421L61.4027 6.35873L61.4925 6.28509C61.6968 6.35873 61.8848 6.38328 62.0646 6.3751C62.2444 6.36691 62.4814 6.30145 62.7919 6.17871L62.89 6.23599Z" fill="#2E3192"/>
<path d="M64.9586 6.90527L62.6214 8.58274C63.2261 8.40272 63.6593 8.31271 63.9208 8.30452C64.1823 8.30452 64.3948 8.3618 64.5337 8.47636C64.6072 8.53364 64.6481 8.61547 64.6481 8.70548C64.6644 8.79549 64.6236 8.89368 64.55 8.98369C64.4765 9.08189 64.3539 9.18008 64.2068 9.27827L63.1689 9.96562C63.0464 10.0475 62.981 10.0965 62.9646 10.1129C62.9483 10.1293 62.9401 10.1538 62.9401 10.1702C62.9401 10.1947 62.9483 10.2111 62.9646 10.2275C62.981 10.2357 63.0055 10.2438 63.0464 10.2357C63.1689 10.2357 63.316 10.2029 63.4795 10.1456L63.5122 10.2438C63.4059 10.2847 63.2752 10.3093 63.1199 10.3338C62.9646 10.3584 62.8421 10.3666 62.7522 10.3502C62.6704 10.3338 62.5969 10.3093 62.556 10.2684C62.507 10.2275 62.4825 10.1784 62.4743 10.1129C62.4743 10.0475 62.4907 9.99835 62.5315 9.94108C62.5887 9.87561 62.7113 9.77742 62.9156 9.6465L63.9126 8.98369C64.0352 8.90187 64.1251 8.82822 64.1741 8.76276C64.1986 8.73821 64.2068 8.70548 64.1986 8.67275C64.1904 8.64002 64.1741 8.60729 64.1414 8.58274C64.1006 8.55001 64.027 8.51728 63.9453 8.50909C63.79 8.48455 63.5694 8.50091 63.2997 8.55001C63.2261 8.56637 62.9483 8.6482 62.4743 8.79549C62.3272 8.84459 62.1801 8.91823 62.0412 9.00824L61.5427 9.35192L61.2158 9.08189L63.978 7.10984L64.2722 6.89709C64.3049 6.85618 64.313 6.80708 64.3049 6.7498C64.2967 6.70071 64.2722 6.65161 64.2231 6.6107C64.1986 6.58615 64.1496 6.5616 64.0924 6.52887L64.0434 6.49614L64.1087 6.40613L64.9586 6.90527Z" fill="#2E3192"/>
<path d="M66.3653 10.4307C66.2672 10.3407 66.1283 10.2835 65.9567 10.2671C65.6952 10.2344 65.401 10.2753 65.0741 10.3898C64.7472 10.5044 64.4939 10.6517 64.3222 10.8317C64.2324 10.9217 64.1915 11.0199 64.1915 11.1263C64.1915 11.2327 64.2242 11.3145 64.2896 11.3799C64.453 11.5436 64.739 11.6091 65.1395 11.5845C65.6543 11.519 66.0466 11.339 66.3326 11.0281C66.4388 10.9135 66.496 10.8071 66.496 10.709C66.4878 10.6026 66.447 10.5126 66.3653 10.4307ZM67.1988 11.0526L65.4827 12.0755L65.2539 12.2146C65.2375 12.2309 65.2212 12.2391 65.2048 12.2473C65.1885 12.2719 65.1803 12.2964 65.1721 12.3128C65.1721 12.3373 65.1721 12.3455 65.1885 12.3619C65.2048 12.3782 65.2212 12.3782 65.262 12.3782C65.3274 12.3782 65.45 12.3455 65.6379 12.28L65.6625 12.4028C65.45 12.4682 65.2784 12.4928 65.1313 12.4764C64.9842 12.4601 64.8779 12.4192 64.8044 12.3537C64.7554 12.3046 64.7308 12.2555 64.7308 12.2064C64.7308 12.1491 64.7554 12.0918 64.8126 12.0346C64.8779 11.9691 64.9678 11.8955 65.1068 11.8136L65.3029 11.6991C64.8861 11.74 64.5511 11.7318 64.3059 11.6663C64.1261 11.6172 63.979 11.5436 63.8646 11.4372C63.7584 11.3308 63.7012 11.1999 63.7012 11.0444C63.7012 10.889 63.7747 10.7335 63.9055 10.5944C64.1098 10.3816 64.3958 10.218 64.7554 10.1116C65.1231 10.0052 65.4827 9.98887 65.8341 10.0543C66.1038 10.1034 66.3162 10.2016 66.4633 10.3407C66.5532 10.4307 66.6104 10.5208 66.6268 10.6189C66.6431 10.7171 66.6268 10.8317 66.5614 10.9544L66.8311 10.8071L67.1988 11.0526Z" fill="#2E3192"/>
<path d="M68.3084 12.3188L67.0989 12.8752C67.7363 12.8261 68.1858 12.8179 68.4391 12.867C68.6924 12.9161 68.8804 13.0061 68.9948 13.1453C69.0602 13.2189 69.0847 13.3089 69.0765 13.4071C69.0602 13.5053 69.0193 13.5871 68.9376 13.6526C68.8559 13.7262 68.717 13.7999 68.5372 13.8735L67.3849 14.3481C67.246 14.4054 67.1724 14.4381 67.1479 14.4545C67.1316 14.4709 67.1152 14.4872 67.1152 14.5118C67.1071 14.5281 67.1152 14.5527 67.1234 14.5609C67.1398 14.5772 67.1643 14.5854 67.197 14.5936C67.3114 14.61 67.4666 14.61 67.6546 14.5772L67.6628 14.6836C67.3686 14.7163 67.1398 14.7082 66.96 14.6591C66.8374 14.6263 66.7557 14.5772 66.7066 14.5118C66.6658 14.4545 66.6494 14.4054 66.6576 14.3481C66.6658 14.2908 66.6903 14.2336 66.7475 14.1926C66.8129 14.1354 66.96 14.0617 67.1724 13.9717L68.2838 13.5217C68.4228 13.4644 68.5208 13.4153 68.5862 13.3662C68.6189 13.3416 68.6271 13.3089 68.6352 13.2762C68.6352 13.2353 68.6189 13.2025 68.6026 13.178C68.5699 13.1371 68.5045 13.0962 68.4146 13.0634C68.2593 12.998 68.055 12.9734 67.7935 12.9734C67.5402 12.9816 67.2378 13.0061 66.8946 13.0634C66.7148 13.088 66.5269 13.1453 66.3389 13.2189L65.8976 13.4235L65.6279 13.0962L67.3114 12.327C67.5075 12.237 67.6301 12.1797 67.6546 12.1551C67.6873 12.1306 67.7036 12.0897 67.7118 12.0488C67.7118 11.9997 67.7036 11.9588 67.6628 11.9178C67.6546 11.9015 67.6219 11.8769 67.581 11.836L67.4993 11.7706L67.5647 11.6805L68.3084 12.3188Z" fill="#2E3192"/>
<path d="M72.6279 15.7866L69.2528 16.8176C69.0894 16.8749 68.9913 16.9077 68.9586 16.9322C68.9341 16.9486 68.9178 16.9649 68.9096 16.9895C68.9014 17.014 68.9096 17.0304 68.9178 17.0549C68.9341 17.0877 68.9668 17.104 69.0159 17.1204C69.1303 17.145 69.2855 17.1613 69.4735 17.145L69.449 17.2677C69.1466 17.2677 68.9178 17.2268 68.7543 17.1613C68.6399 17.104 68.5582 17.0468 68.501 16.9649C68.4683 16.9077 68.452 16.8504 68.4683 16.7849C68.4847 16.7195 68.5174 16.6704 68.5746 16.6376C68.6318 16.5967 68.7625 16.5476 68.975 16.4822L71.6309 15.6721C71.8434 15.6066 71.966 15.5657 71.9905 15.5411C72.0313 15.5166 72.0477 15.4839 72.0559 15.4348C72.064 15.3857 72.0395 15.3366 71.9986 15.2711C71.9741 15.2302 71.9333 15.1811 71.8761 15.1075L71.966 15.0502L72.6279 15.7866Z" fill="#2E3192"/>
<path d="M72.1303 17.783L70.1118 18.3231C69.9729 18.364 69.8912 18.3804 69.8748 18.3967C69.8503 18.4131 69.8339 18.4377 69.8258 18.454C69.8094 18.4786 69.8176 18.4949 69.8258 18.5113C69.8421 18.5358 69.8666 18.5522 69.9075 18.5686C70.0301 18.6095 70.1772 18.634 70.3651 18.634L70.357 18.7486C70.1281 18.7404 69.9157 18.7077 69.7277 18.634C69.5806 18.5768 69.4825 18.5031 69.4253 18.4049C69.3845 18.3395 69.3763 18.2822 69.3927 18.2167C69.409 18.1513 69.4417 18.1022 69.4989 18.0694C69.5561 18.0367 69.6787 17.9876 69.8421 17.9467L71.1415 17.6194C71.3458 17.5621 71.4765 17.5212 71.5174 17.4966C71.5501 17.4721 71.5746 17.4394 71.5828 17.3984C71.5909 17.3575 71.5746 17.3166 71.5501 17.2757C71.5256 17.243 71.4765 17.1693 71.3948 17.0711L71.4929 17.0139L72.1303 17.783ZM73.0374 17.0875C73.0783 17.1611 73.0864 17.2266 73.0701 17.3002C73.0456 17.3739 73.0047 17.4312 72.9393 17.4721C72.874 17.513 72.8004 17.5212 72.7269 17.5048C72.6533 17.4803 72.5961 17.4394 72.5552 17.3739C72.5144 17.3084 72.5062 17.2348 72.5226 17.1611C72.5471 17.0875 72.5879 17.022 72.6533 16.9893C72.7269 16.9484 72.7922 16.9402 72.8658 16.9566C72.9393 16.9811 72.9965 17.022 73.0374 17.0875Z" fill="#2E3192"/>
<path d="M70.6278 19.7916C70.5543 19.9552 70.5624 20.1352 70.6442 20.3153C70.685 20.4053 70.7586 20.4871 70.8485 20.5526C70.9465 20.618 71.0609 20.6753 71.1999 20.7162C71.3388 20.7571 71.4859 20.7817 71.6493 20.7899C71.8128 20.7899 71.9844 20.7817 72.1887 20.7571C72.3848 20.7326 72.5646 20.6753 72.7362 20.5935C72.8751 20.528 72.9569 20.4462 73.0059 20.348C73.0468 20.2498 73.0468 20.1516 73.0059 20.0698C72.916 19.8816 72.728 19.7507 72.4257 19.677C72.1315 19.5952 71.8128 19.587 71.4941 19.6443L70.6278 19.7916ZM72.9405 19.3661L72.2786 19.4888C72.5809 19.5624 72.8179 19.6525 72.965 19.7588C73.1203 19.857 73.2347 19.9879 73.3083 20.1352C73.3818 20.2825 73.39 20.4462 73.3164 20.6098C73.251 20.7817 73.1203 20.9044 72.9242 21.0026C72.5564 21.1826 72.0988 21.2235 71.5758 21.109C71.0446 20.9944 70.6769 20.7326 70.4889 20.3316C70.448 20.2498 70.4235 20.168 70.4072 20.0943C70.399 20.0125 70.3908 19.9307 70.399 19.8243L69.6553 19.9634C69.5083 19.9879 69.4102 20.0125 69.3693 20.0289C69.3366 20.0452 69.304 20.0698 69.2876 20.1107C69.2713 20.1434 69.2631 20.1843 69.2713 20.2334C69.2794 20.2907 69.3121 20.3807 69.3775 20.5116L69.2713 20.528L68.6992 19.3333L68.8055 19.317C68.8872 19.4724 68.9689 19.5624 69.0424 19.5952C69.116 19.6279 69.2713 19.6197 69.5246 19.5788L72.0579 19.1206C72.2214 19.096 72.3113 19.0633 72.344 19.0469C72.393 19.0224 72.4257 18.9978 72.4338 18.9569C72.4502 18.916 72.442 18.8751 72.4093 18.8178C72.3848 18.7687 72.3439 18.7033 72.2949 18.6132L72.393 18.5641L72.9405 19.3661Z" fill="#2E3192"/>
<path d="M74.5138 23.0207L73.6476 23.1926L73.6067 23.0944C73.8356 22.988 73.9908 22.8652 74.0644 22.7343C74.1379 22.5952 74.1461 22.4643 74.0889 22.3334C74.048 22.227 73.9827 22.1533 73.8928 22.1124C73.811 22.0715 73.7293 22.0715 73.6394 22.1042C73.5822 22.1288 73.5332 22.1615 73.4923 22.2106C73.4515 22.2597 73.3943 22.3415 73.3371 22.4643C73.1736 22.7998 73.0429 23.0207 72.9448 23.1353C72.8467 23.258 72.7405 23.3398 72.6261 23.3889C72.4463 23.4626 72.2583 23.4544 72.054 23.3644C71.8497 23.2662 71.7108 23.1025 71.6128 22.8734C71.5637 22.7425 71.531 22.587 71.5229 22.3988C71.5229 22.3334 71.5147 22.2843 71.4983 22.2515C71.4657 22.1779 71.4085 22.1288 71.3104 22.1206L71.2695 22.0224L72.1848 21.8342L72.2257 21.9324C71.9642 22.0551 71.7925 22.1861 71.719 22.3334C71.6454 22.4725 71.6454 22.6361 71.719 22.808C71.7762 22.9389 71.8497 23.0371 71.956 23.078C72.0622 23.1271 72.1685 23.1271 72.2747 23.0862C72.3482 23.0616 72.4054 23.0125 72.4545 22.9634C72.5362 22.8734 72.6424 22.7098 72.765 22.4807C72.8876 22.2515 72.9857 22.0879 73.0592 22.0061C73.1328 21.9242 73.2145 21.8669 73.3044 21.826C73.476 21.7524 73.6394 21.7606 73.8029 21.8342C73.9663 21.9079 74.0971 22.047 74.1706 22.2434C74.1951 22.3006 74.2115 22.3497 74.2196 22.407C74.2196 22.4316 74.2278 22.497 74.2278 22.6034C74.2278 22.7016 74.236 22.7752 74.2442 22.7998C74.2768 22.8734 74.3422 22.9225 74.4403 22.9389L74.5138 23.0207Z" fill="#2E3192"/>
<path d="M16.6486 40.6896L14.769 34.3644L12.8813 40.6896H16.6486ZM17.7763 44.4946H11.5329L10.6912 47.3913H5.43652L11.9251 29.7984H17.76L24.2241 47.3913H18.6426L17.7763 44.4946Z" fill="#D92653"/>
<path d="M31.2166 37.3185H32.5323C33.562 37.3185 34.2893 37.1385 34.7061 36.7703C35.1228 36.4021 35.3353 35.9356 35.3353 35.371C35.3353 34.8146 35.1555 34.3482 34.7878 33.9636C34.4282 33.579 33.7418 33.3826 32.7448 33.3826H31.2166V37.3185ZM25.8721 29.7986H34.7387C36.6674 29.7986 38.1138 30.265 39.0781 31.206C40.0424 32.147 40.5164 33.4808 40.5164 35.2074C40.5164 36.983 39.9934 38.3741 38.9474 39.3806C37.9013 40.3789 36.2996 40.8862 34.1504 40.8862H31.2248V47.3997H25.8802L25.8721 29.7986Z" fill="#D92653"/>
<path d="M43.2725 29.8008H57.5327V33.5648H48.6252V36.3633H56.8789V39.9474H48.6252V43.4169H57.7942V47.3937H43.2725V29.8008Z" fill="#D92653"/>
<path d="M59.4638 29.7981H65.3395L68.3959 35.2151L71.3623 29.7981H77.1645L71.8036 38.3245L77.6711 47.391H71.6728L68.2896 41.7449L64.8819 47.391H58.9326L64.8737 38.2263L59.4638 29.7981Z" fill="#D92653"/>
<path d="M12.1611 27.0682L0.376953 63.4078L6.57954 61.5176L15.5198 29.1794L12.1611 27.0682Z" fill="#D92653"/>
<path d="M0 63.7492L11.9475 26.9351H12.1682L15.7802 29.0626L6.75829 61.6872L0 63.7492ZM12.2744 27.4178L0.710968 63.0537L6.3742 61.3272L15.2409 29.2835L12.2744 27.4178Z" fill="#D92653"/>
<path d="M77.0964 26.9444H11.9277V27.6399H77.0964V26.9444Z" fill="#D92653"/>
<path d="M20.1175 37.6637L16.5954 27.4353L12.4521 27.558L13.9149 32.3368L17.6986 33.4496L20.1175 37.6637Z" fill="#D92653"/>
<path d="M19.8118 37.8368L17.4664 33.7372L13.5684 32.5998V27.9684L16.8208 27.011L20.4492 37.5504L19.8118 37.8368ZM14.2548 32.0843L17.9241 33.1562L18.586 34.3182L16.3632 27.8702L14.2466 28.4921V32.0843H14.2548Z" fill="#D92653"/>
</svg>
