<svg width="20" height="20" viewBox="0 0 20 20" fill="none" xmlns="http://www.w3.org/2000/svg">
<g clip-path="url(#clip0_924_3436)">
<path d="M17.1423 0H2.85662C2.46153 0 2.14233 0.319196 2.14233 0.714286V19.2857C2.14233 19.6808 2.46153 20 2.85662 20H17.1423C17.5374 20 17.8566 19.6808 17.8566 19.2857V0.714286C17.8566 0.319196 17.5374 0 17.1423 0ZM16.2495 18.3929H3.74948V13.9062H5.93475C6.19367 14.6384 6.64903 15.2969 7.25394 15.7969C8.02403 16.433 8.99948 16.7857 9.99948 16.7857C10.9995 16.7857 11.9749 16.4353 12.745 15.7969C13.3499 15.2969 13.8053 14.6384 14.0642 13.9062H16.2495V12.5H12.937L12.8209 13.0513C12.5531 14.3862 11.3655 15.3571 9.99948 15.3571C8.63341 15.3571 7.44591 14.3862 7.17582 13.0513L7.05974 12.5H3.74948V1.60714H16.2495V18.3929ZM5.71376 6.18304H14.2852C14.3834 6.18304 14.4638 6.10268 14.4638 6.00446V4.93304C14.4638 4.83482 14.3834 4.75446 14.2852 4.75446H5.71376C5.61555 4.75446 5.53519 4.83482 5.53519 4.93304V6.00446C5.53519 6.10268 5.61555 6.18304 5.71376 6.18304ZM5.71376 9.75446H14.2852C14.3834 9.75446 14.4638 9.67411 14.4638 9.57589V8.50446C14.4638 8.40625 14.3834 8.32589 14.2852 8.32589H5.71376C5.61555 8.32589 5.53519 8.40625 5.53519 8.50446V9.57589C5.53519 9.67411 5.61555 9.75446 5.71376 9.75446Z" fill="white"/>
</g>
<defs>
<clipPath id="clip0_924_3436">
<rect width="20" height="20" fill="white"/>
</clipPath>
</defs>
</svg>
