<svg width="17" height="17" viewBox="0 0 17 17" fill="none" xmlns="http://www.w3.org/2000/svg">
<g clip-path="url(#clip0_912_1605)">
<path d="M14.7175 4.61081L10.8747 0.767955C10.7675 0.660812 10.6229 0.600098 10.4711 0.600098H2.88539C2.56932 0.600098 2.31396 0.855455 2.31396 1.17153V16.0287C2.31396 16.3447 2.56932 16.6001 2.88539 16.6001H14.314C14.63 16.6001 14.8854 16.3447 14.8854 16.0287V5.01617C14.8854 4.86438 14.8247 4.71796 14.7175 4.61081ZM13.5675 5.27867H10.2068V1.91795L13.5675 5.27867ZM13.5997 15.3144H3.59968V1.88581H8.99254V5.74296C8.99254 5.94187 9.07155 6.13263 9.21221 6.27329C9.35286 6.41394 9.54362 6.49296 9.74254 6.49296H13.5997V15.3144ZM8.45682 10.493H5.17111C5.09254 10.493 5.02825 10.5572 5.02825 10.6358V11.493C5.02825 11.5715 5.09254 11.6358 5.17111 11.6358H8.45682C8.53539 11.6358 8.59968 11.5715 8.59968 11.493V10.6358C8.59968 10.5572 8.53539 10.493 8.45682 10.493ZM5.02825 8.20724V9.06438C5.02825 9.14295 5.09254 9.20724 5.17111 9.20724H12.0283C12.1068 9.20724 12.1711 9.14295 12.1711 9.06438V8.20724C12.1711 8.12867 12.1068 8.06438 12.0283 8.06438H5.17111C5.09254 8.06438 5.02825 8.12867 5.02825 8.20724Z" fill="currentColor"/>
</g>
<defs>
<clipPath id="clip0_912_1605">
<rect width="16" height="16" fill="white" transform="translate(0.600098 0.600098)"/>
</clipPath>
</defs>
</svg>
