<svg width="21" height="20" viewBox="0 0 21 20" fill="none" xmlns="http://www.w3.org/2000/svg">
<path d="M17.2857 15.7115H16.75V8.12221C16.75 4.97266 14.4219 2.36998 11.3929 1.93694V1.06864C11.3929 0.575335 10.9933 0.175781 10.5 0.175781C10.0067 0.175781 9.60714 0.575335 9.60714 1.06864V1.93694C6.57813 2.36998 4.25 4.97266 4.25 8.12221V15.7115H3.71429C3.3192 15.7115 3 16.0307 3 16.4258V17.1401C3 17.2383 3.08036 17.3186 3.17857 17.3186H8C8 18.6981 9.12054 19.8186 10.5 19.8186C11.8795 19.8186 13 18.6981 13 17.3186H17.8214C17.9196 17.3186 18 17.2383 18 17.1401V16.4258C18 16.0307 17.6808 15.7115 17.2857 15.7115ZM10.5 18.3901C9.90848 18.3901 9.42857 17.9102 9.42857 17.3186H11.5714C11.5714 17.9102 11.0915 18.3901 10.5 18.3901ZM5.85714 15.7115V8.12221C5.85714 6.88114 6.33929 5.71596 7.21652 4.83873C8.09375 3.9615 9.25893 3.47935 10.5 3.47935C11.7411 3.47935 12.9063 3.9615 13.7835 4.83873C14.6607 5.71596 15.1429 6.88114 15.1429 8.12221V15.7115H5.85714Z" fill="currentColor"/>
</svg>
