<svg width="20" height="20" viewBox="0 0 20 20" fill="none" xmlns="http://www.w3.org/2000/svg">
<path d="M17.9468 2.14559H15.8932V1.25273C15.8932 1.15451 15.8128 1.07416 15.7146 1.07416H4.28606C4.18785 1.07416 4.10749 1.15451 4.10749 1.25273V2.14559H2.05392C1.79344 2.14559 1.54363 2.24906 1.35944 2.43325C1.17525 2.61744 1.07178 2.86725 1.07178 3.12773V6.4313C1.07178 8.25496 2.41106 9.77059 4.1566 10.0474C4.50258 12.6411 6.58517 14.6835 9.19678 14.9692V17.3175H4.82178C4.42669 17.3175 4.10749 17.6367 4.10749 18.0317V18.7527C4.10749 18.8509 4.18785 18.9313 4.28606 18.9313H15.7146C15.8128 18.9313 15.8932 18.8509 15.8932 18.7527V18.0317C15.8932 17.6367 15.574 17.3175 15.1789 17.3175H10.8039V14.9692C13.4155 14.6835 15.4981 12.6411 15.8441 10.0474C17.5896 9.77059 18.9289 8.25496 18.9289 6.4313V3.12773C18.9289 2.86725 18.8254 2.61744 18.6413 2.43325C18.4571 2.24906 18.2073 2.14559 17.9468 2.14559ZM2.67892 6.4313V3.75273H4.10749V8.38666C3.69286 8.25422 3.33105 7.99345 3.07427 7.64199C2.8175 7.29053 2.67905 6.86657 2.67892 6.4313ZM14.2861 9.28844C14.2861 10.3844 13.8597 11.4179 13.0829 12.1925C12.3062 12.9692 11.2749 13.3956 10.1789 13.3956H9.82178C8.7258 13.3956 7.69231 12.9692 6.91776 12.1925C6.14097 11.4157 5.71463 10.3844 5.71463 9.28844V2.6813H14.2861V9.28844ZM17.3218 6.4313C17.3218 7.34648 16.7213 8.12327 15.8932 8.38666V3.75273H17.3218V6.4313Z" fill="white"/>
</svg>
