<svg width="20" height="20" viewBox="0 0 20 20" fill="none" xmlns="http://www.w3.org/2000/svg">
<path d="M19.6641 7.76909H13.9498C13.8516 7.76909 13.7712 7.84945 13.7712 7.94767V9.01909C13.7712 9.11731 13.8516 9.19767 13.9498 9.19767H19.6641C19.7623 9.19767 19.8427 9.11731 19.8427 9.01909V7.94767C19.8427 7.84945 19.7623 7.76909 19.6641 7.76909ZM16.673 10.8048H13.9498C13.8516 10.8048 13.7712 10.8852 13.7712 10.9834V12.0548C13.7712 12.153 13.8516 12.2334 13.9498 12.2334H16.673C16.7712 12.2334 16.8516 12.153 16.8516 12.0548V10.9834C16.8516 10.8852 16.7712 10.8048 16.673 10.8048ZM9.22435 5.77133H8.25783C8.11944 5.77133 8.00783 5.88293 8.00783 6.02133V11.557C8.00783 11.6374 8.04578 11.7111 8.11051 11.7579L11.4342 14.182C11.5458 14.2624 11.702 14.2401 11.7824 14.1285L12.356 13.345V13.3428C12.4364 13.2311 12.4119 13.0749 12.3002 12.9945L9.47212 10.9499V6.02133C9.47435 5.88293 9.36051 5.77133 9.22435 5.77133Z" fill="white"/>
<path d="M16.5354 13.6095H15.2452C15.1202 13.6095 15.0019 13.6742 14.9349 13.7814C14.651 14.2314 14.3179 14.6484 13.9416 15.0247C13.2938 15.6746 12.5259 16.1924 11.6805 16.5492C10.8032 16.9198 9.87243 17.1073 8.91261 17.1073C7.95056 17.1073 7.01976 16.9198 6.14476 16.5492C5.29877 16.1921 4.53761 15.6787 3.8836 15.0247C3.22958 14.3707 2.71618 13.6095 2.35904 12.7635C1.98851 11.8885 1.80101 10.9577 1.80101 9.99566C1.80101 9.03361 1.98851 8.10503 2.35904 7.2278C2.71618 6.38182 3.22958 5.62066 3.8836 4.96664C4.53761 4.31262 5.29877 3.79923 6.14476 3.44209C7.01976 3.07155 7.95279 2.88405 8.91261 2.88405C9.87467 2.88405 10.8055 3.07155 11.6805 3.44209C12.5265 3.79923 13.2876 4.31262 13.9416 4.96664C14.3179 5.34291 14.651 5.75991 14.9349 6.20994C15.0019 6.31709 15.1202 6.38182 15.2452 6.38182H16.5354C16.6894 6.38182 16.7876 6.22111 16.7184 6.08494C15.2631 3.18986 12.3122 1.30816 9.01752 1.27021C4.19386 1.20994 0.187166 5.15861 0.178238 9.9778C0.169309 14.8059 4.08226 18.7233 8.91038 18.7233C12.2474 18.7233 15.2474 16.8349 16.7184 13.9064C16.7341 13.8751 16.7415 13.8404 16.74 13.8055C16.7385 13.7706 16.7281 13.7366 16.7097 13.7069C16.6914 13.6771 16.6657 13.6526 16.6352 13.6355C16.6047 13.6185 16.5703 13.6095 16.5354 13.6095Z" fill="white"/>
</svg>
