<svg width="16" height="16" viewBox="0 0 16 16" fill="none" xmlns="http://www.w3.org/2000/svg">
<g clip-path="url(#clip0_1206_4978)">
<path d="M15.1429 4.25982L12.8571 5.57589V2.86161C12.8571 2.23125 12.3446 1.71875 11.7143 1.71875H1.14286C0.5125 1.71875 0 2.23125 0 2.86161V13.1473C0 13.7777 0.5125 14.2902 1.14286 14.2902H11.7143C12.3446 14.2902 12.8571 13.7777 12.8571 13.1473V10.433L15.1429 11.7491C15.5232 11.9688 16 11.6938 16 11.2563V4.75446C16 4.31518 15.5232 4.04018 15.1429 4.25982ZM11.5714 13.0045H1.28571V3.00446H11.5714V13.0045ZM14.7143 10.0223L12.8571 8.95447V7.05625L14.7143 5.98661V10.0223ZM2.57143 5.29018H4.57143C4.65 5.29018 4.71429 5.22589 4.71429 5.14732V4.29018C4.71429 4.21161 4.65 4.14732 4.57143 4.14732H2.57143C2.49286 4.14732 2.42857 4.21161 2.42857 4.29018V5.14732C2.42857 5.22589 2.49286 5.29018 2.57143 5.29018Z" fill="white"/>
</g>
<defs>
<clipPath id="clip0_1206_4978">
<rect width="16" height="16" fill="white"/>
</clipPath>
</defs>
</svg>
